<?xml version="1.0" encoding="UTF-8" standalone="no"?>
<svg
   xmlns:dc="http://purl.org/dc/elements/1.1/"
   xmlns:cc="http://creativecommons.org/ns#"
   xmlns:rdf="http://www.w3.org/1999/02/22-rdf-syntax-ns#"
   xmlns:svg="http://www.w3.org/2000/svg"
   xmlns="http://www.w3.org/2000/svg"
   xmlns:sodipodi="http://sodipodi.sourceforge.net/DTD/sodipodi-0.dtd"
   xmlns:inkscape="http://www.inkscape.org/namespaces/inkscape"
   sodipodi:docname="cloud1.svg"
   inkscape:version="1.0beta2 (2b71d25, 2019-12-03)"
   id="svg7422"
   version="1.1"
   viewBox="0 0 29.055185 7.9337277"
   height="7.9337277mm"
   width="29.055185mm">
  <defs
     id="defs7416" />
  <sodipodi:namedview
     inkscape:window-maximized="0"
     inkscape:window-y="140"
     inkscape:window-x="860"
     inkscape:window-height="1209"
     inkscape:window-width="1600"
     showgrid="false"
     inkscape:document-rotation="0"
     inkscape:current-layer="layer1"
     inkscape:document-units="mm"
     inkscape:cy="-73.578552"
     inkscape:cx="-16.521128"
     inkscape:zoom="0.35"
     inkscape:pageshadow="2"
     inkscape:pageopacity="0.0"
     borderopacity="1.0"
     bordercolor="#666666"
     pagecolor="#ffffff"
     id="base" />
  <metadata
     id="metadata7419">
    <rdf:RDF>
      <cc:Work
         rdf:about="">
        <dc:format>image/svg+xml</dc:format>
        <dc:type
           rdf:resource="http://purl.org/dc/dcmitype/StillImage" />
        <dc:title></dc:title>
      </cc:Work>
    </rdf:RDF>
  </metadata>
  <g
     transform="translate(-110.20455,-167.63433)"
     id="layer1"
     inkscape:groupmode="layer"
     inkscape:label="Layer 1">
    <g
       transform="matrix(0.35277777,0,0,-0.35277777,112.36884,170.90039)"
       id="g6518">
      <path
         inkscape:connector-curvature="0"
         id="path6520"
         style="fill:#ffffff;fill-opacity:1;fill-rule:nonzero;stroke:none"
         d="M 0,0 6.539,-0.047 C 5.5,0.809 4.865,2.112 4.865,3.66 v 0.242 c 0,2.98 2.466,5.377 5.443,5.356 L 41.617,9.033 C 44.596,9.01 46.865,6.581 46.865,3.604 V 3.359 c 0,-1.547 -0.539,-2.844 -1.59,-3.685 l 24.907,-0.181 c 3.384,-0.024 6.068,-3.013 6.044,-6.395 l -0.019,-0.246 c -0.024,-3.385 -2.798,-6.108 -6.181,-6.083 l -70.114,0.506 c -3.383,0.023 -6.047,2.787 -6.047,6.169 v 0.247 C -6.135,-2.925 -3.386,0.024 0,0" />
    </g>
  </g>
</svg>
