<?xml version="1.0" encoding="UTF-8" standalone="no"?>
<svg
   xmlns:dc="http://purl.org/dc/elements/1.1/"
   xmlns:cc="http://creativecommons.org/ns#"
   xmlns:rdf="http://www.w3.org/1999/02/22-rdf-syntax-ns#"
   xmlns:svg="http://www.w3.org/2000/svg"
   xmlns="http://www.w3.org/2000/svg"
   xmlns:sodipodi="http://sodipodi.sourceforge.net/DTD/sodipodi-0.dtd"
   xmlns:inkscape="http://www.inkscape.org/namespaces/inkscape"
   sodipodi:docname="cloud2.svg"
   inkscape:version="1.0beta2 (2b71d25, 2019-12-03)"
   id="svg7487"
   version="1.1"
   viewBox="0 0 17.363016 6.7027779"
   height="6.7027779mm"
   width="17.363016mm">
  <defs
     id="defs7481" />
  <sodipodi:namedview
     inkscape:window-maximized="0"
     inkscape:window-y="264"
     inkscape:window-x="966"
     inkscape:window-height="1209"
     inkscape:window-width="1600"
     showgrid="false"
     inkscape:document-rotation="0"
     inkscape:current-layer="layer1"
     inkscape:document-units="mm"
     inkscape:cy="701.2381"
     inkscape:cx="-452.90228"
     inkscape:zoom="0.35"
     inkscape:pageshadow="2"
     inkscape:pageopacity="0.0"
     borderopacity="1.0"
     bordercolor="#666666"
     pagecolor="#ffffff"
     id="base" />
  <metadata
     id="metadata7484">
    <rdf:RDF>
      <cc:Work
         rdf:about="">
        <dc:format>image/svg+xml</dc:format>
        <dc:type
           rdf:resource="http://purl.org/dc/dcmitype/StillImage" />
        <dc:title></dc:title>
      </cc:Work>
    </rdf:RDF>
  </metadata>
  <g
     transform="translate(-225.66373,37.369246)"
     id="layer1"
     inkscape:groupmode="layer"
     inkscape:label="Layer 1">
    <g
       id="g6506"
       transform="matrix(0.35277777,0,0,-0.35277777,227.29215,-37.369246)">
      <path
         d="m 0,0 h 26.072 c 2.549,0 4.615,-1.992 4.615,-4.543 C 30.687,-5.961 30.049,-7 29.043,-8 h 10.154 c 3.1,0 5.405,-2.127 5.405,-5.227 v -0.182 C 44.602,-16.507 42.297,-19 39.197,-19 H 8.057 c -3.1,0 -5.455,2.493 -5.455,5.591 v 0.182 C 2.602,-11.366 3.354,-9 4.749,-9 H 0 c -2.549,0 -4.616,1.95 -4.616,4.5 0,2.55 2.067,4.5 4.616,4.5"
         style="fill:#ffffff;fill-opacity:1;fill-rule:nonzero;stroke:none"
         id="path6508"
         inkscape:connector-curvature="0" />
    </g>
  </g>
</svg>
