<?xml version="1.0" encoding="UTF-8" standalone="no"?>
<svg
   xmlns:dc="http://purl.org/dc/elements/1.1/"
   xmlns:cc="http://creativecommons.org/ns#"
   xmlns:rdf="http://www.w3.org/1999/02/22-rdf-syntax-ns#"
   xmlns:svg="http://www.w3.org/2000/svg"
   xmlns="http://www.w3.org/2000/svg"
   xmlns:sodipodi="http://sodipodi.sourceforge.net/DTD/sodipodi-0.dtd"
   xmlns:inkscape="http://www.inkscape.org/namespaces/inkscape"
   version="1.1"
   id="svg10"
   xml:space="preserve"
   width="469.26398"
   height="721.86395"
   viewBox="0 0 469.26396 721.86399"
   sodipodi:docname="tasksFinished.svg"
   inkscape:version="1.0beta2 (2b71d25, 2019-12-03)"><metadata
     id="metadata16"><rdf:RDF><cc:Work
         rdf:about=""><dc:format>image/svg+xml</dc:format><dc:type
           rdf:resource="http://purl.org/dc/dcmitype/StillImage" /><dc:title /></cc:Work></rdf:RDF></metadata><defs
     id="defs14" /><sodipodi:namedview
     pagecolor="#ffffff"
     bordercolor="#666666"
     inkscape:document-rotation="0"
     borderopacity="1"
     objecttolerance="10"
     gridtolerance="10"
     guidetolerance="10"
     inkscape:pageopacity="0"
     inkscape:pageshadow="2"
     inkscape:window-width="1651"
     inkscape:window-height="1010"
     id="namedview12"
     showgrid="false"
     inkscape:zoom="0.70603445"
     inkscape:cx="15.114122"
     inkscape:cy="414.56895"
     inkscape:window-x="688"
     inkscape:window-y="141"
     inkscape:window-maximized="0"
     inkscape:current-layer="g20" /><g
     id="g18"
     inkscape:groupmode="layer"
     inkscape:label="ink_ext_XXXXXX"
     transform="matrix(1.3333333,0,0,-1.3333333,-526.64415,929.23562)"><g
       id="g20"
       transform="matrix(0.1,0,0,0.1,-19.120881,-1.0622712)"><path
         d="M 7446.8,1565.91 H 4354.76 c -118.04,0 -213.72,95.68 -213.72,213.72 v 4379.45 c 0,118.03 95.68,213.72 213.72,213.72 H 7446.8 c 118.03,0 213.72,-95.69 213.72,-213.72 V 1779.63 c 0,-118.04 -95.69,-213.72 -213.72,-213.72"
         style="fill:#527275;fill-opacity:1;fill-rule:nonzero;stroke:none"
         id="path24"
         inkscape:connector-curvature="0" /><path
         d="M 7373.79,1816.29 H 4427.76 c -31.06,0 -56.24,25.18 -56.24,56.24 v 4064.82 c 0,31.06 25.18,56.24 56.24,56.24 h 2946.03 c 31.06,0 56.24,-25.18 56.24,-56.24 V 1872.53 c 0,-31.06 -25.18,-56.24 -56.24,-56.24"
         style="fill:#ffffff;fill-opacity:1;fill-rule:nonzero;stroke:none"
         id="path26"
         inkscape:connector-curvature="0" /><path
         d="m 4273.49,1581.9 c -56.91,21.86 -119.55,73.9 -132.45,173.64 l 0.05,19.27 c 1.94,-87.19 56.08,-161.5 132.4,-192.91"
         style="fill:#f5f3eb;fill-opacity:1;fill-rule:nonzero;stroke:none"
         id="path28"
         inkscape:connector-curvature="0" /><path
         d="m 4336.87,1569.04 c -17.58,0 -40,3.88 -63.38,12.86 -76.32,31.41 -130.46,105.72 -132.4,192.91 l 12.1,4377.35 218.33,-299.56 V 1872.53 c 0,-31.06 25.18,-56.24 56.24,-56.24 h 2885.65 l 176.74,-242.49 -3135.39,-3.12 c -5.11,-1.07 -11.15,-1.64 -17.89,-1.64"
         style="fill:#4f6e70;fill-opacity:1;fill-rule:nonzero;stroke:none"
         id="path30"
         inkscape:connector-curvature="0" /><path
         d="m 4580.41,4598.46 h 666.29 v 666.29 h -666.29 v -666.29 m 692.03,-25.73 h -717.77 v 717.75 h 717.77 v -717.75"
         style="fill:#153e49;fill-opacity:1;fill-rule:nonzero;stroke:none"
         id="path36"
         inkscape:connector-curvature="0" /><path
         d="m 4580.41,3514.61 h 666.29 v 666.29 h -666.29 v -666.29 m 692.03,-25.73 h -717.77 v 717.75 h 717.77 v -717.75"
         style="fill:#153e49;fill-opacity:1;fill-rule:nonzero;stroke:none"
         id="path38"
         inkscape:connector-curvature="0" /><path
         d="m 4580.41,2430.76 h 666.29 v 666.29 h -666.29 v -666.29 m 692.03,-25.73 h -717.77 v 717.76 h 717.77 v -717.76"
         style="fill:#153e49;fill-opacity:1;fill-rule:nonzero;stroke:none"
         id="path40"
         inkscape:connector-curvature="0" /><path
         d="M 7132.8,5157.86 H 5654.33 v 73.62 H 7132.8 v -73.62"
         style="fill:#e6e6e6;fill-opacity:1;fill-rule:nonzero;stroke:none"
         id="path42"
         inkscape:connector-curvature="0" /><path
         d="M 7132.8,4931.6 H 5654.33 v 73.62 H 7132.8 v -73.62"
         style="fill:#e6e6e6;fill-opacity:1;fill-rule:nonzero;stroke:none"
         id="path44"
         inkscape:connector-curvature="0" /><path
         d="M 7132.8,4705.35 H 5654.33 v 73.61 H 7132.8 v -73.61"
         style="fill:#e6e6e6;fill-opacity:1;fill-rule:nonzero;stroke:none"
         id="path46"
         inkscape:connector-curvature="0" /><path
         d="M 7132.8,4050.05 H 5654.33 v 73.62 H 7132.8 v -73.62"
         style="fill:#e6e6e6;fill-opacity:1;fill-rule:nonzero;stroke:none"
         id="path48"
         inkscape:connector-curvature="0" /><path
         d="M 7132.8,3823.79 H 5654.33 v 73.62 H 7132.8 v -73.62"
         style="fill:#e6e6e6;fill-opacity:1;fill-rule:nonzero;stroke:none"
         id="path50"
         inkscape:connector-curvature="0" /><path
         d="M 7132.8,3597.53 H 5654.33 v 73.62 H 7132.8 v -73.62"
         style="fill:#e6e6e6;fill-opacity:1;fill-rule:nonzero;stroke:none"
         id="path52"
         inkscape:connector-curvature="0" /><path
         d="M 7132.8,3009.24 H 5654.33 v 73.62 H 7132.8 v -73.62"
         style="fill:#e6e6e6;fill-opacity:1;fill-rule:nonzero;stroke:none"
         id="path54"
         inkscape:connector-curvature="0" /><path
         d="M 7132.8,2782.98 H 5654.33 v 73.62 H 7132.8 v -73.62"
         style="fill:#e6e6e6;fill-opacity:1;fill-rule:nonzero;stroke:none"
         id="path56"
         inkscape:connector-curvature="0" /><path
         d="M 7132.8,2556.72 H 5654.33 v 73.62 H 7132.8 v -73.62"
         style="fill:#e6e6e6;fill-opacity:1;fill-rule:nonzero;stroke:none"
         id="path58"
         inkscape:connector-curvature="0" /><path
         d="m 5246.7,5162.16 v 102.59 h -13.68 l 35,25.73 h 4.42 v -106.71 l -25.74,-21.61"
         style="fill:#103039;fill-opacity:1;fill-rule:nonzero;stroke:none"
         id="path64"
         inkscape:connector-curvature="0" /><path
         d="m 5246.7,3901.08 v 118.09 l 25.74,18.92 v -115.4 l -25.74,-21.61"
         style="fill:#103039;fill-opacity:1;fill-rule:nonzero;stroke:none"
         id="path72"
         inkscape:connector-curvature="0" /><path
         d="m 5246.7,2902.52 v 118.08 l 25.74,18.93 v -115.41 l -25.74,-21.6"
         style="fill:#103039;fill-opacity:1;fill-rule:nonzero;stroke:none"
         id="path80"
         inkscape:connector-curvature="0" /><path
         d="m 5931.92,6541.25 c -76.23,0 -138.03,61.8 -138.03,138.04 0,76.23 61.8,138.03 138.03,138.03 76.23,0 138.04,-61.8 138.04,-138.03 0,-76.24 -61.81,-138.04 -138.04,-138.04 z m 940.26,-49.07 h -523.09 v 74.72 c 0,228.08 -184.91,412.99 -413,412.99 h -8.34 c -228.09,0 -412.99,-184.91 -412.99,-412.99 v -74.72 h -523.09 c -27.05,0 -48.98,-21.93 -48.98,-48.98 v -527.79 c 0,-27.05 21.93,-48.98 48.98,-48.98 h 1880.51 c 27.04,0 48.97,21.93 48.97,48.98 v 527.79 c 0,27.05 -21.93,48.98 -48.97,48.98"
         style="fill:#f7d77f;fill-opacity:1;fill-rule:nonzero;stroke:none"
         id="path86"
         inkscape:connector-curvature="0" /><path
         d="M 6921.15,5952.18 H 4942.69 V 6035 h 1978.46 v -82.82"
         style="fill:#e5c573;fill-opacity:1;fill-rule:nonzero;stroke:none"
         id="path88"
         inkscape:connector-curvature="0" /><path
         d="M 6912.11,5894.17 H 4953.64 c -6.05,0 -10.95,4.9 -10.95,10.94 v 25.47 h 1978.46 v -27.37 c 0,-5 -4.05,-9.04 -9.04,-9.04"
         style="fill:#e5c573;fill-opacity:1;fill-rule:nonzero;stroke:none"
         id="path90"
         inkscape:connector-curvature="0" /></g></g></svg>
