<?xml version="1.0" encoding="UTF-8" standalone="no"?>
<svg
   xmlns:dc="http://purl.org/dc/elements/1.1/"
   xmlns:cc="http://creativecommons.org/ns#"
   xmlns:rdf="http://www.w3.org/1999/02/22-rdf-syntax-ns#"
   xmlns:svg="http://www.w3.org/2000/svg"
   xmlns="http://www.w3.org/2000/svg"
   xmlns:sodipodi="http://sodipodi.sourceforge.net/DTD/sodipodi-0.dtd"
   xmlns:inkscape="http://www.inkscape.org/namespaces/inkscape"
   version="1.1"
   id="svg2503"
   xml:space="preserve"
   width="143.01643"
   height="296.70428"
   viewBox="0 0 143.01644 296.70427"
   sodipodi:docname="12.svg"
   inkscape:version="1.0beta2 (2b71d25, 2019-12-03)"><metadata
     id="metadata2509"><rdf:RDF><cc:Work
         rdf:about=""><dc:format>image/svg+xml</dc:format><dc:type
           rdf:resource="http://purl.org/dc/dcmitype/StillImage" /><dc:title></dc:title></cc:Work></rdf:RDF></metadata><defs
     id="defs2507" /><sodipodi:namedview
     inkscape:snap-global="false"
     pagecolor="#ffffff"
     bordercolor="#666666"
     inkscape:document-rotation="0"
     borderopacity="1"
     objecttolerance="10"
     gridtolerance="10"
     guidetolerance="10"
     inkscape:pageopacity="0"
     inkscape:pageshadow="2"
     inkscape:window-width="1375"
     inkscape:window-height="809"
     id="namedview2505"
     showgrid="false"
     inkscape:snap-object-midpoints="true"
     inkscape:zoom="1.4373641"
     inkscape:cx="70.132646"
     inkscape:cy="195.63811"
     inkscape:window-x="66"
     inkscape:window-y="23"
     inkscape:window-maximized="0"
     inkscape:current-layer="g1959" /><g
     id="g2511"
     inkscape:groupmode="layer"
     inkscape:label="ink_ext_XXXXXX"
     transform="matrix(1.3333333,0,0,-1.3333333,-3.0858076,297.2872)"><g
       transform="matrix(0.10565526,0,0,0.09907045,-332.27499,-194.95491)"
       id="g1959"><path
         inkscape:connector-curvature="0"
         id="path1703"
         style="fill:#76cb4c;fill-opacity:1;fill-rule:nonzero;stroke:none;stroke-width:0.404801"
         d="m 3786.0176,4039.8801 c 0,-66.439 -52.3136,-120.3042 -116.834,-120.3042 -64.5283,0 -116.8379,53.8652 -116.8379,120.3042 0,66.4512 52.3096,120.3122 116.8379,120.3122 64.5204,0 116.834,-53.861 116.834,-120.3122" /><path
         inkscape:connector-curvature="0"
         id="path1709"
         style="fill:#6a3b18;fill-opacity:1;fill-rule:nonzero;stroke:none;stroke-width:0.888222"
         d="m 3952.6553,2836.4048 c -49.7855,-72.7936 -144.3008,-123.7893 -254.5635,-130.2908 v 198.3402 h -46.9323 V 2706.114 c -61.048,3.4754 -117.3106,20.537 -163.8525,47.4415 l -35.5695,-27.9999 c 56.0123,-33.8238 124.6788,-55.2828 199.422,-58.9473 V 2504.4324 2400.723 h 46.9323 v 103.7488 162.1838 c 123.8879,6.3124 231.1374,61.3587 291.1543,140.9454 l -36.5908,28.8038" /><path
         inkscape:connector-curvature="0"
         id="path1711"
         style="fill:none;stroke:#56ac35;stroke-width:4.04801;stroke-linecap:butt;stroke-linejoin:miter;stroke-miterlimit:10;stroke-dasharray:none;stroke-opacity:1"
         d="m 3659.9184,4138.6471 c 25.9136,0 69.794,-17.7414 85.7506,-67.7246" /><path
         d="m 4177.1812,2918.8903 c 0,-88.3113 -66.7935,-159.9094 -149.1727,-159.9094 -82.3892,0 -149.1777,71.5981 -149.1777,159.9094 0,88.3276 66.7885,159.92 149.1777,159.92 82.3792,0 149.1727,-71.5924 149.1727,-159.92"
         style="fill:#83b04f;fill-opacity:1;fill-rule:nonzero;stroke:none;stroke-width:0.527349"
         id="path1703-8"
         inkscape:connector-curvature="0" /><path
         inkscape:connector-curvature="0"
         id="path1703-8-3"
         style="fill:#83bf4c;fill-opacity:1;fill-rule:nonzero;stroke:none;stroke-width:0.633018"
         d="m 3544.242,2891.1578 c 0,-101.9378 -83.378,-184.5836 -186.2115,-184.5836 -102.8461,0 -186.2178,82.6458 -186.2178,184.5836 0,101.9567 83.3717,184.5961 186.2178,184.5961 102.8335,0 186.2115,-82.6394 186.2115,-184.5961" /><path
         inkscape:connector-curvature="0"
         id="path1711-2-4"
         style="fill:none;stroke:#56ac35;stroke-width:6.33019;stroke-linecap:butt;stroke-linejoin:miter;stroke-miterlimit:10;stroke-dasharray:none;stroke-opacity:1"
         d="m 3343.2636,3042.697 c 41.3011,0 111.2386,-27.2208 136.6702,-103.9106" /><path
         sodipodi:nodetypes="ccccccccccc"
         d="m 3949.0868,3870.6388 c -49.7856,-72.7936 -144.3009,-123.7893 -254.5636,-130.2908 v 198.3402 h -46.9323 c -2.3651,-388.8728 0,-77.1013 0,-400.0218 V 3434.957 h 46.9323 v 103.7488 162.1838 c 123.8879,6.3124 231.1375,61.3587 291.1544,140.9454 l -36.5908,28.8038"
         style="fill:#6a3b18;fill-opacity:1;fill-rule:nonzero;stroke:none;stroke-width:0.888221"
         id="path1709-3"
         inkscape:connector-curvature="0" /><path
         inkscape:connector-curvature="0"
         id="path1703-8-2"
         style="fill:#83bf4c;fill-opacity:1;fill-rule:nonzero;stroke:none;stroke-width:0.568051"
         d="m 4192.5783,2526.4456 c 0,-93.2123 -73.4274,-168.7837 -163.9883,-168.7837 -90.5721,0 -163.9937,75.5714 -163.9937,168.7837 0,93.2293 73.4216,168.7949 163.9937,168.7949 90.5609,0 163.9883,-75.5656 163.9883,-168.7949" /><path
         inkscape:connector-curvature="0"
         id="path1711-2-3"
         style="fill:none;stroke:#56ac35;stroke-width:6.1703;stroke-linecap:butt;stroke-linejoin:miter;stroke-miterlimit:10;stroke-dasharray:none;stroke-opacity:1"
         d="m 3992.7936,2650.6653 c 40.3381,0 108.6451,-26.4806 133.4837,-101.0844" /><path
         d="m 3952.0887,2400.8315 c -49.7856,-72.7936 -144.3009,-123.7893 -254.5636,-130.2908 v 198.3402 h -46.9323 v -198.3402 c -61.048,3.4754 -117.3106,20.537 -163.8525,47.4415 l -35.5695,-27.9999 c 56.0123,-33.8238 124.6788,-55.2828 199.422,-58.9473 v -162.1759 -103.7094 h 46.9323 v 103.7488 162.1838 c 123.8879,6.3124 231.1375,61.3587 291.1544,140.9454 l -36.5908,28.8038"
         style="fill:#6a3b18;fill-opacity:1;fill-rule:nonzero;stroke:none;stroke-width:0.888221"
         id="path1709-4"
         inkscape:connector-curvature="0" /><path
         d="m 3555.4995,2459.2837 c 0,-101.9378 -83.378,-184.5836 -186.2115,-184.5836 -102.8461,0 -186.2178,82.6458 -186.2178,184.5836 0,101.9567 83.3717,184.5961 186.2178,184.5961 102.8335,0 186.2115,-82.6394 186.2115,-184.5961"
         style="fill:#83bf4c;fill-opacity:1;fill-rule:nonzero;stroke:none;stroke-width:0.633018"
         id="path1703-8-3-4"
         inkscape:connector-curvature="0" /><path
         d="m 3354.5211,2610.8229 c 41.3011,0 111.2386,-27.2208 136.6702,-103.9106"
         style="fill:none;stroke:#56ac35;stroke-width:6.33019;stroke-linecap:butt;stroke-linejoin:miter;stroke-miterlimit:10;stroke-dasharray:none;stroke-opacity:1"
         id="path1711-2-4-0"
         inkscape:connector-curvature="0" /><path
         d="m 3979.7391,3640.0707 c 22.6803,0 61.0859,-14.0172 75.0516,-53.5082"
         style="fill:none;stroke:#56ac35;stroke-width:3.3662;stroke-linecap:butt;stroke-linejoin:miter;stroke-miterlimit:10;stroke-dasharray:none;stroke-opacity:1"
         id="path1711-2-4-08"
         inkscape:connector-curvature="0" /><path
         d="m 3952.0886,3206.6584 c -49.7856,-72.7936 -144.3009,-123.7893 -254.5636,-130.2908 v 198.3402 h -46.9323 v -198.3402 c -61.048,3.4754 -117.3106,20.537 -163.8525,47.4415 l -35.5695,-27.9999 c 56.0123,-33.8238 124.6788,-55.2828 199.422,-58.9473 V 2874.686 2770.9766 h 46.9323 v 103.7488 162.1838 c 123.8879,6.3124 231.1375,61.3587 291.1544,140.9454 l -36.5908,28.8038"
         style="fill:#6a3b18;fill-opacity:1;fill-rule:nonzero;stroke:none;stroke-width:0.888221"
         id="path1709-7"
         inkscape:connector-curvature="0" /><path
         inkscape:connector-curvature="0"
         id="path1703-8-3-3-4"
         style="fill:#83bf4c;fill-opacity:1;fill-rule:nonzero;stroke:none;stroke-width:0.437425"
         d="m 3515.9908,3212.4441 c 0,-71.3979 -56.8429,-129.2836 -126.9494,-129.2836 -70.1151,0 -126.9536,57.8857 -126.9536,129.2836 0,71.4112 56.8385,129.2923 126.9536,129.2923 70.1065,0 126.9494,-57.8811 126.9494,-129.2923" /><path
         inkscape:connector-curvature="0"
         id="path1711-2-4-08-0"
         style="fill:none;stroke:#56ac35;stroke-width:4.37425;stroke-linecap:butt;stroke-linejoin:miter;stroke-miterlimit:10;stroke-dasharray:none;stroke-opacity:1"
         d="m 3378.9741,3318.5832 c 28.1569,0 75.8367,-19.0656 93.1747,-72.7796" /><path
         inkscape:connector-curvature="0"
         id="path1703-8-3-3-8"
         style="fill:#83bf4c;fill-opacity:1;fill-rule:nonzero;stroke:none;stroke-width:0.37223"
         d="m 4123.4379,3273.0133 c 0,-62.6722 -46.8921,-113.4836 -104.7261,-113.4836 -57.8409,0 -104.7296,50.8114 -104.7296,113.4836 0,62.684 46.8887,113.4913 104.7296,113.4913 57.834,0 104.7261,-50.8073 104.7261,-113.4913" /><path
         inkscape:connector-curvature="0"
         id="path1711-2-4-08-5"
         style="fill:none;stroke:#56ac35;stroke-width:3.7223;stroke-linecap:butt;stroke-linejoin:miter;stroke-miterlimit:10;stroke-dasharray:none;stroke-opacity:1"
         d="m 4010.4068,3366.181 c 23.228,0 62.561,-16.7356 76.8639,-63.8852" /><path
         inkscape:connector-curvature="0"
         id="path1709-7-1"
         style="fill:#6a3b18;fill-opacity:1;fill-rule:nonzero;stroke:none;stroke-width:0.888221"
         d="m 3952.0887,3559.5368 c -49.7857,-72.7936 -144.301,-123.7893 -254.5637,-130.2908 v 198.3402 h -46.9323 V 3429.246 c -61.048,3.4754 -117.3106,20.537 -163.8525,47.4415 l -35.5695,-27.9999 c 56.0123,-33.8238 124.6788,-55.2828 199.422,-58.9473 V 3227.5644 3123.855 h 46.9323 v 103.7488 162.1838 c 123.8879,6.3124 231.1376,61.3587 291.1545,140.9454 l -36.5908,28.8038" /><path
         inkscape:connector-curvature="0"
         id="path1703-8-3-3-3"
         style="fill:#83bf4c;fill-opacity:1;fill-rule:nonzero;stroke:none;stroke-width:0.33662"
         d="m 3563.5207,3492.2478 c 0,-52.4923 -45.7865,-95.0503 -102.2568,-95.0503 -56.4772,0 -102.2603,42.558 -102.2603,95.0503 0,52.5021 45.7831,95.0567 102.2603,95.0567 56.4703,0 102.2568,-42.5546 102.2568,-95.0567" /><path
         inkscape:connector-curvature="0"
         id="path1711-2-4-08-1"
         style="fill:none;stroke:#56ac35;stroke-width:3.3662;stroke-linecap:butt;stroke-linejoin:miter;stroke-miterlimit:10;stroke-dasharray:none;stroke-opacity:1"
         d="m 3453.1547,3570.2821 c 22.6803,0 61.0859,-14.0172 75.0516,-53.5082" /><path
         d="m 4090.1051,3562.0364 c 0,-52.4923 -45.7865,-95.0503 -102.2568,-95.0503 -56.4772,0 -102.2603,42.558 -102.2603,95.0503 0,52.5021 45.7831,95.0567 102.2603,95.0567 56.4703,0 102.2568,-42.5546 102.2568,-95.0567"
         style="fill:#83bf4c;fill-opacity:1;fill-rule:nonzero;stroke:none;stroke-width:0.33662"
         id="path1703-8-3-3"
         inkscape:connector-curvature="0" /><path
         d="m 4039.4818,3860.267 c 0,-52.4923 -45.7865,-95.0503 -102.2568,-95.0503 -56.4772,0 -102.2603,42.558 -102.2603,95.0503 0,52.5021 45.7831,95.0567 102.2603,95.0567 56.4703,0 102.2568,-42.5546 102.2568,-95.0567"
         style="fill:#83bf4c;fill-opacity:1;fill-rule:nonzero;stroke:none;stroke-width:0.33662"
         id="path1703-8-3-3-3-3"
         inkscape:connector-curvature="0" /><path
         d="m 3929.1158,3938.3013 c 22.6803,0 61.0859,-14.0172 75.0516,-53.5082"
         style="fill:none;stroke:#56ac35;stroke-width:3.3662;stroke-linecap:butt;stroke-linejoin:miter;stroke-miterlimit:10;stroke-dasharray:none;stroke-opacity:1"
         id="path1711-2-4-08-1-2"
         inkscape:connector-curvature="0" /></g></g></svg>
