<?xml version="1.0" encoding="UTF-8" standalone="no"?>
<svg
   xmlns:dc="http://purl.org/dc/elements/1.1/"
   xmlns:cc="http://creativecommons.org/ns#"
   xmlns:rdf="http://www.w3.org/1999/02/22-rdf-syntax-ns#"
   xmlns:svg="http://www.w3.org/2000/svg"
   xmlns="http://www.w3.org/2000/svg"
   xmlns:sodipodi="http://sodipodi.sourceforge.net/DTD/sodipodi-0.dtd"
   xmlns:inkscape="http://www.inkscape.org/namespaces/inkscape"
   version="1.1"
   id="svg2503"
   xml:space="preserve"
   width="143.01643"
   height="296.70428"
   viewBox="0 0 143.01644 296.70427"
   sodipodi:docname="3.svg"
   inkscape:version="1.0beta2 (2b71d25, 2019-12-03)"><metadata
     id="metadata2509"><rdf:RDF><cc:Work
         rdf:about=""><dc:format>image/svg+xml</dc:format><dc:type
           rdf:resource="http://purl.org/dc/dcmitype/StillImage" /><dc:title></dc:title></cc:Work></rdf:RDF></metadata><defs
     id="defs2507" /><sodipodi:namedview
     pagecolor="#ffffff"
     bordercolor="#666666"
     inkscape:document-rotation="0"
     borderopacity="1"
     objecttolerance="10"
     gridtolerance="10"
     guidetolerance="10"
     inkscape:pageopacity="0"
     inkscape:pageshadow="2"
     inkscape:window-width="1375"
     inkscape:window-height="809"
     id="namedview2505"
     showgrid="false"
     inkscape:snap-object-midpoints="true"
     inkscape:zoom="1.1330312"
     inkscape:cx="63.108309"
     inkscape:cy="165.05387"
     inkscape:window-x="169"
     inkscape:window-y="23"
     inkscape:window-maximized="0"
     inkscape:current-layer="g1959" /><g
     id="g2511"
     inkscape:groupmode="layer"
     inkscape:label="ink_ext_XXXXXX"
     transform="matrix(1.3333333,0,0,-1.3333333,-3.0858076,297.2872)"><g
       transform="matrix(0.10565526,0,0,0.09907045,-332.27499,-194.95491)"
       id="g1959"><path
         inkscape:connector-curvature="0"
         id="path1703"
         style="fill:#76cb4c;fill-opacity:1;fill-rule:nonzero;stroke:none;stroke-width:0.613566"
         d="m 3860.6221,2384.4598 c 0,-99.0133 -80.6461,-179.288 -180.1101,-179.288 -99.4762,0 -180.1162,80.2747 -180.1162,179.288 0,99.0318 80.64,179.3003 180.1162,179.3003 99.464,0 180.1101,-80.2685 180.1101,-179.3003" /><path
         inkscape:connector-curvature="0"
         id="path1709"
         style="fill:#6a3b18;fill-opacity:1;fill-rule:nonzero;stroke:none;stroke-width:0.999997"
         d="m 2979.5009,2488.5626 c -49.73,-92.37 -144.14,-157.08 -254.28,-165.33 v 251.68 h -46.88 v -251.68 c -60.98,4.41 -117.18,26.06 -163.67,60.2 l -35.53,-35.53 c 55.95,-42.92 124.54,-70.15 199.2,-74.8 v -205.79 -131.6 h 46.88 v 131.65 205.8 c 123.75,8.01 230.88,77.86 290.8301,178.85 l -36.5501,36.55" /><path
         inkscape:connector-curvature="0"
         id="path1711"
         style="fill:none;stroke:#56ac35;stroke-width:6.13566;stroke-linecap:butt;stroke-linejoin:miter;stroke-miterlimit:10;stroke-dasharray:none;stroke-opacity:1"
         d="m 3666.2289,2531.6515 c 39.9479,0 107.5937,-26.4399 132.1922,-100.9295" /><rect
         ry="28.848654"
         transform="scale(1,-1)"
         y="-2209.0554"
         x="3650.8826"
         height="240.53645"
         width="43.855846"
         id="rect88"
         style="fill:#6a3b18;fill-opacity:1;stroke-width:7.48252;stop-color:#000000" /></g></g></svg>
