<?xml version="1.0" encoding="UTF-8" standalone="no"?>
<svg
   xmlns:dc="http://purl.org/dc/elements/1.1/"
   xmlns:cc="http://creativecommons.org/ns#"
   xmlns:rdf="http://www.w3.org/1999/02/22-rdf-syntax-ns#"
   xmlns:svg="http://www.w3.org/2000/svg"
   xmlns="http://www.w3.org/2000/svg"
   xmlns:sodipodi="http://sodipodi.sourceforge.net/DTD/sodipodi-0.dtd"
   xmlns:inkscape="http://www.inkscape.org/namespaces/inkscape"
   version="1.1"
   id="svg2503"
   xml:space="preserve"
   width="143.01643"
   height="296.70428"
   viewBox="0 0 143.01644 296.70427"
   sodipodi:docname="6.svg"
   inkscape:version="1.0beta2 (2b71d25, 2019-12-03)"><metadata
     id="metadata2509"><rdf:RDF><cc:Work
         rdf:about=""><dc:format>image/svg+xml</dc:format><dc:type
           rdf:resource="http://purl.org/dc/dcmitype/StillImage" /><dc:title></dc:title></cc:Work></rdf:RDF></metadata><defs
     id="defs2507" /><sodipodi:namedview
     inkscape:snap-global="false"
     pagecolor="#ffffff"
     bordercolor="#666666"
     inkscape:document-rotation="0"
     borderopacity="1"
     objecttolerance="10"
     gridtolerance="10"
     guidetolerance="10"
     inkscape:pageopacity="0"
     inkscape:pageshadow="2"
     inkscape:window-width="1375"
     inkscape:window-height="809"
     id="namedview2505"
     showgrid="false"
     inkscape:snap-object-midpoints="true"
     inkscape:zoom="1.4373641"
     inkscape:cx="103.52711"
     inkscape:cy="287.47288"
     inkscape:window-x="66"
     inkscape:window-y="23"
     inkscape:window-maximized="0"
     inkscape:current-layer="g1959" /><g
     id="g2511"
     inkscape:groupmode="layer"
     inkscape:label="ink_ext_XXXXXX"
     transform="matrix(1.3333333,0,0,-1.3333333,-3.0858076,297.2872)"><g
       transform="matrix(0.10565526,0,0,0.09907045,-332.27499,-194.95491)"
       id="g1959"><path
         inkscape:connector-curvature="0"
         id="path1703"
         style="fill:#76cb4c;fill-opacity:1;fill-rule:nonzero;stroke:none;stroke-width:0.670113"
         d="m 3869.9736,2799.5359 c 0,-108.613 -87.6939,-196.6707 -195.8501,-196.6707 -108.1696,0 -195.8568,88.0577 -195.8568,196.6707 0,108.6333 87.6872,196.6841 195.8568,196.6841 108.1562,0 195.8501,-88.0508 195.8501,-196.6841" /><path
         inkscape:connector-curvature="0"
         id="path1709"
         style="fill:#6a3b18;fill-opacity:1;fill-rule:nonzero;stroke:none;stroke-width:0.888222"
         d="m 3947.7167,2546.7284 c -49.7855,-72.7936 -144.3008,-123.7893 -254.5635,-130.2908 v 198.3402 h -46.9323 v -198.3402 c -61.048,3.4754 -117.3106,20.537 -163.8525,47.4415 l -35.5695,-27.9999 c 56.0123,-33.8238 124.6788,-55.2828 199.422,-58.9473 V 2214.756 2111.0466 h 46.9323 v 103.7488 162.1838 c 123.8879,6.3124 231.1374,61.3587 291.1543,140.9454 l -36.5908,28.8038" /><path
         inkscape:connector-curvature="0"
         id="path1711"
         style="fill:none;stroke:#56ac35;stroke-width:6.70113;stroke-linecap:butt;stroke-linejoin:miter;stroke-miterlimit:10;stroke-dasharray:none;stroke-opacity:1"
         d="m 3658.5921,2960.9984 c 43.4391,0 116.9965,-29.0034 143.7447,-110.715" /><path
         d="m 4019.1462,2510.7114 c 0,-63.5885 -49.1034,-115.1427 -109.6646,-115.1427 -60.5686,0 -109.6683,51.5542 -109.6683,115.1427 0,63.6003 49.0997,115.1504 109.6683,115.1504 60.5612,0 109.6646,-51.5501 109.6646,-115.1504"
         style="fill:#83b04f;fill-opacity:1;fill-rule:nonzero;stroke:none;stroke-width:0.383679"
         id="path1703-8"
         inkscape:connector-curvature="0" /><path
         inkscape:connector-curvature="0"
         id="path1703-8-3"
         style="fill:#83bf4c;fill-opacity:1;fill-rule:nonzero;stroke:none;stroke-width:0.633018"
         d="m 3539.3034,2601.4814 c 0,-101.9378 -83.378,-184.5836 -186.2115,-184.5836 -102.8461,0 -186.2178,82.6458 -186.2178,184.5836 0,101.9567 83.3717,184.5961 186.2178,184.5961 102.8335,0 186.2115,-82.6394 186.2115,-184.5961" /><path
         inkscape:connector-curvature="0"
         id="path1711-2-4"
         style="fill:none;stroke:#56ac35;stroke-width:6.33019;stroke-linecap:butt;stroke-linejoin:miter;stroke-miterlimit:10;stroke-dasharray:none;stroke-opacity:1"
         d="m 3338.325,2753.0206 c 41.3011,0 111.2386,-27.2208 136.6702,-103.9106" /><path
         sodipodi:nodetypes="ccccccccccc"
         d="m 3944.1482,2222.1169 c -49.7856,-72.7936 -144.3009,-123.7893 -254.5636,-130.2908 v 198.3402 h -46.9323 c -2.3651,-388.8728 0,-77.1013 0,-400.0218 v -103.7094 h 46.9323 v 103.7488 162.1838 c 123.8879,6.3124 231.1375,61.3587 291.1544,140.9454 l -36.5908,28.8038"
         style="fill:#6a3b18;fill-opacity:1;fill-rule:nonzero;stroke:none;stroke-width:0.888221"
         id="path1709-3"
         inkscape:connector-curvature="0" /><path
         inkscape:connector-curvature="0"
         id="path1703-8-2"
         style="fill:#83bf4c;fill-opacity:1;fill-rule:nonzero;stroke:none;stroke-width:0.476502"
         d="m 4123.4379,2260.4709 c 0,-77.2151 -62.371,-139.817 -139.2957,-139.817 -76.9341,0 -139.3003,62.6019 -139.3003,139.817 0,77.2293 62.3662,139.8263 139.3003,139.8263 76.9247,0 139.2957,-62.597 139.2957,-139.8263" /><path
         inkscape:connector-curvature="0"
         id="path1711-2-3"
         style="fill:none;stroke:#56ac35;stroke-width:5.17587;stroke-linecap:butt;stroke-linejoin:miter;stroke-miterlimit:10;stroke-dasharray:none;stroke-opacity:1"
         d="m 3953.7359,2363.372 c 34.2642,0 92.2858,-21.9359 113.3843,-83.7363" /></g></g></svg>
