<?xml version="1.0" encoding="UTF-8" standalone="no"?>
<svg
   xmlns:dc="http://purl.org/dc/elements/1.1/"
   xmlns:cc="http://creativecommons.org/ns#"
   xmlns:rdf="http://www.w3.org/1999/02/22-rdf-syntax-ns#"
   xmlns:svg="http://www.w3.org/2000/svg"
   xmlns="http://www.w3.org/2000/svg"
   xmlns:sodipodi="http://sodipodi.sourceforge.net/DTD/sodipodi-0.dtd"
   xmlns:inkscape="http://www.inkscape.org/namespaces/inkscape"
   version="1.1"
   id="svg2503"
   xml:space="preserve"
   width="143.01643"
   height="296.70428"
   viewBox="0 0 143.01644 296.70427"
   sodipodi:docname="9.svg"
   inkscape:version="1.0beta2 (2b71d25, 2019-12-03)"><metadata
     id="metadata2509"><rdf:RDF><cc:Work
         rdf:about=""><dc:format>image/svg+xml</dc:format><dc:type
           rdf:resource="http://purl.org/dc/dcmitype/StillImage" /><dc:title></dc:title></cc:Work></rdf:RDF></metadata><defs
     id="defs2507" /><sodipodi:namedview
     inkscape:snap-global="false"
     pagecolor="#ffffff"
     bordercolor="#666666"
     inkscape:document-rotation="0"
     borderopacity="1"
     objecttolerance="10"
     gridtolerance="10"
     guidetolerance="10"
     inkscape:pageopacity="0"
     inkscape:pageshadow="2"
     inkscape:window-width="1375"
     inkscape:window-height="809"
     id="namedview2505"
     showgrid="false"
     inkscape:snap-object-midpoints="true"
     inkscape:zoom="1.4373641"
     inkscape:cx="70.132646"
     inkscape:cy="195.63811"
     inkscape:window-x="66"
     inkscape:window-y="23"
     inkscape:window-maximized="0"
     inkscape:current-layer="g1959" /><g
     id="g2511"
     inkscape:groupmode="layer"
     inkscape:label="ink_ext_XXXXXX"
     transform="matrix(1.3333333,0,0,-1.3333333,-3.0858076,297.2872)"><g
       transform="matrix(0.10565526,0,0,0.09907045,-332.27499,-194.95491)"
       id="g1959"><path
         inkscape:connector-curvature="0"
         id="path1703"
         style="fill:#76cb4c;fill-opacity:1;fill-rule:nonzero;stroke:none;stroke-width:0.54394"
         d="m 3850.2193,3426.2915 c 0,-88.2531 -71.1094,-159.8041 -158.8113,-159.8041 -87.7127,0 -158.8167,71.551 -158.8167,159.8041 0,88.2695 71.104,159.8149 158.8167,159.8149 87.7019,0 158.8113,-71.5454 158.8113,-159.8149" /><path
         inkscape:connector-curvature="0"
         id="path1709"
         style="fill:#6a3b18;fill-opacity:1;fill-rule:nonzero;stroke:none;stroke-width:0.888222"
         d="m 3952.6553,2836.4048 c -49.7855,-72.7936 -144.3008,-123.7893 -254.5635,-130.2908 v 198.3402 h -46.9323 V 2706.114 c -61.048,3.4754 -117.3106,20.537 -163.8525,47.4415 l -35.5695,-27.9999 c 56.0123,-33.8238 124.6788,-55.2828 199.422,-58.9473 V 2504.4324 2400.723 h 46.9323 v 103.7488 162.1838 c 123.8879,6.3124 231.1374,61.3587 291.1543,140.9454 l -36.5908,28.8038" /><path
         inkscape:connector-curvature="0"
         id="path1711"
         style="fill:none;stroke:#56ac35;stroke-width:5.4394;stroke-linecap:butt;stroke-linejoin:miter;stroke-miterlimit:10;stroke-dasharray:none;stroke-opacity:1"
         d="m 3678.8139,3557.4872 c 35.224,0 94.8703,-23.5666 116.5599,-89.961" /><path
         d="m 4024.0848,2800.3878 c 0,-63.5885 -49.1034,-115.1427 -109.6646,-115.1427 -60.5686,0 -109.6683,51.5542 -109.6683,115.1427 0,63.6003 49.0997,115.1504 109.6683,115.1504 60.5612,0 109.6646,-51.5501 109.6646,-115.1504"
         style="fill:#83b04f;fill-opacity:1;fill-rule:nonzero;stroke:none;stroke-width:0.383679"
         id="path1703-8"
         inkscape:connector-curvature="0" /><path
         inkscape:connector-curvature="0"
         id="path1703-8-3"
         style="fill:#83bf4c;fill-opacity:1;fill-rule:nonzero;stroke:none;stroke-width:0.633018"
         d="m 3544.242,2891.1578 c 0,-101.9378 -83.378,-184.5836 -186.2115,-184.5836 -102.8461,0 -186.2178,82.6458 -186.2178,184.5836 0,101.9567 83.3717,184.5961 186.2178,184.5961 102.8335,0 186.2115,-82.6394 186.2115,-184.5961" /><path
         inkscape:connector-curvature="0"
         id="path1711-2-4"
         style="fill:none;stroke:#56ac35;stroke-width:6.33019;stroke-linecap:butt;stroke-linejoin:miter;stroke-miterlimit:10;stroke-dasharray:none;stroke-opacity:1"
         d="m 3343.2636,3042.697 c 41.3011,0 111.2386,-27.2208 136.6702,-103.9106" /><path
         sodipodi:nodetypes="ccccccccccc"
         d="m 2862.596,2353.788 c -49.7856,-72.7936 -144.3009,-123.7893 -254.5636,-130.2908 v 198.3402 h -46.9323 c -2.3651,-388.8728 0,-77.1013 0,-400.0218 v -103.7094 h 46.9323 v 103.7488 162.1838 c 123.8879,6.3124 231.1375,61.3587 291.1544,140.9454 l -36.5908,28.8038"
         style="fill:#6a3b18;fill-opacity:1;fill-rule:nonzero;stroke:none;stroke-width:0.888221"
         id="path1709-3"
         inkscape:connector-curvature="0" /><path
         inkscape:connector-curvature="0"
         id="path1703-8-2"
         style="fill:#83bf4c;fill-opacity:1;fill-rule:nonzero;stroke:none;stroke-width:0.568051"
         d="m 4192.5783,2526.4456 c 0,-93.2123 -73.4274,-168.7837 -163.9883,-168.7837 -90.5721,0 -163.9937,75.5714 -163.9937,168.7837 0,93.2293 73.4216,168.7949 163.9937,168.7949 90.5609,0 163.9883,-75.5656 163.9883,-168.7949" /><path
         inkscape:connector-curvature="0"
         id="path1711-2-3"
         style="fill:none;stroke:#56ac35;stroke-width:6.1703;stroke-linecap:butt;stroke-linejoin:miter;stroke-miterlimit:10;stroke-dasharray:none;stroke-opacity:1"
         d="m 3992.7936,2650.6653 c 40.3381,0 108.6451,-26.4806 133.4837,-101.0844" /><path
         d="m 3952.0887,2400.8315 c -49.7856,-72.7936 -144.3009,-123.7893 -254.5636,-130.2908 v 198.3402 h -46.9323 v -198.3402 c -61.048,3.4754 -117.3106,20.537 -163.8525,47.4415 l -35.5695,-27.9999 c 56.0123,-33.8238 124.6788,-55.2828 199.422,-58.9473 v -162.1759 -103.7094 h 46.9323 v 103.7488 162.1838 c 123.8879,6.3124 231.1375,61.3587 291.1544,140.9454 l -36.5908,28.8038"
         style="fill:#6a3b18;fill-opacity:1;fill-rule:nonzero;stroke:none;stroke-width:0.888221"
         id="path1709-4"
         inkscape:connector-curvature="0" /><path
         d="m 3555.4995,2459.2837 c 0,-101.9378 -83.378,-184.5836 -186.2115,-184.5836 -102.8461,0 -186.2178,82.6458 -186.2178,184.5836 0,101.9567 83.3717,184.5961 186.2178,184.5961 102.8335,0 186.2115,-82.6394 186.2115,-184.5961"
         style="fill:#83bf4c;fill-opacity:1;fill-rule:nonzero;stroke:none;stroke-width:0.633018"
         id="path1703-8-3-4"
         inkscape:connector-curvature="0" /><path
         d="m 3354.5211,2610.8229 c 41.3011,0 111.2386,-27.2208 136.6702,-103.9106"
         style="fill:none;stroke:#56ac35;stroke-width:6.33019;stroke-linecap:butt;stroke-linejoin:miter;stroke-miterlimit:10;stroke-dasharray:none;stroke-opacity:1"
         id="path1711-2-4-0"
         inkscape:connector-curvature="0" /><path
         d="m 4153.0695,3294.0805 c 0,-65.5808 -56.8428,-118.7503 -126.9494,-118.7503 -70.1151,0 -126.9536,53.1695 -126.9536,118.7503 0,65.593 56.8385,118.7583 126.9536,118.7583 70.1066,0 126.9494,-53.1653 126.9494,-118.7583"
         style="fill:#83bf4c;fill-opacity:1;fill-rule:nonzero;stroke:none;stroke-width:0.419227"
         id="path1703-8-3-3"
         inkscape:connector-curvature="0" /><path
         d="m 4016.0528,3391.572 c 28.157,0 75.8367,-17.5123 93.1747,-66.85"
         style="fill:none;stroke:#56ac35;stroke-width:4.19227;stroke-linecap:butt;stroke-linejoin:miter;stroke-miterlimit:10;stroke-dasharray:none;stroke-opacity:1"
         id="path1711-2-4-08"
         inkscape:connector-curvature="0" /><path
         d="m 3952.0886,3206.6584 c -49.7856,-72.7936 -144.3009,-123.7893 -254.5636,-130.2908 v 198.3402 h -46.9323 v -198.3402 c -61.048,3.4754 -117.3106,20.537 -163.8525,47.4415 l -35.5695,-27.9999 c 56.0123,-33.8238 124.6788,-55.2828 199.422,-58.9473 V 2874.686 2770.9766 h 46.9323 v 103.7488 162.1838 c 123.8879,6.3124 231.1375,61.3587 291.1544,140.9454 l -36.5908,28.8038"
         style="fill:#6a3b18;fill-opacity:1;fill-rule:nonzero;stroke:none;stroke-width:0.888221"
         id="path1709-7"
         inkscape:connector-curvature="0" /><path
         inkscape:connector-curvature="0"
         id="path1703-8-3-3-4"
         style="fill:#83bf4c;fill-opacity:1;fill-rule:nonzero;stroke:none;stroke-width:0.346074"
         d="m 3515.9908,3186.1108 c 0,-56.8551 -44.6809,-102.9503 -99.7876,-102.9503 -55.1134,0 -99.7909,46.0952 -99.7909,102.9503 0,56.8657 44.6775,102.9572 99.7909,102.9572 55.1067,0 99.7876,-46.0915 99.7876,-102.9572" /><path
         inkscape:connector-curvature="0"
         id="path1711-2-4-08-0"
         style="fill:none;stroke:#56ac35;stroke-width:3.46074;stroke-linecap:butt;stroke-linejoin:miter;stroke-miterlimit:10;stroke-dasharray:none;stroke-opacity:1"
         d="m 3408.2899,3270.6308 c 22.1325,0 59.6108,-15.1822 73.2392,-57.9554" /></g></g></svg>
