<?xml version="1.0" encoding="UTF-8" standalone="no"?>
<svg
   xmlns:osb="http://www.openswatchbook.org/uri/2009/osb"
   xmlns:dc="http://purl.org/dc/elements/1.1/"
   xmlns:cc="http://creativecommons.org/ns#"
   xmlns:rdf="http://www.w3.org/1999/02/22-rdf-syntax-ns#"
   xmlns:svg="http://www.w3.org/2000/svg"
   xmlns="http://www.w3.org/2000/svg"
   xmlns:sodipodi="http://sodipodi.sourceforge.net/DTD/sodipodi-0.dtd"
   xmlns:inkscape="http://www.inkscape.org/namespaces/inkscape"
   inkscape:version="1.0beta2 (2b71d25, 2019-12-03)"
   sodipodi:docname="13.svg"
   viewBox="0 0 209.35008 276.58379"
   height="276.5838"
   width="209.35007"
   xml:space="preserve"
   id="svg2503"
   version="1.1"><metadata
     id="metadata2509"><rdf:RDF><cc:Work
         rdf:about=""><dc:format>image/svg+xml</dc:format><dc:type
           rdf:resource="http://purl.org/dc/dcmitype/StillImage" /><dc:title></dc:title></cc:Work></rdf:RDF></metadata><defs
     id="defs2507"><linearGradient
       id="linearGradient972"
       osb:paint="solid"><stop
         style="stop-color:#76cb4c;stop-opacity:1;"
         offset="0"
         id="stop970" /></linearGradient><filter
       inkscape:collect="always"
       style="color-interpolation-filters:sRGB"
       id="filter1172" /></defs><sodipodi:namedview
     inkscape:snap-global="false"
     inkscape:current-layer="g1959"
     inkscape:window-maximized="0"
     inkscape:window-y="23"
     inkscape:window-x="0"
     inkscape:cy="121.63536"
     inkscape:cx="94.44739"
     inkscape:zoom="1.8262143"
     inkscape:snap-object-midpoints="true"
     showgrid="false"
     id="namedview2505"
     inkscape:window-height="809"
     inkscape:window-width="1440"
     inkscape:pageshadow="2"
     inkscape:pageopacity="0"
     guidetolerance="10"
     gridtolerance="10"
     objecttolerance="10"
     borderopacity="1"
     inkscape:document-rotation="0"
     bordercolor="#666666"
     pagecolor="#ffffff" /><g
     transform="matrix(1.3333333,0,0,-1.3333333,27.505427,276.12276)"
     inkscape:label="ink_ext_XXXXXX"
     inkscape:groupmode="layer"
     id="g2511"><g
       id="g1959"
       transform="matrix(0.17355782,0,0,0.16853954,-646.39403,-335.71734)"><path
         d="m 4304.4371,2830.6303 c 0,-79.1279 -63.1431,-143.2833 -141.0279,-143.2833 -77.8907,0 -141.0336,64.1554 -141.0336,143.2833 0,79.1457 63.1429,143.3011 141.0336,143.3011 77.8848,0 141.0279,-64.1554 141.0279,-143.3011"
         style="fill:#008200;fill-opacity:1;fill-rule:nonzero;stroke:none;stroke-width:0.590139"
         id="path1701-5-5-6-7"
         inkscape:connector-curvature="0" /><path
         inkscape:connector-curvature="0"
         id="path1701-5-5-6"
         style="fill:#006500;fill-opacity:1;fill-rule:nonzero;stroke:none;stroke-width:0.76459"
         d="m 4151.1768,2589.5399 c 0,-102.6758 -81.6833,-185.9234 -182.4369,-185.9234 -100.7611,0 -182.4443,83.2476 -182.4443,185.9234 0,102.699 81.6832,185.9466 182.4443,185.9466 100.7536,0 182.4369,-83.2476 182.4369,-185.9466" /><path
         d="m 4281.2417,2998.1404 c 0,-125.5645 -98.007,-227.3698 -218.8957,-227.3698 -120.8981,0 -218.905,101.8053 -218.905,227.3698 0,125.5929 98.0069,227.3982 218.905,227.3982 120.8887,0 218.8957,-101.8053 218.8957,-227.3982"
         style="fill:#56c935;fill-opacity:1;fill-rule:nonzero;stroke:none;stroke-width:0.926175"
         id="path1701"
         inkscape:connector-curvature="0" /><rect
         style="fill:#6a3b18;fill-opacity:1;stroke-width:10.6284;stop-color:#000000"
         id="rect347"
         width="48.187813"
         height="790.92035"
         x="4032.52"
         y="-2780.7891"
         transform="scale(1,-1)" /><rect
         transform="scale(1,-1)"
         style="fill:#6a3b18;fill-opacity:1;stroke:none;stroke-width:5.48298;stroke-opacity:1;stop-color:#000000"
         id="rect846-6-0"
         width="112.05862"
         height="41.260471"
         x="4059.3621"
         y="-2370.28" /><rect
         y="-2061.3269"
         x="4056.6143"
         height="43.697208"
         width="253.66734"
         id="rect846-6"
         style="fill:#6a3b18;fill-opacity:1;stroke:none;stroke-width:8.48956;stroke-opacity:1;stop-color:#000000"
         transform="scale(1,-1)" /><rect
         transform="scale(1,-1)"
         y="-2588.418"
         x="3953.7249"
         height="21.820274"
         width="85.764732"
         id="rect846-69"
         style="fill:#6a3b18;fill-opacity:1;stroke:none;stroke-width:3.48827;stroke-opacity:1;stop-color:#000000" /><rect
         y="-2124.1445"
         x="4274.0659"
         height="107.46623"
         width="37.191734"
         id="rect848-9"
         style="fill:#6a3b18;fill-opacity:1;stroke:none;stroke-width:7.24043;stroke-opacity:1;stop-color:#000000"
         transform="scale(1,-1)" /><rect
         transform="scale(1,-1)"
         style="fill:#6a3b18;fill-opacity:1;stroke:none;stroke-width:5.02872;stroke-opacity:1;stop-color:#000000"
         id="rect848-9-0"
         width="26.28418"
         height="73.35199"
         x="4146.978"
         y="-2422.2505" /><path
         inkscape:connector-curvature="0"
         id="path1701-5-5-0"
         style="fill:#009400;fill-opacity:1;fill-rule:nonzero;stroke:none;stroke-width:0.701723"
         d="m 4408.4695,2489.7529 c 0,-93.6621 -75.4239,-169.6018 -168.4569,-169.6018 -93.04,0 -168.4638,75.9397 -168.4638,169.6018 0,93.6835 75.4238,169.6231 168.4638,169.6231 93.033,0 168.4569,-75.9396 168.4569,-169.6231" /><path
         d="m 4510.1829,2292.4543 c 0,-118.8229 -94.9263,-215.1623 -212.0147,-215.1623 -117.0972,0 -212.0234,96.3394 -212.0234,215.1623 0,118.8499 94.9262,215.1893 212.0234,215.1893 117.0884,0 212.0147,-96.3394 212.0147,-215.1893"
         style="fill:#006500;fill-opacity:1;fill-rule:nonzero;stroke:none;stroke-width:0.886689"
         id="path1701-5-5"
         inkscape:connector-curvature="0" /><rect
         transform="scale(-1)"
         style="fill:#6a3b18;fill-opacity:1;stroke:none;stroke-width:2.50196;stroke-opacity:1;stop-color:#000000"
         id="rect846-69-5"
         width="19.413248"
         height="49.591984"
         x="-3973.707"
         y="-2621.9312" /><path
         d="m 4019.7889,2670.5392 c 0,-34.6105 -26.0759,-62.6721 -58.2397,-62.6721 -32.1663,0 -58.2422,28.0616 -58.2422,62.6721 0,34.6184 26.0759,62.68 58.2422,62.68 32.1638,0 58.2397,-28.0616 58.2397,-62.68"
         style="fill:#00b300;fill-opacity:1;fill-rule:nonzero;stroke:none;stroke-width:0.250816"
         id="path1701-5-0"
         inkscape:connector-curvature="0" /><rect
         y="-2088.4165"
         x="3786.6309"
         height="41.260471"
         width="251.29691"
         id="rect846-9"
         style="fill:#6a3b18;fill-opacity:1;stroke:none;stroke-width:8.21082;stroke-opacity:1;stop-color:#000000"
         transform="scale(1,-1)" /><rect
         y="-2180.1064"
         x="3786.6309"
         height="132.95045"
         width="26.28418"
         id="rect848-3"
         style="fill:#6a3b18;fill-opacity:1;stroke:none;stroke-width:6.77016;stroke-opacity:1;stop-color:#000000"
         transform="scale(1,-1)" /><path
         inkscape:connector-curvature="0"
         id="path1701-5"
         style="fill:#006f00;fill-opacity:1;fill-rule:nonzero;stroke:none;stroke-width:0.839517"
         d="m 4012.7819,2304.3669 c 0,-111.7252 -90.4994,-202.31 -202.1276,-202.31 -111.6367,0 -202.1361,90.5848 -202.1361,202.31 0,111.7507 90.4994,202.3356 202.1361,202.3356 111.6282,0 202.1276,-90.5849 202.1276,-202.3356" /><rect
         style="fill:#6a3b18;fill-opacity:1;stroke:none;stroke-width:6.37386;stroke-opacity:1;stop-color:#000000"
         id="rect846"
         width="189.67244"
         height="32.941978"
         x="3845.8892"
         y="-2322.7012"
         transform="scale(1,-1)" /><rect
         style="fill:#6a3b18;fill-opacity:1;stroke:none;stroke-width:5.00371;stroke-opacity:1;stop-color:#000000"
         id="rect848"
         width="17.983194"
         height="106.14641"
         x="3845.8892"
         y="-2395.9058"
         transform="scale(1,-1)" /><path
         d="m 4001.1357,2526.1873 c 0,-81.5518 -63.77,-147.6726 -142.4284,-147.6726 -78.6642,0 -142.4342,66.1208 -142.4342,147.6726 0,81.5704 63.77,147.6911 142.4342,147.6911 78.6584,0 142.4284,-66.1207 142.4284,-147.6911"
         style="fill:#009100;fill-opacity:1;fill-rule:nonzero;stroke:none;stroke-width:0.602082"
         id="path1701-5-5-0-4"
         inkscape:connector-curvature="0" /><rect
         transform="scale(1,-1)"
         style="fill:#6a3b18;fill-opacity:1;stroke:none;stroke-width:7.55184;stroke-opacity:1;stop-color:#000000"
         id="rect846-69-6"
         width="301.09583"
         height="29.13047"
         x="4070.9651"
         y="-2562.1753" /><rect
         y="-2595.8713"
         x="-4370.4546"
         height="49.59222"
         width="24.1458"
         id="rect846-69-5-6"
         style="fill:#6a3b18;fill-opacity:1;stroke:none;stroke-width:2.79032;stroke-opacity:1;stop-color:#000000"
         transform="scale(-1)" /><path
         inkscape:connector-curvature="0"
         id="path1701-5-0-5"
         style="fill:#00b300;fill-opacity:1;fill-rule:nonzero;stroke:none;stroke-width:0.360406"
         d="m 4446.6058,2672.3175 c 0,-47.3937 -39.3189,-85.8196 -87.8175,-85.8196 -48.5024,0 -87.8213,38.4259 -87.8213,85.8196 0,47.4044 39.3189,85.8304 87.8213,85.8304 48.4986,0 87.8175,-38.426 87.8175,-85.8304" /><rect
         transform="scale(1,-1)"
         y="-2665.2556"
         x="4061.7307"
         height="24.99485"
         width="209.0773"
         id="rect846-69-6-7"
         style="fill:#6a3b18;fill-opacity:1;stroke:none;stroke-width:5.82913;stroke-opacity:1;stop-color:#000000" /><rect
         transform="scale(-1)"
         style="fill:#6a3b18;fill-opacity:1;stroke:none;stroke-width:2.28062;stroke-opacity:1;stop-color:#000000"
         id="rect846-69-5-6-6"
         width="18.798904"
         height="42.55167"
         x="-4271.8384"
         y="-2686.5317" /><path
         d="m 4351.3631,2767.9023 c 0,-49.7797 -38.0747,-90.1401 -85.0385,-90.1401 -46.9674,0 -85.0421,40.3604 -85.0421,90.1401 0,49.7911 38.0747,90.1516 85.0421,90.1516 46.9638,0 85.0385,-40.3605 85.0385,-90.1516"
         style="fill:#00cd00;fill-opacity:1;fill-rule:nonzero;stroke:none;stroke-width:0.363474"
         id="path1701-5-0-5-3"
         inkscape:connector-curvature="0" /><rect
         transform="scale(1,-1)"
         style="fill:#6a3b18;fill-opacity:1;stroke:none;stroke-width:5.57677;stroke-opacity:1;stop-color:#000000"
         id="rect846-69-8"
         width="140.90323"
         height="33.946346"
         x="3904.2063"
         y="-2440.281" /><rect
         y="-2492.4185"
         x="-3937.0349"
         height="77.151474"
         width="31.894104"
         id="rect846-69-5-9"
         style="fill:#6a3b18;fill-opacity:1;stroke:none;stroke-width:3.99993;stroke-opacity:1;stop-color:#000000"
         transform="scale(-1)" /><path
         inkscape:connector-curvature="0"
         id="path1701-5-0-1"
         style="fill:#00c900;fill-opacity:1;fill-rule:nonzero;stroke:none;stroke-width:0.400985"
         d="m 4012.7434,2568.0393 c 0,-53.8444 -42.8402,-97.5006 -95.6823,-97.5006 -52.8461,0 -95.6863,43.6562 -95.6863,97.5006 0,53.8567 42.8402,97.5128 95.6863,97.5128 52.8421,0 95.6823,-43.6561 95.6823,-97.5128" /></g></g></svg>
