<?xml version="1.0" encoding="UTF-8" standalone="no"?>
<svg
   xmlns:osb="http://www.openswatchbook.org/uri/2009/osb"
   xmlns:dc="http://purl.org/dc/elements/1.1/"
   xmlns:cc="http://creativecommons.org/ns#"
   xmlns:rdf="http://www.w3.org/1999/02/22-rdf-syntax-ns#"
   xmlns:svg="http://www.w3.org/2000/svg"
   xmlns="http://www.w3.org/2000/svg"
   xmlns:sodipodi="http://sodipodi.sourceforge.net/DTD/sodipodi-0.dtd"
   xmlns:inkscape="http://www.inkscape.org/namespaces/inkscape"
   version="1.1"
   id="svg2503"
   xml:space="preserve"
   width="143.01643"
   height="296.70428"
   viewBox="0 0 143.01644 296.70427"
   sodipodi:docname="4.svg"
   inkscape:version="1.0beta2 (2b71d25, 2019-12-03)"><metadata
     id="metadata2509"><rdf:RDF><cc:Work
         rdf:about=""><dc:format>image/svg+xml</dc:format><dc:type
           rdf:resource="http://purl.org/dc/dcmitype/StillImage" /><dc:title></dc:title></cc:Work></rdf:RDF></metadata><defs
     id="defs2507"><linearGradient
       osb:paint="solid"
       id="linearGradient972"><stop
         id="stop970"
         offset="0"
         style="stop-color:#76cb4c;stop-opacity:1;" /></linearGradient><filter
       id="filter1172"
       style="color-interpolation-filters:sRGB"
       inkscape:collect="always" /></defs><sodipodi:namedview
     pagecolor="#ffffff"
     bordercolor="#666666"
     inkscape:document-rotation="0"
     borderopacity="1"
     objecttolerance="10"
     gridtolerance="10"
     guidetolerance="10"
     inkscape:pageopacity="0"
     inkscape:pageshadow="2"
     inkscape:window-width="1712"
     inkscape:window-height="1042"
     id="namedview2505"
     showgrid="false"
     inkscape:snap-object-midpoints="true"
     inkscape:zoom="1.1330312"
     inkscape:cx="-82.077454"
     inkscape:cy="165.05387"
     inkscape:window-x="687"
     inkscape:window-y="329"
     inkscape:window-maximized="0"
     inkscape:current-layer="g1959" /><g
     id="g2511"
     inkscape:groupmode="layer"
     inkscape:label="ink_ext_XXXXXX"
     transform="matrix(1.3333333,0,0,-1.3333333,-3.0858076,297.2872)"><g
       transform="matrix(0.17355782,0,0,0.16853954,-646.39403,-335.71734)"
       id="g1959"><path
         inkscape:connector-curvature="0"
         id="path1701"
         style="fill:#56ac35;fill-opacity:1;fill-rule:nonzero;stroke:none;stroke-width:0.791232"
         d="m 4242.2755,2489.1145 c 0,-106.994 -83.9437,-193.7427 -187.4857,-193.7427 -103.55,0 -187.4937,86.7487 -187.4937,193.7427 0,107.0182 83.9437,193.7669 187.4937,193.7669 103.542,0 187.4857,-86.7487 187.4857,-193.7669" /><path
         sodipodi:nodetypes="cc"
         inkscape:connector-curvature="0"
         id="path1707"
         style="fill:none;stroke:#6a3b18;stroke-width:17.4465;stroke-linecap:round;stroke-linejoin:miter;stroke-miterlimit:10;stroke-dasharray:none;stroke-opacity:1"
         d="m 3773.8157,2023.4519 c 378.647,8.8418 375.3836,0.456 547.9134,0" /><rect
         transform="scale(1,-1)"
         y="-2300.394"
         x="4039.1299"
         height="274.9259"
         width="41.953472"
         id="rect347"
         style="fill:#6a3b18;fill-opacity:1;stroke-width:5.8469;stop-color:#000000" /><rect
         transform="scale(1,-1)"
         y="-2223.7915"
         x="3895.094"
         height="35.347614"
         width="148.74413"
         id="rect846"
         style="fill:#6a3b18;fill-opacity:1;stroke:none;stroke-width:5.8469;stroke-opacity:1;stop-color:#000000" /><rect
         transform="scale(1,-1)"
         y="-2302.3418"
         x="3880.853"
         height="113.8979"
         width="22.883642"
         id="rect848"
         style="fill:#6a3b18;fill-opacity:1;stroke:none;stroke-width:5.8469;stroke-opacity:1;stop-color:#000000" /><path
         d="m 4007.3193,2368.8381 c 0,-65.6406 -51.4993,-118.8608 -115.0222,-118.8608 -63.5277,0 -115.027,53.2202 -115.027,118.8608 0,65.6555 51.4993,118.8757 115.027,118.8757 63.5229,0 115.0222,-53.2202 115.0222,-118.8757"
         style="fill:#008000;fill-opacity:1;fill-rule:nonzero;stroke:none;stroke-width:0.48542"
         id="path1701-5"
         inkscape:connector-curvature="0" /><rect
         transform="scale(1,-1)"
         style="fill:#6a3b18;fill-opacity:1;stroke:none;stroke-width:5.8469;stroke-opacity:1;stop-color:#000000"
         id="rect846-6"
         width="148.74413"
         height="35.347614"
         x="4060.1069"
         y="-2162.9312" /><path
         inkscape:connector-curvature="0"
         id="path1701-5-5"
         style="fill:#008000;fill-opacity:1;fill-rule:nonzero;stroke:none;stroke-width:0.485418"
         d="m 4316.2493,2321.9718 c 0,-65.6406 -51.4993,-118.8608 -115.0222,-118.8608 -63.5277,0 -115.027,53.2202 -115.027,118.8608 0,65.6555 51.4993,118.8757 115.027,118.8757 63.5229,0 115.0222,-53.2202 115.0222,-118.8757" /><rect
         transform="scale(1,-1)"
         style="fill:#6a3b18;fill-opacity:1;stroke:none;stroke-width:4.34297;stroke-opacity:1;stop-color:#000000"
         id="rect848-9"
         width="22.883642"
         height="62.840237"
         x="4185.9673"
         y="-2207.9717" /></g></g></svg>
