<?xml version="1.0" encoding="UTF-8" standalone="no"?>
<svg
   xmlns:osb="http://www.openswatchbook.org/uri/2009/osb"
   xmlns:dc="http://purl.org/dc/elements/1.1/"
   xmlns:cc="http://creativecommons.org/ns#"
   xmlns:rdf="http://www.w3.org/1999/02/22-rdf-syntax-ns#"
   xmlns:svg="http://www.w3.org/2000/svg"
   xmlns="http://www.w3.org/2000/svg"
   xmlns:sodipodi="http://sodipodi.sourceforge.net/DTD/sodipodi-0.dtd"
   xmlns:inkscape="http://www.inkscape.org/namespaces/inkscape"
   inkscape:version="1.0beta2 (2b71d25, 2019-12-03)"
   sodipodi:docname="6.svg"
   viewBox="0 0 143.01644 296.70427"
   height="296.70428"
   width="143.01643"
   xml:space="preserve"
   id="svg2503"
   version="1.1"><metadata
     id="metadata2509"><rdf:RDF><cc:Work
         rdf:about=""><dc:format>image/svg+xml</dc:format><dc:type
           rdf:resource="http://purl.org/dc/dcmitype/StillImage" /><dc:title></dc:title></cc:Work></rdf:RDF></metadata><defs
     id="defs2507"><linearGradient
       id="linearGradient972"
       osb:paint="solid"><stop
         style="stop-color:#76cb4c;stop-opacity:1;"
         offset="0"
         id="stop970" /></linearGradient><filter
       inkscape:collect="always"
       style="color-interpolation-filters:sRGB"
       id="filter1172" /></defs><sodipodi:namedview
     inkscape:current-layer="g1959"
     inkscape:window-maximized="0"
     inkscape:window-y="23"
     inkscape:window-x="0"
     inkscape:cy="153.87105"
     inkscape:cx="38.799114"
     inkscape:zoom="3.2046962"
     inkscape:snap-object-midpoints="true"
     showgrid="false"
     id="namedview2505"
     inkscape:window-height="809"
     inkscape:window-width="1440"
     inkscape:pageshadow="2"
     inkscape:pageopacity="0"
     guidetolerance="10"
     gridtolerance="10"
     objecttolerance="10"
     borderopacity="1"
     inkscape:document-rotation="0"
     bordercolor="#666666"
     pagecolor="#ffffff" /><g
     transform="matrix(1.3333333,0,0,-1.3333333,-3.0858076,297.2872)"
     inkscape:label="ink_ext_XXXXXX"
     inkscape:groupmode="layer"
     id="g2511"><g
       id="g1959"
       transform="matrix(0.17355782,0,0,0.16853954,-646.39403,-335.71734)"><path
         d="m 4278.8753,2928.6936 c 0,-124.8917 -96.4178,-226.1515 -215.3463,-226.1515 -118.9377,0 -215.3555,101.2598 -215.3555,226.1515 0,124.92 96.4178,226.1798 215.3555,226.1798 118.9285,0 215.3463,-101.2598 215.3463,-226.1798"
         style="fill:#56c935;fill-opacity:1;fill-rule:nonzero;stroke:none;stroke-width:0.916169"
         id="path1701"
         inkscape:connector-curvature="0" /><rect
         style="fill:#6a3b18;fill-opacity:1;stroke-width:10.1425;stop-color:#000000"
         id="rect347"
         width="48.187813"
         height="720.25513"
         x="4032.52"
         y="-2710.1238"
         transform="scale(1,-1)" /><rect
         style="fill:#6a3b18;fill-opacity:1;stroke:none;stroke-width:6.57778;stroke-opacity:1;stop-color:#000000"
         id="rect846"
         width="161.27713"
         height="41.260475"
         x="3876.6506"
         y="-2221.3669"
         transform="scale(1,-1)" /><rect
         style="fill:#6a3b18;fill-opacity:1;stroke:none;stroke-width:6.77014;stroke-opacity:1;stop-color:#000000"
         id="rect848"
         width="26.28418"
         height="132.95045"
         x="3876.6506"
         y="-2313.0569"
         transform="scale(1,-1)" /><path
         inkscape:connector-curvature="0"
         id="path1701-5"
         style="fill:#008000;fill-opacity:1;fill-rule:nonzero;stroke:none;stroke-width:0.682577"
         d="m 4061.8347,2420.1306 c 0,-92.887 -71.9592,-168.198 -160.7187,-168.198 -88.7662,0 -160.7254,75.311 -160.7254,168.198 0,92.9081 71.9592,168.2191 160.7254,168.2191 88.7595,0 160.7187,-75.311 160.7187,-168.2191" /><rect
         transform="scale(1,-1)"
         style="fill:#6a3b18;fill-opacity:1;stroke:none;stroke-width:5.48298;stroke-opacity:1;stop-color:#000000"
         id="rect846-6-0"
         width="112.05862"
         height="41.260471"
         x="4059.3621"
         y="-2370.28" /><rect
         y="-2096.9265"
         x="4056.6143"
         height="41.260475"
         width="170.84769"
         id="rect846-6"
         style="fill:#6a3b18;fill-opacity:1;stroke:none;stroke-width:6.77014;stroke-opacity:1;stop-color:#000000"
         transform="scale(1,-1)" /><rect
         transform="scale(1,-1)"
         y="-2588.418"
         x="3953.7249"
         height="21.820274"
         width="85.764732"
         id="rect846-69"
         style="fill:#6a3b18;fill-opacity:1;stroke:none;stroke-width:3.48827;stroke-opacity:1;stop-color:#000000" /><rect
         y="-2131.7017"
         x="4201.1777"
         height="73.35199"
         width="26.28418"
         id="rect848-9"
         style="fill:#6a3b18;fill-opacity:1;stroke:none;stroke-width:5.02873;stroke-opacity:1;stop-color:#000000"
         transform="scale(1,-1)" /><rect
         transform="scale(1,-1)"
         style="fill:#6a3b18;fill-opacity:1;stroke:none;stroke-width:5.02872;stroke-opacity:1;stop-color:#000000"
         id="rect848-9-0"
         width="26.28418"
         height="73.35199"
         x="4146.978"
         y="-2422.2505" /><path
         inkscape:connector-curvature="0"
         id="path1701-5-5-0"
         style="fill:#009f00;fill-opacity:1;fill-rule:nonzero;stroke:none;stroke-width:0.509787"
         d="m 4285.4231,2544.5821 c 0,-70.1143 -53.1756,-126.9617 -118.7661,-126.9617 -65.5954,0 -118.771,56.8474 -118.771,126.9617 0,70.1302 53.1756,126.9776 118.771,126.9776 65.5905,0 118.7661,-56.8474 118.7661,-126.9776" /><path
         d="m 4342.1774,2266.8733 c 0,-77.7823 -61.0241,-140.8467 -136.2954,-140.8467 -75.277,0 -136.301,63.0644 -136.301,140.8467 0,77.7999 61.024,140.8643 136.301,140.8643 75.2713,0 136.2954,-63.0644 136.2954,-140.8643"
         style="fill:#008000;fill-opacity:1;fill-rule:nonzero;stroke:none;stroke-width:0.5752"
         id="path1701-5-5"
         inkscape:connector-curvature="0" /><rect
         transform="scale(-1)"
         style="fill:#6a3b18;fill-opacity:1;stroke:none;stroke-width:2.50196;stroke-opacity:1;stop-color:#000000"
         id="rect846-69-5"
         width="19.413248"
         height="49.591984"
         x="-3973.707"
         y="-2621.9312" /><path
         d="m 4019.7889,2670.5392 c 0,-34.6105 -26.0759,-62.6721 -58.2397,-62.6721 -32.1663,0 -58.2422,28.0616 -58.2422,62.6721 0,34.6184 26.0759,62.68 58.2422,62.68 32.1638,0 58.2397,-28.0616 58.2397,-62.68"
         style="fill:#00b300;fill-opacity:1;fill-rule:nonzero;stroke:none;stroke-width:0.250816"
         id="path1701-5-0"
         inkscape:connector-curvature="0" /></g></g></svg>
