<?xml version="1.0" encoding="UTF-8" standalone="no"?>
<svg
   xmlns:osb="http://www.openswatchbook.org/uri/2009/osb"
   xmlns:dc="http://purl.org/dc/elements/1.1/"
   xmlns:cc="http://creativecommons.org/ns#"
   xmlns:rdf="http://www.w3.org/1999/02/22-rdf-syntax-ns#"
   xmlns:svg="http://www.w3.org/2000/svg"
   xmlns="http://www.w3.org/2000/svg"
   xmlns:sodipodi="http://sodipodi.sourceforge.net/DTD/sodipodi-0.dtd"
   xmlns:inkscape="http://www.inkscape.org/namespaces/inkscape"
   version="1.1"
   id="svg2503"
   xml:space="preserve"
   width="209.35007"
   height="276.5838"
   viewBox="0 0 209.35008 276.58379"
   sodipodi:docname="8.svg"
   inkscape:version="1.0beta2 (2b71d25, 2019-12-03)"><metadata
     id="metadata2509"><rdf:RDF><cc:Work
         rdf:about=""><dc:format>image/svg+xml</dc:format><dc:type
           rdf:resource="http://purl.org/dc/dcmitype/StillImage" /><dc:title></dc:title></cc:Work></rdf:RDF></metadata><defs
     id="defs2507"><linearGradient
       osb:paint="solid"
       id="linearGradient972"><stop
         id="stop970"
         offset="0"
         style="stop-color:#76cb4c;stop-opacity:1;" /></linearGradient><filter
       id="filter1172"
       style="color-interpolation-filters:sRGB"
       inkscape:collect="always" /></defs><sodipodi:namedview
     pagecolor="#ffffff"
     bordercolor="#666666"
     inkscape:document-rotation="0"
     borderopacity="1"
     objecttolerance="10"
     gridtolerance="10"
     guidetolerance="10"
     inkscape:pageopacity="0"
     inkscape:pageshadow="2"
     inkscape:window-width="1440"
     inkscape:window-height="809"
     id="namedview2505"
     showgrid="false"
     inkscape:snap-object-midpoints="true"
     inkscape:zoom="1.8262143"
     inkscape:cx="58.033263"
     inkscape:cy="156.13295"
     inkscape:window-x="0"
     inkscape:window-y="23"
     inkscape:window-maximized="0"
     inkscape:current-layer="g1959" /><g
     id="g2511"
     inkscape:groupmode="layer"
     inkscape:label="ink_ext_XXXXXX"
     transform="matrix(1.3333333,0,0,-1.3333333,27.505427,276.12276)"><g
       transform="matrix(0.17355782,0,0,0.16853954,-646.39403,-335.71734)"
       id="g1959"><path
         inkscape:connector-curvature="0"
         id="path1701"
         style="fill:#56c935;fill-opacity:1;fill-rule:nonzero;stroke:none;stroke-width:1.02546"
         d="m 4295.4393,2962.8058 c 0,-142.3844 -105.9528,-257.827 -236.6424,-257.827 -130.6997,0 -236.6524,115.4426 -236.6524,257.827 0,142.4167 105.9527,257.8593 236.6524,257.8593 130.6896,0 236.6424,-115.4426 236.6424,-257.8593" /><rect
         transform="scale(1,-1)"
         y="-2710.1238"
         x="4032.52"
         height="720.25513"
         width="48.187813"
         id="rect347"
         style="fill:#6a3b18;fill-opacity:1;stroke-width:10.1425;stop-color:#000000" /><rect
         y="-2370.28"
         x="4059.3621"
         height="41.260471"
         width="112.05862"
         id="rect846-6-0"
         style="fill:#6a3b18;fill-opacity:1;stroke:none;stroke-width:5.48298;stroke-opacity:1;stop-color:#000000"
         transform="scale(1,-1)" /><rect
         transform="scale(1,-1)"
         style="fill:#6a3b18;fill-opacity:1;stroke:none;stroke-width:8.48956;stroke-opacity:1;stop-color:#000000"
         id="rect846-6"
         width="253.66734"
         height="43.697208"
         x="4056.6143"
         y="-2105.8264" /><rect
         style="fill:#6a3b18;fill-opacity:1;stroke:none;stroke-width:3.48827;stroke-opacity:1;stop-color:#000000"
         id="rect846-69"
         width="85.764732"
         height="21.820274"
         x="3953.7249"
         y="-2588.418"
         transform="scale(1,-1)" /><rect
         transform="scale(1,-1)"
         style="fill:#6a3b18;fill-opacity:1;stroke:none;stroke-width:5.98183;stroke-opacity:1;stop-color:#000000"
         id="rect848-9"
         width="37.191734"
         height="73.35199"
         x="4291.3511"
         y="-2133.0444" /><rect
         y="-2422.2505"
         x="4146.978"
         height="73.35199"
         width="26.28418"
         id="rect848-9-0"
         style="fill:#6a3b18;fill-opacity:1;stroke:none;stroke-width:5.02872;stroke-opacity:1;stop-color:#000000"
         transform="scale(1,-1)" /><path
         d="m 4332.7486,2565.293 c 0,-81.5518 -63.77,-147.6726 -142.4284,-147.6726 -78.6642,0 -142.4342,66.1208 -142.4342,147.6726 0,81.5704 63.77,147.6911 142.4342,147.6911 78.6584,0 142.4284,-66.1207 142.4284,-147.6911"
         style="fill:#009f00;fill-opacity:1;fill-rule:nonzero;stroke:none;stroke-width:0.60208"
         id="path1701-5-5-0"
         inkscape:connector-curvature="0" /><path
         inkscape:connector-curvature="0"
         id="path1701-5-5"
         style="fill:#008000;fill-opacity:1;fill-rule:nonzero;stroke:none;stroke-width:0.784536"
         d="m 4510.1829,2315.6047 c 0,-106.0397 -83.2724,-192.0148 -185.9862,-192.0148 -102.7215,0 -185.9938,85.9751 -185.9938,192.0148 0,106.0638 83.2723,192.0389 185.9938,192.0389 102.7138,0 185.9862,-85.9751 185.9862,-192.0389" /><rect
         y="-2621.9312"
         x="-3973.707"
         height="49.591984"
         width="19.413248"
         id="rect846-69-5"
         style="fill:#6a3b18;fill-opacity:1;stroke:none;stroke-width:2.50196;stroke-opacity:1;stop-color:#000000"
         transform="scale(-1)" /><path
         inkscape:connector-curvature="0"
         id="path1701-5-0"
         style="fill:#00b300;fill-opacity:1;fill-rule:nonzero;stroke:none;stroke-width:0.250816"
         d="m 4019.7889,2670.5392 c 0,-34.6105 -26.0759,-62.6721 -58.2397,-62.6721 -32.1663,0 -58.2422,28.0616 -58.2422,62.6721 0,34.6184 26.0759,62.68 58.2422,62.68 32.1638,0 58.2397,-28.0616 58.2397,-62.68" /><rect
         transform="scale(1,-1)"
         style="fill:#6a3b18;fill-opacity:1;stroke:none;stroke-width:8.624;stroke-opacity:1;stop-color:#000000"
         id="rect846-9"
         width="277.22464"
         height="41.260471"
         x="3760.7031"
         y="-2088.4165" /><rect
         transform="scale(1,-1)"
         style="fill:#6a3b18;fill-opacity:1;stroke:none;stroke-width:6.77016;stroke-opacity:1;stop-color:#000000"
         id="rect848-3"
         width="26.28418"
         height="132.95045"
         x="3760.7031"
         y="-2180.1064" /><path
         d="m 3960.7238,2326.2989 c 0,-99.6149 -78.8455,-180.3808 -176.0991,-180.3808 -97.2609,0 -176.1065,80.7659 -176.1065,180.3808 0,99.6376 78.8456,180.4036 176.1065,180.4036 97.2536,0 176.0991,-80.766 176.0991,-180.4036"
         style="fill:#008000;fill-opacity:1;fill-rule:nonzero;stroke:none;stroke-width:0.739915"
         id="path1701-5"
         inkscape:connector-curvature="0" /><rect
         transform="scale(1,-1)"
         y="-2322.7012"
         x="3845.8892"
         height="32.941978"
         width="189.67244"
         id="rect846"
         style="fill:#6a3b18;fill-opacity:1;stroke:none;stroke-width:6.37386;stroke-opacity:1;stop-color:#000000" /><rect
         transform="scale(1,-1)"
         y="-2395.9058"
         x="3845.8892"
         height="106.14641"
         width="17.983194"
         id="rect848"
         style="fill:#6a3b18;fill-opacity:1;stroke:none;stroke-width:5.00371;stroke-opacity:1;stop-color:#000000" /><path
         inkscape:connector-curvature="0"
         id="path1701-5-5-0-4"
         style="fill:#009f00;fill-opacity:1;fill-rule:nonzero;stroke:none;stroke-width:0.602082"
         d="m 4001.1357,2526.1873 c 0,-81.5518 -63.77,-147.6726 -142.4284,-147.6726 -78.6642,0 -142.4342,66.1208 -142.4342,147.6726 0,81.5704 63.77,147.6911 142.4342,147.6911 78.6584,0 142.4284,-66.1207 142.4284,-147.6911" /></g></g></svg>
