<?xml version="1.0" encoding="UTF-8" standalone="no"?>
<svg
   xmlns:osb="http://www.openswatchbook.org/uri/2009/osb"
   xmlns:dc="http://purl.org/dc/elements/1.1/"
   xmlns:cc="http://creativecommons.org/ns#"
   xmlns:rdf="http://www.w3.org/1999/02/22-rdf-syntax-ns#"
   xmlns:svg="http://www.w3.org/2000/svg"
   xmlns="http://www.w3.org/2000/svg"
   xmlns:sodipodi="http://sodipodi.sourceforge.net/DTD/sodipodi-0.dtd"
   xmlns:inkscape="http://www.inkscape.org/namespaces/inkscape"
   inkscape:version="1.0beta2 (2b71d25, 2019-12-03)"
   sodipodi:docname="7.svg"
   viewBox="0 0 209.35008 276.58379"
   height="276.5838"
   width="209.35007"
   xml:space="preserve"
   id="svg2503"
   version="1.1"><metadata
     id="metadata2509"><rdf:RDF><cc:Work
         rdf:about=""><dc:format>image/svg+xml</dc:format><dc:type
           rdf:resource="http://purl.org/dc/dcmitype/StillImage" /><dc:title></dc:title></cc:Work></rdf:RDF></metadata><defs
     id="defs2507"><linearGradient
       id="linearGradient972"
       osb:paint="solid"><stop
         style="stop-color:#76cb4c;stop-opacity:1;"
         offset="0"
         id="stop970" /></linearGradient><filter
       inkscape:collect="always"
       style="color-interpolation-filters:sRGB"
       id="filter1172" /></defs><sodipodi:namedview
     inkscape:current-layer="g1959"
     inkscape:window-maximized="0"
     inkscape:window-y="23"
     inkscape:window-x="0"
     inkscape:cy="156.13295"
     inkscape:cx="65.151814"
     inkscape:zoom="1.8262143"
     inkscape:snap-object-midpoints="true"
     showgrid="false"
     id="namedview2505"
     inkscape:window-height="809"
     inkscape:window-width="1440"
     inkscape:pageshadow="2"
     inkscape:pageopacity="0"
     guidetolerance="10"
     gridtolerance="10"
     objecttolerance="10"
     borderopacity="1"
     inkscape:document-rotation="0"
     bordercolor="#666666"
     pagecolor="#ffffff" /><g
     transform="matrix(1.3333333,0,0,-1.3333333,27.505427,276.12276)"
     inkscape:label="ink_ext_XXXXXX"
     inkscape:groupmode="layer"
     id="g2511"><g
       id="g1959"
       transform="matrix(0.17355782,0,0,0.16853954,-646.39403,-335.71734)"><path
         d="m 4295.4393,2962.8058 c 0,-142.3844 -105.9528,-257.827 -236.6424,-257.827 -130.6997,0 -236.6524,115.4426 -236.6524,257.827 0,142.4167 105.9527,257.8593 236.6524,257.8593 130.6896,0 236.6424,-115.4426 236.6424,-257.8593"
         style="fill:#56c935;fill-opacity:1;fill-rule:nonzero;stroke:none;stroke-width:1.02546"
         id="path1701"
         inkscape:connector-curvature="0" /><rect
         style="fill:#6a3b18;fill-opacity:1;stroke-width:10.1425;stop-color:#000000"
         id="rect347"
         width="48.187813"
         height="720.25513"
         x="4032.52"
         y="-2710.1238"
         transform="scale(1,-1)" /><rect
         style="fill:#6a3b18;fill-opacity:1;stroke:none;stroke-width:8.624;stroke-opacity:1;stop-color:#000000"
         id="rect846"
         width="277.22464"
         height="41.260475"
         x="3760.7031"
         y="-2221.3669"
         transform="scale(1,-1)" /><rect
         style="fill:#6a3b18;fill-opacity:1;stroke:none;stroke-width:6.77014;stroke-opacity:1;stop-color:#000000"
         id="rect848"
         width="26.28418"
         height="132.95045"
         x="3760.7031"
         y="-2313.0569"
         transform="scale(1,-1)" /><path
         inkscape:connector-curvature="0"
         id="path1701-5"
         style="fill:#008000;fill-opacity:1;fill-rule:nonzero;stroke:none;stroke-width:0.769821"
         d="m 3971.9162,2451.8069 c 0,-103.6517 -82.0238,-187.6906 -183.1978,-187.6906 -101.1816,0 -183.2055,84.0389 -183.2055,187.6906 0,103.6753 82.0239,187.7142 183.2055,187.7142 101.174,0 183.1978,-84.0389 183.1978,-187.7142" /><rect
         transform="scale(1,-1)"
         style="fill:#6a3b18;fill-opacity:1;stroke:none;stroke-width:5.48298;stroke-opacity:1;stop-color:#000000"
         id="rect846-6-0"
         width="112.05862"
         height="41.260471"
         x="4059.3621"
         y="-2370.28" /><rect
         y="-2105.8264"
         x="4056.6143"
         height="43.697208"
         width="253.66734"
         id="rect846-6"
         style="fill:#6a3b18;fill-opacity:1;stroke:none;stroke-width:8.48956;stroke-opacity:1;stop-color:#000000"
         transform="scale(1,-1)" /><rect
         transform="scale(1,-1)"
         y="-2588.418"
         x="3953.7249"
         height="21.820274"
         width="85.764732"
         id="rect846-69"
         style="fill:#6a3b18;fill-opacity:1;stroke:none;stroke-width:3.48827;stroke-opacity:1;stop-color:#000000" /><rect
         y="-2133.0444"
         x="4291.3511"
         height="73.35199"
         width="37.191734"
         id="rect848-9"
         style="fill:#6a3b18;fill-opacity:1;stroke:none;stroke-width:5.98183;stroke-opacity:1;stop-color:#000000"
         transform="scale(1,-1)" /><rect
         transform="scale(1,-1)"
         style="fill:#6a3b18;fill-opacity:1;stroke:none;stroke-width:5.02872;stroke-opacity:1;stop-color:#000000"
         id="rect848-9-0"
         width="26.28418"
         height="73.35199"
         x="4146.978"
         y="-2422.2505" /><path
         inkscape:connector-curvature="0"
         id="path1701-5-5-0"
         style="fill:#009f00;fill-opacity:1;fill-rule:nonzero;stroke:none;stroke-width:0.60208"
         d="m 4332.7486,2565.293 c 0,-81.5518 -63.77,-147.6726 -142.4284,-147.6726 -78.6642,0 -142.4342,66.1208 -142.4342,147.6726 0,81.5704 63.77,147.6911 142.4342,147.6911 78.6584,0 142.4284,-66.1207 142.4284,-147.6911" /><path
         d="m 4510.1829,2315.6047 c 0,-106.0397 -83.2724,-192.0148 -185.9862,-192.0148 -102.7215,0 -185.9938,85.9751 -185.9938,192.0148 0,106.0638 83.2723,192.0389 185.9938,192.0389 102.7138,0 185.9862,-85.9751 185.9862,-192.0389"
         style="fill:#008000;fill-opacity:1;fill-rule:nonzero;stroke:none;stroke-width:0.784536"
         id="path1701-5-5"
         inkscape:connector-curvature="0" /><rect
         transform="scale(-1)"
         style="fill:#6a3b18;fill-opacity:1;stroke:none;stroke-width:2.50196;stroke-opacity:1;stop-color:#000000"
         id="rect846-69-5"
         width="19.413248"
         height="49.591984"
         x="-3973.707"
         y="-2621.9312" /><path
         d="m 4019.7889,2670.5392 c 0,-34.6105 -26.0759,-62.6721 -58.2397,-62.6721 -32.1663,0 -58.2422,28.0616 -58.2422,62.6721 0,34.6184 26.0759,62.68 58.2422,62.68 32.1638,0 58.2397,-28.0616 58.2397,-62.68"
         style="fill:#00b300;fill-opacity:1;fill-rule:nonzero;stroke:none;stroke-width:0.250816"
         id="path1701-5-0"
         inkscape:connector-curvature="0" /></g></g></svg>
