<?xml version="1.0" encoding="UTF-8" standalone="no"?>
<svg
   xmlns:dc="http://purl.org/dc/elements/1.1/"
   xmlns:cc="http://creativecommons.org/ns#"
   xmlns:rdf="http://www.w3.org/1999/02/22-rdf-syntax-ns#"
   xmlns:svg="http://www.w3.org/2000/svg"
   xmlns="http://www.w3.org/2000/svg"
   xmlns:sodipodi="http://sodipodi.sourceforge.net/DTD/sodipodi-0.dtd"
   xmlns:inkscape="http://www.inkscape.org/namespaces/inkscape"
   inkscape:version="1.0beta2 (2b71d25, 2019-12-03)"
   sodipodi:docname="2.svg"
   viewBox="0 0 143.01644 296.70427"
   height="296.70428"
   width="143.01643"
   xml:space="preserve"
   id="svg2503"
   version="1.1"><metadata
     id="metadata2509"><rdf:RDF><cc:Work
         rdf:about=""><dc:format>image/svg+xml</dc:format><dc:type
           rdf:resource="http://purl.org/dc/dcmitype/StillImage" /><dc:title></dc:title></cc:Work></rdf:RDF></metadata><defs
     id="defs2507" /><sodipodi:namedview
     inkscape:current-layer="g2511"
     inkscape:window-maximized="0"
     inkscape:window-y="351"
     inkscape:window-x="1024"
     inkscape:cy="165.05387"
     inkscape:cx="88.703368"
     inkscape:zoom="1.1330312"
     inkscape:snap-object-midpoints="true"
     showgrid="false"
     id="namedview2505"
     inkscape:window-height="897"
     inkscape:window-width="1375"
     inkscape:pageshadow="2"
     inkscape:pageopacity="0"
     guidetolerance="10"
     gridtolerance="10"
     objecttolerance="10"
     borderopacity="1"
     inkscape:document-rotation="0"
     bordercolor="#666666"
     pagecolor="#ffffff" /><g
     transform="matrix(1.3333333,0,0,-1.3333333,-3.0858076,297.2872)"
     inkscape:label="ink_ext_XXXXXX"
     inkscape:groupmode="layer"
     id="g2511"><g
       transform="matrix(0.08030035,-0.07293154,0.07845755,0.07125794,-162.17152,138.23878)"
       id="g2513"><path
         inkscape:connector-curvature="0"
         id="path2533"
         style="fill:#633314;fill-opacity:1;fill-rule:nonzero;stroke:none;stroke-width:0.99475"
         d="m 2421.5941,886.73441 c -117.25,295.26539 -431.85,446.15849 -712.58,553.55199 -124.99,47.7745 -271.38,86.7025 -421.57,123.2656 -59.57,14.4966 -226.26,63.2902 -209.02,-30.3687 17.64,-95.6774 179.19,-623.58089 279.86,-777.9473 36.86,-56.50306 79.12,-109.25382 129.8,-154.6138 169.11,-151.36616 427.19,-266.44929 658.21,-215.03241 120.36,26.79445 232.18,107.87738 278.68,223.0377 38.71,95.78732 31.52,190.21801 -3.38,278.10692" /><path
         inkscape:connector-curvature="0"
         id="path2535"
         style="fill:#451a13;fill-opacity:1;fill-rule:nonzero;stroke:none;stroke-width:0.99475"
         d="m 1572.3741,1468.6464 c -100.13,31.091 -207.1,57.9963 -289.14,77.955 l -14.21,3.5426 c -42.53,10.7165 -142.09,35.811 -168.4,11.5181 -2.02,-1.8504 -8.13,-7.4908 -4.84,-25.3517 16.38,-88.8795 178.21,-619.6329 277.32,-771.61553 39.71,-60.83719 81.18,-110.28194 126.81,-151.13857 96.85,-86.68466 215.53,-154.70285 334.21,-191.53606 109.59,-34.019 213.32,-40.53999 308.31,-19.41158 122.24,27.20015 224.21,108.63932 266.16,212.5012 34.12,84.39587 32.96,173.65033 -3.42,265.23217 -113.44,285.63737 -418.78,435.10557 -702.52,543.64697 -39.58,15.1497 -82.21,29.7452 -130.28,44.6574 m 251.2,-1079.92973 c -123.43,38.30167 -246.77,108.96389 -347.32,198.96049 -47.95,42.92871 -91.39,94.63948 -132.79,158.10881 -103.5,158.69065 -265.25,691.26483 -282.38,784.25073 -5.58,30.2697 5.34,47.7844 15.47,57.1453 37.3,34.4455 123.4,16.4064 201.19,-3.1962 l 13.92,-3.4831 c 82.51,-20.0874 190.2,-47.1708 291.26,-78.5389 48.8,-15.1398 92.14,-30.0025 132.45,-45.3995 290.88,-111.2725 604.21,-265.2431 722.62,-563.42767 39.78,-100.15115 40.91,-198.0531 3.38,-290.99157 -46.21,-114.39838 -157.77,-203.8923 -291.22,-233.57815 -101.1,-22.51177 -210.99,-15.71272 -326.58,20.14976" /><path
         inkscape:connector-curvature="0"
         id="path2537"
         style="fill:#4f2613;fill-opacity:1;fill-rule:nonzero;stroke:none;stroke-width:0.99475"
         d="m 2197.8341,594.03194 c -112.95,-0.0119 -243.34,55.67284 -320.13,98.63618 -168.35,94.1833 -298.98,246.99616 -383,417.86788 -43.62,88.6717 -86.45,179.7874 -152.68,254.6057 -65.78,74.2542 -152.97,125.9471 -244.64,163.1831 -0.63,2.9685 -1.17,5.6304 -1.6,7.9855 -0.25,1.3358 -0.44,2.5925 -0.59,3.7898 89.45,-17.4354 174.84,-29.1614 260.14,-78.5091 117.73,-68.1488 221.84,-166.8147 317.54,-261.7698 142.9,-141.7796 259.94,-344.37568 475.61,-379.67413 8.69,-1.42591 17.04,-2.1067 25.07,-2.1067 107.97,0.0119 155.71,123.39516 140.38,220.49763 37.15,-47.62606 68.17,-100.10074 91.24,-158.19594 4.33,-10.90461 8.17,-21.78942 11.5,-32.63465 -1.41,-25.59316 -5.54,-51.44458 -8.44,-69.53415 -7.12,-44.13494 -22.09,-89.05754 -52.48,-123.08841 -39.69,-44.41993 -96.21,-61.04103 -157.92,-61.05291" /><path
         inkscape:connector-curvature="0"
         id="path2539"
         style="fill:#361512;fill-opacity:1;fill-rule:nonzero;stroke:none;stroke-width:0.99475"
         d="m 2451.0241,740.8067 c -0.01,49.99493 -10.76,98.89544 -29.43,145.92772 -3.88,9.73696 -8.29,19.088 -12.6,28.5182 7.8,-17.07926 9.08,-42.19348 7.68,-67.5452 -3.33,10.84523 -7.17,21.73004 -11.5,32.63465 -23.07,58.0952 -54.09,110.56988 -91.24,158.19593 -2.24,14.1898 -5.83,27.8156 -10.77,40.4123 48.97,-56.4526 89.71,-119.92095 118.43,-192.21588 18.67,-47.03228 29.42,-95.93279 29.43,-145.92772 m -1353.64,787.5181 c -6.4,2.5925 -12.81,5.1257 -19.25,7.5797 0.15,-0.8806 0.11,-1.6525 0.26,-2.5628 -0.65,3.6909 -0.97,7.085 -1.05,10.3207 5.97,-1.2171 11.92,-2.4045 17.85,-3.5623 0.15,-1.1973 0.34,-2.454 0.59,-3.7898 0.43,-2.3551 0.97,-5.017 1.6,-7.9855" /><path
         inkscape:connector-curvature="0"
         id="path2541"
         style="fill:#361512;fill-opacity:1;fill-rule:nonzero;stroke:none;stroke-width:0.99475"
         d="m 1245.0441,1003.9045 c -79.05,209.305 -154.85,465.4642 -166.62,529.2788 -0.01,0.059 -0.02,0.1089 -0.03,0.1584 0.01,-0.049 0.02,-0.1089 0.03,-0.1584 11.77,-63.8146 87.57,-319.9738 166.62,-529.2788 v 0" /><path
         inkscape:connector-curvature="0"
         id="path2543"
         style="fill:#3f1e13;fill-opacity:1;fill-rule:nonzero;stroke:none;stroke-width:0.99475"
         d="m 2061.2242,484.94835 c -64,0 -127.69,9.6667 -186.34,28.15109 -230.5701,72.64918 -377.4601,232.80631 -499.5001,432.10621 -65.29,106.62165 -126.09,215.91505 -180.95,328.17705 -28,57.3234 -50.94,116.9523 -76.47,175.2949 -9.72,34.6533 -16.85,62.2513 -20.58,79.6472 91.67,-37.236 178.86,-88.9289 244.64,-163.1831 66.23,-74.8183 109.06,-165.934 152.68,-254.6057 84.02,-170.8717 214.65,-323.68456 383.0001,-417.86786 76.79,-42.96334 207.18,-98.64805 320.13,-98.63618 61.71,0.0119 118.23,16.63298 157.92,61.05291 30.39,34.03087 45.36,78.95347 52.48,123.08841 2.9,18.08957 7.03,43.94099 8.44,69.53415 24.65,-80.15179 21.97,-158.25525 -8.08,-232.59752 -1.9,-4.69235 -3.91,-9.33126 -6.05,-13.93454 -91.34,-79.63823 -216.87,-116.22702 -341.32,-116.22702" /><path
         inkscape:connector-curvature="0"
         id="path2545"
         style="fill:#2b1210;fill-opacity:1;fill-rule:nonzero;stroke:none;stroke-width:0.99475"
         d="m 2402.5441,601.17534 c 2.14,4.60328 4.15,9.24219 6.05,13.93454 30.05,74.34227 32.73,152.44573 8.08,232.59752 1.4,25.35172 0.12,50.46594 -7.68,67.5452 4.31,-9.4302 8.72,-18.78124 12.6,-28.5182 18.67,-47.03228 29.42,-95.93279 29.43,-145.92772 0.02,-43.41951 -8.05,-87.65043 -26.05,-132.1792 3.08,7.63025 5.4,15.21795 7.89,22.81753 -7.45,-8.4387 -15.27,-16.69037 -23.89,-24.53733 -2.12,-1.93255 -4.27,-3.84234 -6.43,-5.73234 m -1157.5,402.72906 c -79.05,209.3051 -154.85,465.4643 -166.62,529.2789 -0.01,0.05 -0.02,0.1089 -0.03,0.1584 -0.15,0.9103 -0.11,1.6822 -0.26,2.5628 6.44,-2.454 12.85,-4.9872 19.25,-7.5797 3.73,-17.3959 10.86,-44.9939 20.58,-79.6472 -12.15,27.7761 -24.89,55.2652 -39.04,82.0715 13.03,-67.2879 87.98,-319.9442 166.12,-526.8447" /><path
         inkscape:connector-curvature="0"
         id="path2547"
         style="fill:#2b1210;fill-opacity:1;fill-rule:nonzero;stroke:none;stroke-width:0.99475"
         d="m 1358.2841,755.23598 c -0.1,0.13952 -0.19,0.28597 -0.28,0.43737 0.09,-0.1514 0.18,-0.29785 0.28,-0.43737" /><path
         inkscape:connector-curvature="0"
         id="path2549"
         style="fill:#2b1210;fill-opacity:1;fill-rule:nonzero;stroke:none;stroke-width:0.99475"
         d="m 1357.9841,755.69215 c -1.76,2.7024 -3.53,5.51959 -5.33,8.44958 1.8,-2.92999 3.57,-5.74718 5.33,-8.44958" /><path
         inkscape:connector-curvature="0"
         id="path2551"
         style="fill:#2b1210;fill-opacity:1;fill-rule:nonzero;stroke:none;stroke-width:0.99475"
         d="m 1352.6541,764.14173 c -0.05,0.0772 -0.1,0.15832 -0.15,0.2365 0.05,-0.0782 0.1,-0.15932 0.15,-0.2365" /><path
         inkscape:connector-curvature="0"
         id="path2553"
         style="fill:#2b1210;fill-opacity:1;fill-rule:nonzero;stroke:none;stroke-width:0.99475"
         d="m 1352.5041,764.38911 c -0.05,0.0772 -0.1,0.15833 -0.15,0.2365 0.05,-0.0782 0.1,-0.15931 0.15,-0.2365" /><path
         inkscape:connector-curvature="0"
         id="path2555"
         style="fill:#2b1210;fill-opacity:1;fill-rule:nonzero;stroke:none;stroke-width:0.99475"
         d="m 1352.3541,764.62561 c -0.04,0.0811 -0.09,0.15832 -0.14,0.23947 0.05,-0.0891 0.09,-0.1514 0.14,-0.23947" /><path
         inkscape:connector-curvature="0"
         id="path2557"
         style="fill:#2b1210;fill-opacity:1;fill-rule:nonzero;stroke:none;stroke-width:0.99475"
         d="m 1352.2041,764.88388 c -0.04,0.0702 -0.1,0.15832 -0.14,0.22858 0.05,-0.0811 0.09,-0.1514 0.14,-0.22858" /><path
         inkscape:connector-curvature="0"
         id="path2559"
         style="fill:#2b1210;fill-opacity:1;fill-rule:nonzero;stroke:none;stroke-width:0.99475"
         d="m 1352.0541,765.12037 c -0.04,0.0811 -0.09,0.15833 -0.14,0.2276 0.05,-0.0693 0.1,-0.14646 0.14,-0.2276" /><path
         inkscape:connector-curvature="0"
         id="path2561"
         style="fill:#2b1210;fill-opacity:1;fill-rule:nonzero;stroke:none;stroke-width:0.99475"
         d="m 1351.9041,765.37864 c -0.04,0.0703 -0.09,0.14744 -0.14,0.21671 0.05,-0.0772 0.09,-0.13953 0.14,-0.21671" /><path
         inkscape:connector-curvature="0"
         id="path2563"
         style="fill:#2b1210;fill-opacity:1;fill-rule:nonzero;stroke:none;stroke-width:0.99475"
         d="m 1351.7541,765.62602 c -0.04,0.0703 -0.09,0.13953 -0.13,0.20879 0.04,-0.0693 0.09,-0.13853 0.13,-0.20879" /><path
         inkscape:connector-curvature="0"
         id="path2565"
         style="fill:#2b1210;fill-opacity:1;fill-rule:nonzero;stroke:none;stroke-width:0.99475"
         d="m 1351.6041,765.8734 c -0.05,0.0703 -0.09,0.13953 -0.13,0.21671 0.04,-0.0693 0.08,-0.14645 0.13,-0.21671" /><path
         inkscape:connector-curvature="0"
         id="path2567"
         style="fill:#2b1210;fill-opacity:1;fill-rule:nonzero;stroke:none;stroke-width:0.99475"
         d="m 1351.4541,766.12079 c -0.04,0.0584 -0.09,0.13952 -0.12,0.1979 0.04,-0.0702 0.07,-0.12765 0.12,-0.1979" /><path
         inkscape:connector-curvature="0"
         id="path2569"
         style="fill:#2b1210;fill-opacity:1;fill-rule:nonzero;stroke:none;stroke-width:0.99475"
         d="m 1351.2941,766.38004 c -0.04,0.0584 -0.08,0.13557 -0.12,0.19692 0.04,-0.0613 0.08,-0.13853 0.12,-0.19692" /><path
         inkscape:connector-curvature="0"
         id="path2571"
         style="fill:#2b1210;fill-opacity:1;fill-rule:nonzero;stroke:none;stroke-width:0.99475"
         d="m 1351.1441,766.62743 c -0.03,0.0584 -0.08,0.12764 -0.11,0.18603 0.04,-0.0703 0.07,-0.12073 0.11,-0.18603" /><path
         inkscape:connector-curvature="0"
         id="path2573"
         style="fill:#2b1210;fill-opacity:1;fill-rule:nonzero;stroke:none;stroke-width:0.99475"
         d="m 1350.9941,766.88272 c -0.04,0.0574 -0.08,0.12765 -0.12,0.189 0.04,-0.0614 0.08,-0.1316 0.12,-0.189" /><path
         inkscape:connector-curvature="0"
         id="path2575"
         style="fill:#2b1210;fill-opacity:1;fill-rule:nonzero;stroke:none;stroke-width:0.99475"
         d="m 1350.8441,767.13011 c -0.04,0.0574 -0.08,0.12764 -0.11,0.189 0.03,-0.0614 0.07,-0.13161 0.11,-0.189" /><path
         inkscape:connector-curvature="0"
         id="path2577"
         style="fill:#2b1210;fill-opacity:1;fill-rule:nonzero;stroke:none;stroke-width:0.99475"
         d="m 1350.6941,767.37749 c -0.04,0.0693 -0.08,0.12765 -0.12,0.19691 0.04,-0.0693 0.08,-0.13952 0.12,-0.19691" /><path
         inkscape:connector-curvature="0"
         id="path2579"
         style="fill:#2b1210;fill-opacity:1;fill-rule:nonzero;stroke:none;stroke-width:0.99475"
         d="m 1350.5441,767.63674 c -0.03,0.0455 -0.08,0.12666 -0.11,0.17713 0.03,-0.0613 0.07,-0.11973 0.11,-0.17713" /><path
         inkscape:connector-curvature="0"
         id="path2581"
         style="fill:#2b1210;fill-opacity:1;fill-rule:nonzero;stroke:none;stroke-width:0.99475"
         d="m 1350.3841,767.88413 c -0.03,0.0574 -0.07,0.12666 -0.1,0.17712 0.03,-0.0613 0.07,-0.10786 0.1,-0.17712" /><path
         inkscape:connector-curvature="0"
         id="path2583"
         style="fill:#2b1210;fill-opacity:1;fill-rule:nonzero;stroke:none;stroke-width:0.99475"
         d="m 1350.2341,768.15031 c -0.03,0.0505 -0.06,0.097 -0.09,0.14744 0.03,-0.0505 0.06,-0.097 0.09,-0.14744" /><path
         inkscape:connector-curvature="0"
         id="path2585"
         style="fill:#2b1210;fill-opacity:1;fill-rule:nonzero;stroke:none;stroke-width:0.99475"
         d="m 1350.0741,768.40561 c -0.03,0.0613 -0.05,0.089 -0.08,0.13952 0.02,-0.0396 0.06,-0.0891 0.08,-0.13952" /><path
         inkscape:connector-curvature="0"
         id="path2587"
         style="fill:#2b1210;fill-opacity:1;fill-rule:nonzero;stroke:none;stroke-width:0.99475"
         d="m 1349.9241,768.66486 c -0.03,0.0386 -0.05,0.0881 -0.08,0.12765 0.03,-0.0396 0.05,-0.0891 0.08,-0.12765" /><path
         inkscape:connector-curvature="0"
         id="path2589"
         style="fill:#2b1210;fill-opacity:1;fill-rule:nonzero;stroke:none;stroke-width:0.99475"
         d="m 1349.7741,768.91917 c -0.03,0.0426 -0.06,0.0891 -0.08,0.13161 0.02,-0.0426 0.05,-0.0891 0.08,-0.13161" /><path
         inkscape:connector-curvature="0"
         id="path2591"
         style="fill:#2b1210;fill-opacity:1;fill-rule:nonzero;stroke:none;stroke-width:0.99475"
         d="m 1349.6141,769.17843 c -0.02,0.0386 -0.04,0.0772 -0.07,0.11973 0.03,-0.0426 0.05,-0.0811 0.07,-0.11973" /><path
         inkscape:connector-curvature="0"
         id="path2593"
         style="fill:#2b1210;fill-opacity:1;fill-rule:nonzero;stroke:none;stroke-width:0.99475"
         d="m 1349.4641,769.43769 c -0.02,0.0386 -0.05,0.0891 -0.08,0.12764 0.03,-0.0386 0.06,-0.0891 0.08,-0.12764" /><path
         inkscape:connector-curvature="0"
         id="path2595"
         style="fill:#2b1210;fill-opacity:1;fill-rule:nonzero;stroke:none;stroke-width:0.99475"
         d="m 1349.3141,769.69298 c -0.03,0.0386 -0.05,0.0811 -0.08,0.12765 0.03,-0.0465 0.06,-0.0891 0.08,-0.12765" /><path
         inkscape:connector-curvature="0"
         id="path2597"
         style="fill:#2b1210;fill-opacity:1;fill-rule:nonzero;stroke:none;stroke-width:0.99475"
         d="m 1349.1641,769.94037 c -0.02,0.0386 -0.05,0.089 -0.08,0.13853 0.03,-0.0495 0.06,-0.0999 0.08,-0.13853" /><path
         inkscape:connector-curvature="0"
         id="path2599"
         style="fill:#2b1210;fill-opacity:1;fill-rule:nonzero;stroke:none;stroke-width:0.99475"
         d="m 1349.0041,770.20655 c -0.02,0.0505 -0.04,0.0703 -0.06,0.10885 0.02,-0.0277 0.04,-0.0782 0.06,-0.10885" /><path
         inkscape:connector-curvature="0"
         id="path2601"
         style="fill:#2b1210;fill-opacity:1;fill-rule:nonzero;stroke:none;stroke-width:0.99475"
         d="m 1348.8541,770.47372 c -0.03,0.0426 -0.04,0.0614 -0.06,0.0999 0.01,-0.0307 0.04,-0.0693 0.06,-0.0999" /><path
         inkscape:connector-curvature="0"
         id="path2603"
         style="fill:#2b1210;fill-opacity:1;fill-rule:nonzero;stroke:none;stroke-width:0.99475"
         d="m 1348.6941,770.73199 c -0.02,0.0317 -0.03,0.0584 -0.05,0.097 0.02,-0.0386 0.03,-0.0653 0.05,-0.097" /><path
         inkscape:connector-curvature="0"
         id="path2605"
         style="fill:#2b1210;fill-opacity:1;fill-rule:nonzero;stroke:none;stroke-width:0.99475"
         d="m 1348.5441,770.98729 c -0.01,0.0237 -0.04,0.0811 -0.06,0.10093 0.02,-0.0307 0.04,-0.0693 0.06,-0.10093" /><path
         inkscape:connector-curvature="0"
         id="path2607"
         style="fill:#2b1210;fill-opacity:1;fill-rule:nonzero;stroke:none;stroke-width:0.99475"
         d="m 1348.3841,771.25842 c -0.01,0.0188 -0.03,0.0574 -0.05,0.0891 0.02,-0.0317 0.04,-0.0703 0.05,-0.0891" /><path
         inkscape:connector-curvature="0"
         id="path2609"
         style="fill:#2b1210;fill-opacity:1;fill-rule:nonzero;stroke:none;stroke-width:0.99475"
         d="m 1348.2341,771.51372 c -0.01,0.0188 -0.04,0.0693 -0.05,0.0881 0.01,-0.0188 0.04,-0.0693 0.05,-0.0881" /><path
         inkscape:connector-curvature="0"
         id="path2611"
         style="fill:#2b1210;fill-opacity:1;fill-rule:nonzero;stroke:none;stroke-width:0.99475"
         d="m 1348.0741,771.79177 c -0.01,0.0188 -0.02,0.0307 -0.03,0.0505 0.01,-0.0198 0.02,-0.0317 0.03,-0.0505" /><path
         inkscape:connector-curvature="0"
         id="path2613"
         style="fill:#2b1210;fill-opacity:1;fill-rule:nonzero;stroke:none;stroke-width:0.99475"
         d="m 1347.9141,772.06587 -0.02,0.0307 c 0.01,-0.01 0.01,-0.0188 0.02,-0.0307" /><path
         inkscape:connector-curvature="0"
         id="path2615"
         style="fill:#2b1210;fill-opacity:1;fill-rule:nonzero;stroke:none;stroke-width:0.99475"
         d="m 1347.7541,772.337 -0.01,0.0188 c 0.01,-0.0119 0.01,-0.0119 0.01,-0.0188" /><path
         inkscape:connector-curvature="0"
         id="path2617"
         style="fill:#2b1210;fill-opacity:1;fill-rule:nonzero;stroke:none;stroke-width:0.99475"
         d="m 1347.6041,772.59131 -0.01,0.0317 c 0,-0.0119 0.01,-0.0198 0.01,-0.0317" /><path
         inkscape:connector-curvature="0"
         id="path2619"
         style="fill:#2b1210;fill-opacity:1;fill-rule:nonzero;stroke:none;stroke-width:0.99475"
         d="m 1347.4441,772.85848 v 0.0119 c 0,-0.0119 0,0 0,-0.0119" /><path
         inkscape:connector-curvature="0"
         id="path2623"
         style="fill:#361512;fill-opacity:1;fill-rule:nonzero;stroke:none;stroke-width:0.99475"
         d="m 1358.0041,755.67335 c -0.01,0.01 -0.01,0.01 -0.02,0.0188 0.01,-0.0109 0.01,-0.0109 0.02,-0.0188 m -5.35,8.46838 v 0 0 m -0.15,0.2365 v 0.0109 -0.0109 m -0.15,0.24738 v 0 0 m -0.14,0.23947 -0.01,0.0188 c 0.01,-0.0109 0.01,-0.0109 0.01,-0.0188 m -0.15,0.24738 -0.01,0.01 c 0.01,-0.01 0,0 0.01,-0.01 m -0.15,0.23551 c 0,0.0119 0,0.0198 -0.01,0.0307 0.01,-0.0109 0.01,-0.0188 0.01,-0.0307 m -0.15,0.24738 -0.01,0.0307 c 0.01,-0.0109 0.01,-0.0188 0.01,-0.0307 m -0.14,0.23946 c -0.01,0.01 -0.02,0.0277 -0.02,0.0386 0,-0.0109 0.01,-0.0307 0.02,-0.0386 m -0.15,0.2553 c -0.01,0.0119 -0.02,0.0198 -0.02,0.0307 0,-0.0109 0.01,-0.0188 0.02,-0.0307 m -0.14,0.22858 c -0.02,0.0188 -0.03,0.0386 -0.04,0.0614 0.01,-0.0228 0.02,-0.0426 0.04,-0.0614 m -0.16,0.25827 c -0.01,0.01 -0.02,0.0386 -0.03,0.0505 0.02,-0.0228 0.02,-0.0228 0.03,-0.0505 m -0.14,0.2365 c -0.02,0.0188 -0.03,0.0495 -0.04,0.0693 0.01,-0.0198 0.02,-0.0505 0.04,-0.0693 m -0.16,0.25826 c -0.01,0.0198 -0.02,0.0386 -0.03,0.0584 0.01,-0.0198 0.02,-0.0386 0.03,-0.0584 m -0.14,0.24739 c -0.02,0.0198 -0.03,0.0386 -0.04,0.0584 0.01,-0.0198 0.02,-0.0386 0.04,-0.0584 m -0.16,0.25529 c -0.01,0.0198 -0.02,0.0307 -0.03,0.0623 0.01,-0.0317 0.02,-0.0426 0.03,-0.0623 m -0.14,0.23947 c -0.02,0.0198 -0.03,0.0505 -0.05,0.0703 0.02,-0.0317 0.03,-0.0426 0.05,-0.0703 m -0.15,0.24738 c -0.02,0.0277 -0.04,0.0584 -0.05,0.0891 0.02,-0.0386 0.03,-0.0505 0.05,-0.0891 m -0.14,0.2365 c -0.03,0.0386 -0.04,0.0693 -0.07,0.10786 0.02,-0.0267 0.05,-0.0772 0.07,-0.10786 m -0.15,0.24738 c -0.03,0.0495 -0.05,0.0811 -0.07,0.11973 0.02,-0.0317 0.05,-0.0811 0.07,-0.11973 m -0.15,0.24738 c -0.02,0.0495 -0.05,0.0881 -0.07,0.12666 0.02,-0.0386 0.05,-0.0772 0.07,-0.12666 m -0.15,0.25827 c -0.03,0.0386 -0.05,0.0891 -0.08,0.12765 0.03,-0.0386 0.05,-0.0891 0.08,-0.12765 m -0.15,0.24738 c -0.02,0.0505 -0.05,0.0891 -0.08,0.13953 0.03,-0.0505 0.06,-0.0891 0.08,-0.13953 m -0.16,0.26717 c -0.02,0.0386 -0.04,0.0772 -0.07,0.12765 0.03,-0.0505 0.05,-0.0891 0.07,-0.12765 m -0.15,0.2553 c -0.02,0.0426 -0.04,0.0811 -0.07,0.11974 0.03,-0.0386 0.05,-0.0772 0.07,-0.11974 m -0.15,0.25827 c -0.02,0.0386 -0.05,0.0891 -0.08,0.12765 0.03,-0.0386 0.06,-0.0891 0.08,-0.12765 m -0.14,0.2365 c -0.03,0.0495 -0.06,0.0999 -0.09,0.15832 0.02,-0.0465 0.06,-0.11577 0.09,-0.15832 m -0.15,0.25826 c -0.04,0.0584 -0.07,0.10885 -0.1,0.15833 0.03,-0.0495 0.06,-0.0999 0.1,-0.15833 m -0.15,0.2553 c -0.04,0.0505 -0.07,0.11182 -0.1,0.15833 0.03,-0.0465 0.06,-0.10786 0.1,-0.15833 m -0.16,0.25926 c -0.03,0.0574 -0.06,0.0999 -0.1,0.1702 0.04,-0.0703 0.07,-0.11281 0.1,-0.1702 m -0.15,0.25926 c -0.03,0.0574 -0.06,0.096 -0.1,0.16624 0.04,-0.0703 0.07,-0.10885 0.1,-0.16624 m -0.15,0.2543 c -0.04,0.0623 -0.07,0.12765 -0.11,0.18999 0.04,-0.0623 0.07,-0.12765 0.11,-0.18999 m -0.14,0.24046 c -0.04,0.0772 -0.09,0.14645 -0.13,0.22363 0.04,-0.0772 0.09,-0.14645 0.13,-0.22363 m -0.15,0.25431 c -0.04,0.0702 -0.09,0.15931 -0.14,0.24045 0.06,-0.0891 0.09,-0.15139 0.14,-0.24045 m -0.15,0.25925 c -0.04,0.0772 -0.09,0.15833 -0.14,0.23551 0.05,-0.0881 0.09,-0.14645 0.14,-0.23551 m -0.15,0.26718 c -0.05,0.0693 -0.1,0.16624 -0.15,0.2355 0.06,-0.089 0.1,-0.14744 0.15,-0.2355 m -0.15,0.24738 c -0.05,0.0772 -0.11,0.189 -0.15,0.25431 0.05,-0.0772 0.1,-0.16624 0.15,-0.25431 m -0.15,0.26618 c -31.1,53.42463 -66.91,137.22778 -102.09,230.33246 35.18,-93.10468 71,-176.91772 102.09,-230.33246 m -102.16,230.53036 c -0.03,0.079 -0.06,0.1584 -0.09,0.2375 0.03,-0.079 0.06,-0.1583 0.09,-0.2375" /><path
         inkscape:connector-curvature="0"
         id="path2625"
         style="fill:#321812;fill-opacity:1;fill-rule:nonzero;stroke:none;stroke-width:0.99475"
         d="m 2029.7641,390.49488 c -62.53,0 -127.96,10.52166 -195.64,31.52538 -118.68,36.83322 -237.36,104.85141 -334.21,191.53607 -45.63,40.85663 -87.1,90.30138 -126.81,151.13857 -81.05,124.29563 -204.05,501.8996 -255.14,683.9827 25.53,-58.3426 48.47,-117.9715 76.47,-175.2949 54.86,-112.262 115.66,-221.5554 180.95,-328.17707 122.04,-199.2999 268.93,-359.45703 499.5,-432.10621 58.65,-18.48439 122.34,-28.15109 186.34,-28.15109 124.45,0 249.98,36.58879 341.32,116.22702 -45.15,-97.17069 -143.39,-172.59154 -260.11,-198.56666 -36.34,-8.07455 -73.95,-12.11381 -112.67,-12.11381" /><path
         inkscape:connector-curvature="0"
         id="path2627"
         style="fill:#23100f;fill-opacity:1;fill-rule:nonzero;stroke:none;stroke-width:0.99475"
         d="m 2030.2151,373.14944 c -197.71,0.01 -400.94,101.0912 -542.13,227.47177 -50.68,45.35998 -92.94,98.11074 -129.8,154.6138 v 0 c -0.1,0.13952 -0.19,0.28597 -0.28,0.43737 -0.01,0.01 -0.01,0.01 -0.02,0.0188 -1.76,2.7024 -3.53,5.51959 -5.33,8.44958 v 0 c -0.05,0.0772 -0.1,0.15832 -0.15,0.2365 v 0.0109 c -0.05,0.0772 -0.1,0.15833 -0.15,0.2365 v 0 c -0.05,0.0881 -0.09,0.15041 -0.14,0.23947 0,0.01 0,0.01 -0.01,0.0188 -0.05,0.0772 -0.09,0.14744 -0.14,0.22858 -0.01,0.01 0,0 -0.01,0.01 -0.04,0.0811 -0.09,0.15833 -0.14,0.22759 0,0.0119 0,0.0198 -0.01,0.0307 -0.05,0.0772 -0.09,0.13952 -0.14,0.21671 0,0.0119 0,0.0198 -0.01,0.0307 -0.04,0.0703 -0.09,0.13953 -0.13,0.20879 -0.01,0.01 -0.02,0.0277 -0.02,0.0386 -0.05,0.0703 -0.09,0.14744 -0.13,0.21671 -0.01,0.0119 -0.02,0.0198 -0.02,0.0307 -0.05,0.0702 -0.08,0.12765 -0.12,0.1979 -0.02,0.0188 -0.03,0.0386 -0.04,0.0613 -0.04,0.0584 -0.08,0.13557 -0.12,0.19692 -0.01,0.0277 -0.01,0.0277 -0.03,0.0505 -0.04,0.0653 -0.07,0.11578 -0.11,0.18604 -0.02,0.0188 -0.03,0.0495 -0.04,0.0693 -0.04,0.0574 -0.08,0.12765 -0.12,0.189 -0.01,0.0198 -0.02,0.0386 -0.03,0.0584 -0.04,0.0574 -0.08,0.12765 -0.11,0.189 -0.02,0.0198 -0.03,0.0386 -0.04,0.0584 -0.04,0.0574 -0.08,0.12765 -0.12,0.19691 -0.01,0.0198 -0.02,0.0307 -0.03,0.0623 -0.04,0.0574 -0.08,0.11578 -0.11,0.17713 -0.02,0.0277 -0.03,0.0386 -0.05,0.0703 -0.03,0.0693 -0.07,0.11577 -0.1,0.17712 -0.02,0.0386 -0.03,0.0505 -0.05,0.0891 -0.03,0.0505 -0.06,0.097 -0.09,0.14744 -0.02,0.0307 -0.05,0.0811 -0.07,0.10786 -0.02,0.0505 -0.06,0.0999 -0.08,0.13952 -0.02,0.0386 -0.05,0.0881 -0.07,0.11973 -0.03,0.0386 -0.05,0.0881 -0.08,0.12765 -0.02,0.0495 -0.05,0.0881 -0.07,0.12666 -0.03,0.0426 -0.06,0.0891 -0.08,0.13161 -0.03,0.0386 -0.05,0.0891 -0.08,0.12765 -0.02,0.0386 -0.04,0.0772 -0.07,0.11973 -0.02,0.0505 -0.05,0.0891 -0.08,0.13952 -0.02,0.0386 -0.05,0.0891 -0.08,0.12765 -0.02,0.0386 -0.04,0.0772 -0.07,0.12765 -0.02,0.0386 -0.05,0.0811 -0.08,0.12765 -0.02,0.0426 -0.04,0.0811 -0.07,0.11974 -0.02,0.0386 -0.05,0.0891 -0.08,0.13853 -0.02,0.0386 -0.05,0.0891 -0.08,0.12765 -0.02,0.0307 -0.04,0.0811 -0.06,0.10885 -0.03,0.0426 -0.07,0.11181 -0.09,0.15832 -0.02,0.0307 -0.05,0.0693 -0.06,0.0999 -0.04,0.0584 -0.07,0.10885 -0.1,0.15833 -0.02,0.0317 -0.03,0.0584 -0.05,0.097 -0.04,0.0505 -0.07,0.11182 -0.1,0.15833 -0.02,0.0317 -0.04,0.0702 -0.06,0.10093 -0.03,0.0574 -0.06,0.0999 -0.1,0.1702 -0.01,0.0188 -0.03,0.0574 -0.05,0.0891 -0.03,0.0574 -0.06,0.096 -0.1,0.16625 -0.01,0.0188 -0.04,0.0693 -0.05,0.0881 -0.04,0.0623 -0.07,0.12765 -0.11,0.18999 -0.01,0.0188 -0.02,0.0307 -0.03,0.0505 -0.04,0.0772 -0.09,0.14645 -0.13,0.22363 -0.01,0.0119 -0.01,0.0238 -0.02,0.0307 -0.05,0.089 -0.08,0.1514 -0.14,0.24045 0,0.01 0,0.01 -0.01,0.0188 -0.05,0.0891 -0.09,0.14744 -0.14,0.23551 0,0.0119 -0.01,0.0198 -0.01,0.0317 -0.05,0.0881 -0.09,0.14645 -0.15,0.2355 0,0.0119 0,0 0,0.0119 -0.05,0.0881 -0.1,0.17712 -0.15,0.25431 v 0.0119 c -31.09,53.41474 -66.91,137.22778 -102.09,230.33243 -0.03,0.079 -0.04,0.1188 -0.07,0.198 -0.03,0.079 -0.06,0.1583 -0.09,0.2374 -78.14,206.9005 -153.09,459.5568 -166.12,526.8447 14.15,-26.8063 26.89,-54.2954 39.04,-82.0715 51.09,-182.0831 174.09,-559.68706 255.14,-683.98269 39.71,-60.83719 81.18,-110.28194 126.81,-151.13857 96.85,-86.68466 215.53,-154.70285 334.21,-191.53607 67.68,-21.00372 133.11,-31.52538 195.64,-31.52538 38.72,0 76.33,4.03926 112.67,12.11381 116.72,25.97512 214.96,101.39597 260.11,198.56666 2.16,1.89 4.31,3.79979 6.43,5.73234 8.62,7.84695 16.44,16.09863 23.89,24.53733 -2.49,-7.59958 -4.81,-15.18728 -7.89,-22.81753 v 0 c -46.5,-115.16032 -158.32,-196.24325 -278.68,-223.0377 -38.14,-8.49213 -76.99,-12.43936 -116.08,-12.43936" /><path
         inkscape:connector-curvature="0"
         id="path2629"
         style="fill:#b3691b;fill-opacity:1;fill-rule:nonzero;stroke:none;stroke-width:0.99475"
         d="m 2176.0141,1128.9215 c -52.22,94.7968 -152.75,157.3844 -245.73,207.7712 -54.51,29.5374 -103.63,64.3886 -162.74,85.5744 -81.84,29.3395 -164.89,44.4991 -250.73,57.3234 -7.8,1.1676 -10.1,-9.351 -2.7,-11.7061 245.13,-77.5197 454.15,-179.639 640.54,-356.6656 11.94,-11.3301 28.69,4.3638 21.36,17.7027" /><path
         inkscape:connector-curvature="0"
         id="path2631"
         style="fill:#b3691b;fill-opacity:1;fill-rule:nonzero;stroke:none;stroke-width:0.99475"
         d="m 2233.1141,1021.1124 c -3.88,11.7753 -22.81,5.9173 -18.5,-5.5216 3.97,-10.3901 7.54,-20.91865 11.04,-31.45712 2.53,-7.66885 12.58,-5.11587 13.23,2.15717 1.06,12.49774 -1.91,23.04615 -5.77,34.82155" /></g><g
       transform="matrix(5.206291,0,0,5.206291,496.84585,-188.07141)"
       id="g3580"><path
         inkscape:connector-curvature="0"
         id="path2299"
         style="display:inline;fill:#62bc32;fill-opacity:1;fill-rule:nonzero;stroke:none;stroke-width:0.0999997"
         d="m -82.962767,65.996127 c 0.762,-1.8672 -5.431999,-0.232 -5.431999,-0.232 0,0 0.078,0.4957 0.246,1.2218 0.307,1.341 0.924,3.47 1.927,4.6739 3.351999,4.0351 1.020999,7.1761 0.933999,7.2902 0.075,-0.0492 1.068,-0.7539 1.896,-2.007 0.646001,-0.9782 1.192001,-2.2911 1.127001,-3.886 -0.155001,-3.7242 -2.25,-3.259 -0.698001,-7.0609" /><path
         inkscape:connector-curvature="0"
         id="path2301"
         style="display:inline;fill:#79ca2a;fill-opacity:1;fill-rule:nonzero;stroke:none;stroke-width:0.0999997"
         d="m -85.600766,67.082827 c 0.552,-1.3289 -1.323,-1.7539 -2.794,-1.3187 0.041,0.8808 0.322999,2.032 0.72,3.116 0,0 0,0.003 0.004,0.003 0.409,1.1172 0.94,2.166 1.449,2.777 3.336,4.016 1.043,7.148 0.937,7.2871 0.087,-0.059 1.071,-0.7598 1.893,-2.0039 0.242,-0.6891 0.388,-1.468 0.351,-2.334 -0.155,-3.725 -3.336,-5.6641 -2.56,-7.5262" /></g></g></svg>
