<?xml version="1.0" encoding="UTF-8" standalone="no"?>
<svg
   xmlns:dc="http://purl.org/dc/elements/1.1/"
   xmlns:cc="http://creativecommons.org/ns#"
   xmlns:rdf="http://www.w3.org/1999/02/22-rdf-syntax-ns#"
   xmlns:svg="http://www.w3.org/2000/svg"
   xmlns="http://www.w3.org/2000/svg"
   xmlns:sodipodi="http://sodipodi.sourceforge.net/DTD/sodipodi-0.dtd"
   xmlns:inkscape="http://www.inkscape.org/namespaces/inkscape"
   inkscape:version="1.0beta2 (2b71d25, 2019-12-03)"
   sodipodi:docname="default.svg"
   viewBox="0 0 82.274666 91.239601"
   height="91.239601"
   width="82.274666"
   xml:space="preserve"
   id="svg2357"
   version="1.1"><metadata
     id="metadata2363"><rdf:RDF><cc:Work
         rdf:about=""><dc:format>image/svg+xml</dc:format><dc:type
           rdf:resource="http://purl.org/dc/dcmitype/StillImage" /><dc:title></dc:title></cc:Work></rdf:RDF></metadata><defs
     id="defs2361" /><sodipodi:namedview
     inkscape:current-layer="g2367"
     inkscape:window-maximized="0"
     inkscape:window-y="189"
     inkscape:window-x="905"
     inkscape:cy="118.03684"
     inkscape:cx="-10.208136"
     inkscape:zoom="3.130126"
     showguides="false"
     showgrid="false"
     id="namedview2359"
     inkscape:window-height="1037"
     inkscape:window-width="1334"
     inkscape:pageshadow="2"
     inkscape:pageopacity="0"
     guidetolerance="10"
     gridtolerance="10"
     objecttolerance="10"
     borderopacity="1"
     inkscape:document-rotation="0"
     bordercolor="#666666"
     pagecolor="#ffffff" /><g
     transform="matrix(1.3333333,0,0,-1.3333333,-293.53101,423.33064)"
     inkscape:label="ink_ext_XXXXXX"
     inkscape:groupmode="layer"
     id="g2365"><g
       transform="scale(0.1)"
       id="g2367"><path
         d="m 2818.5426,2799.2099 c 0,170.391 -138.13,308.532 -308.53,308.532 -170.4,0 -308.53,-138.141 -308.53,-308.532 0,-170.398 138.13,-308.527 308.53,-308.527 170.4,0 308.53,138.129 308.53,308.527"
         style="fill:#294686;fill-opacity:1;fill-rule:nonzero;stroke:none;stroke-width:0.999997"
         id="path2451"
         inkscape:connector-curvature="0" /><path
         d="m 2685.5526,2981.3119 h -11.45 v -411.871 l 37.13,13.609 11.62,93.699 c 1.58,241.153 -37.3,304.563 -37.3,304.563"
         style="fill:#f7972e;fill-opacity:1;fill-rule:nonzero;stroke:none;stroke-width:0.999997"
         id="path2461"
         inkscape:connector-curvature="0" /><path
         d="m 2491.8326,2544.7529 c -60.76,0 -121.51,8.227 -182.27,24.688 -23.09,173.281 -11.09,238.59 11.99,411.871 60.76,16.461 109.52,24.687 170.28,24.687 0,-189.738 0,-271.507 0,-461.246"
         style="fill:#f9ad2a;fill-opacity:1;fill-rule:nonzero;stroke:none;stroke-width:0.999997"
         id="path2463"
         inkscape:connector-curvature="0" /><path
         d="m 2674.1026,2569.4409 c -60.75,-16.461 -121.51,-24.688 -182.27,-24.688 0,189.739 0,271.508 0,461.246 60.76,0 121.52,-8.226 182.27,-24.687 23.09,-173.281 23.09,-238.59 0,-411.871"
         style="fill:#f8a223;fill-opacity:1;fill-rule:nonzero;stroke:none;stroke-width:0.999997"
         id="path2465"
         inkscape:connector-curvature="0" /><path
         d="m 2491.8326,2981.3119 h -170.28 l 3.17,72.359 167.11,-4.949 v -67.41"
         style="fill:#f7972e;fill-opacity:1;fill-rule:nonzero;stroke:none;stroke-width:0.999997"
         id="path2467"
         inkscape:connector-curvature="0" /><path
         d="m 2491.8326,2981.3119 h 182.27 l -3.16,72.359 -179.11,-4.949 v -67.41"
         style="fill:#f68721;fill-opacity:1;fill-rule:nonzero;stroke:none;stroke-width:0.999997"
         id="path2469"
         inkscape:connector-curvature="0" /><path
         d="m 2527.2626,2981.3119 h 158.29 l -14.61,72.359 -143.68,-4.949 v -67.41"
         style="fill:#f68721;fill-opacity:1;fill-rule:nonzero;stroke:none;stroke-width:0.999997"
         id="path2471"
         inkscape:connector-curvature="0" /><path
         d="m 2503.0026,2924.7609 -11.72,10.719 v -116.258 h 0.4299 c 1.66,0 3.3,0.098 4.91,0.289 9.54,1.11 17.45,9.039 23.11,19.922 14.84,28.488 6.97,63.648 -16.73,85.328"
         style="fill:#5ab834;fill-opacity:1;fill-rule:nonzero;stroke:none;stroke-width:0.999997"
         id="path2473"
         inkscape:connector-curvature="0" /><path
         d="m 2479.5726,2924.7609 c -23.71,-21.68 -31.58,-56.84 -16.74,-85.328 5.66,-10.883 13.57,-18.812 23.11,-19.922 1.61,-0.191 3.25,-0.289 4.91,-0.289 h 0.4299 v 116.258 l -11.71,-10.719"
         style="fill:#6ac62f;fill-opacity:1;fill-rule:nonzero;stroke:none;stroke-width:0.999997"
         id="path2475"
         inkscape:connector-curvature="0" /><path
         d="m 2482.9626,2655.8899 h 8.32 v 262.012 z"
         style="fill:#7ecb29;fill-opacity:1;fill-rule:nonzero;stroke:none;stroke-width:0.999997"
         id="path2477"
         inkscape:connector-curvature="0" /><path
         d="m 2500.3526,2655.8899 h -9.07 v 262.012 z"
         style="fill:#6ac62f;fill-opacity:1;fill-rule:nonzero;stroke:none;stroke-width:0.999997"
         id="path2479"
         inkscape:connector-curvature="0" /><path
         d="m 2607.0626,2837.5419 -0.7,15.868 -82.21,-82.207 0.3,-0.301 c 1.18,-1.18 2.4,-2.27 3.67,-3.27 7.54,-5.972 18.74,-5.949 30.44,-2.261 30.64,9.652 49.93,40.082 48.5,72.171"
         style="fill:#5ab834;fill-opacity:1;fill-rule:nonzero;stroke:none;stroke-width:0.999997"
         id="path2481"
         inkscape:connector-curvature="0" /><path
         d="m 2590.5026,2854.1129 c -52.62,9.886 -69.05,-15.172 -72.18,-48.512 -1.15,-12.199 -3.71,-22.891 2.26,-30.43 1.01,-1.269 2.1,-2.5 3.27,-3.672 l 0.3,-0.296 82.21,82.207 -15.86,0.703"
         style="fill:#6ac62f;fill-opacity:1;fill-rule:nonzero;stroke:none;stroke-width:0.999997"
         id="path2483"
         inkscape:connector-curvature="0" /><path
         d="m 2489.6626,2744.7299 4.02,-4.008 100.25,100.258 z"
         style="fill:#7ecb29;fill-opacity:1;fill-rule:nonzero;stroke:none;stroke-width:0.999997"
         id="path2485"
         inkscape:connector-curvature="0" /><path
         d="m 2497.6826,2736.7099 -4,4.012 100.25,100.258 z"
         style="fill:#6ac62f;fill-opacity:1;fill-rule:nonzero;stroke:none;stroke-width:0.999997"
         id="path2487"
         inkscape:connector-curvature="0" /><path
         d="m 2376.6026,2837.5419 0.6999,15.868 82.21,-82.207 -0.3,-0.301 c -1.17,-1.18 -2.4,-2.27 -3.67,-3.27 -7.54,-5.972 -18.74,-5.949 -30.44,-2.261 -30.64,9.652 -49.93,40.082 -48.5,72.171"
         style="fill:#5ab834;fill-opacity:1;fill-rule:nonzero;stroke:none;stroke-width:0.999997"
         id="path2489"
         inkscape:connector-curvature="0" /><path
         d="m 2393.1726,2854.1129 c 32.09,1.429 62.52,-17.864 72.17,-48.512 3.69,-11.691 3.71,-22.891 -2.26,-30.43 -1,-1.269 -2.09,-2.5 -3.27,-3.672 l -0.3,-0.296 -82.21,82.207 15.87,0.703"
         style="fill:#6ac62f;fill-opacity:1;fill-rule:nonzero;stroke:none;stroke-width:0.999997"
         id="path2491"
         inkscape:connector-curvature="0" /><path
         d="m 2494.0026,2744.7299 -4.01,-4.008 -100.26,100.258 z"
         style="fill:#7ecb29;fill-opacity:1;fill-rule:nonzero;stroke:none;stroke-width:0.999997"
         id="path2493"
         inkscape:connector-curvature="0" /><path
         d="m 2485.9826,2736.7099 4.01,4.012 -100.26,100.258 z"
         style="fill:#6ac62f;fill-opacity:1;fill-rule:nonzero;stroke:none;stroke-width:0.999997"
         id="path2495"
         inkscape:connector-curvature="0" /><path
         d="m 2340.7726,2955.3709 h 28 c 0,0 -21.5,-57.54 -28,-92.02 -6.49,-34.488 -12.49,-87.98 -12.49,-87.98 0,0 0,95.468 0,116.468 0,20.992 12.49,63.532 12.49,63.532"
         style="fill:#fabc54;fill-opacity:1;fill-rule:nonzero;stroke:none;stroke-width:0.999997"
         id="path2497"
         inkscape:connector-curvature="0" /><path
         d="m 2514.6526,3173.2729 c -0.1701,0.199 -0.2601,0.418 -0.2601,0.668 0,0.242 0.1101,0.469 0.3201,0.699 0.22,0.223 0.44,0.34 0.69,0.34 0.24,0 0.4599,-0.117 0.66,-0.34 0.2,-0.23 0.3,-0.449 0.3,-0.687 0,-0.653 -0.36,-0.981 -1.1,-0.981 -0.2301,0 -0.43,0.098 -0.61,0.301"
         style="fill:#fef3eb;fill-opacity:1;fill-rule:nonzero;stroke:none;stroke-width:0.999997"
         id="path4677"
         inkscape:connector-curvature="0" /></g></g></svg>
