<?xml version="1.0" encoding="UTF-8" standalone="no"?>
<svg
   xmlns:dc="http://purl.org/dc/elements/1.1/"
   xmlns:cc="http://creativecommons.org/ns#"
   xmlns:rdf="http://www.w3.org/1999/02/22-rdf-syntax-ns#"
   xmlns:svg="http://www.w3.org/2000/svg"
   xmlns="http://www.w3.org/2000/svg"
   xmlns:sodipodi="http://sodipodi.sourceforge.net/DTD/sodipodi-0.dtd"
   xmlns:inkscape="http://www.inkscape.org/namespaces/inkscape"
   inkscape:version="1.0beta2 (2b71d25, 2019-12-03)"
   sodipodi:docname="plant1.svg"
   viewBox="0 0 82.274666 91.239601"
   height="91.239601"
   width="82.274666"
   xml:space="preserve"
   id="svg2357"
   version="1.1"><metadata
     id="metadata2363"><rdf:RDF><cc:Work
         rdf:about=""><dc:format>image/svg+xml</dc:format><dc:type
           rdf:resource="http://purl.org/dc/dcmitype/StillImage" /><dc:title /></cc:Work></rdf:RDF></metadata><defs
     id="defs2361" /><sodipodi:namedview
     inkscape:current-layer="g2367"
     inkscape:window-maximized="0"
     inkscape:window-y="219"
     inkscape:window-x="719"
     inkscape:cy="68.75451"
     inkscape:cx="62.510461"
     inkscape:zoom="5.6568543"
     showguides="false"
     showgrid="false"
     id="namedview2359"
     inkscape:window-height="1037"
     inkscape:window-width="1602"
     inkscape:pageshadow="2"
     inkscape:pageopacity="0"
     guidetolerance="10"
     gridtolerance="10"
     objecttolerance="10"
     borderopacity="1"
     inkscape:document-rotation="0"
     bordercolor="#666666"
     pagecolor="#ffffff" /><g
     transform="matrix(1.3333333,0,0,-1.3333333,-293.53101,423.33064)"
     inkscape:label="ink_ext_XXXXXX"
     inkscape:groupmode="layer"
     id="g2365"><g
       transform="scale(0.1)"
       id="g2367"><path
         d="m 2964.3833,2526.0899 c 0,170.391 -138.13,308.532 -308.53,308.532 -170.4,0 -308.53,-138.141 -308.53,-308.532 0,-170.398 138.13,-308.527 308.53,-308.527 170.4,0 308.53,138.129 308.53,308.527"
         style="fill:#294686;fill-opacity:1;fill-rule:nonzero;stroke:none;stroke-width:0.999997"
         id="path2451"
         inkscape:connector-curvature="0" /><path
         d="m 2685.5526,2981.3119 h -11.45 v -411.871 l 37.13,13.609 11.62,93.699 c 1.58,241.153 -37.3,304.563 -37.3,304.563"
         style="fill:#f7972e;fill-opacity:1;fill-rule:nonzero;stroke:none;stroke-width:0.999997"
         id="path2461"
         inkscape:connector-curvature="0" /><path
         d="m 2491.8326,2544.7529 c -60.76,0 -121.51,8.227 -182.27,24.688 -23.09,173.281 -11.09,238.59 11.99,411.871 60.76,16.461 109.52,24.687 170.28,24.687 0,-189.738 0,-271.507 0,-461.246"
         style="fill:#f9ad2a;fill-opacity:1;fill-rule:nonzero;stroke:none;stroke-width:0.999997"
         id="path2463"
         inkscape:connector-curvature="0" /><path
         d="m 2674.1026,2569.4409 c -60.75,-16.461 -121.51,-24.688 -182.27,-24.688 0,189.739 0,271.508 0,461.246 60.76,0 121.52,-8.226 182.27,-24.687 23.09,-173.281 23.09,-238.59 0,-411.871"
         style="fill:#f8a223;fill-opacity:1;fill-rule:nonzero;stroke:none;stroke-width:0.999997"
         id="path2465"
         inkscape:connector-curvature="0" /><path
         d="m 2491.8326,2981.3119 h -170.28 l 3.17,72.359 167.11,-4.949 v -67.41"
         style="fill:#f7972e;fill-opacity:1;fill-rule:nonzero;stroke:none;stroke-width:0.999997"
         id="path2467"
         inkscape:connector-curvature="0" /><path
         d="m 2491.8326,2981.3119 h 182.27 l -3.16,72.359 -179.11,-4.949 v -67.41"
         style="fill:#f68721;fill-opacity:1;fill-rule:nonzero;stroke:none;stroke-width:0.999997"
         id="path2469"
         inkscape:connector-curvature="0" /><path
         d="m 2527.2626,2981.3119 h 158.29 l -14.61,72.359 -143.68,-4.949 v -67.41"
         style="fill:#f68721;fill-opacity:1;fill-rule:nonzero;stroke:none;stroke-width:0.999997"
         id="path2471"
         inkscape:connector-curvature="0" /><path
         d="m 2340.7726,2955.3709 h 28 c 0,0 -21.5,-57.54 -28,-92.02 -6.49,-34.488 -12.49,-87.98 -12.49,-87.98 0,0 0,95.468 0,116.468 0,20.992 12.49,63.532 12.49,63.532"
         style="fill:#fabc54;fill-opacity:1;fill-rule:nonzero;stroke:none;stroke-width:0.999997"
         id="path2497"
         inkscape:connector-curvature="0" /><path
         d="m 2514.6526,3173.2729 c -0.1701,0.199 -0.2601,0.418 -0.2601,0.668 0,0.242 0.1101,0.469 0.3201,0.699 0.22,0.223 0.44,0.34 0.69,0.34 0.24,0 0.4599,-0.117 0.66,-0.34 0.2,-0.23 0.3,-0.449 0.3,-0.687 0,-0.653 -0.36,-0.981 -1.1,-0.981 -0.2301,0 -0.43,0.098 -0.61,0.301"
         style="fill:#fef3eb;fill-opacity:1;fill-rule:nonzero;stroke:none;stroke-width:0.999997"
         id="path4677"
         inkscape:connector-curvature="0" /><g
         transform="matrix(0.28416776,0,0,0.2376362,1461.1125,2245.1933)"
         id="g1959"><path
           inkscape:connector-curvature="0"
           id="path1701"
           style="fill:#56ac35;fill-opacity:1;fill-rule:nonzero;stroke:none;stroke-width:0.999997"
           d="m 4234.2871,2531.0341 c 0,-133.02 -107.85,-240.87 -240.8799,-240.87 -133.0401,0 -240.8901,107.85 -240.8901,240.87 0,133.05 107.85,240.9 240.8901,240.9 133.0299,0 240.8799,-107.85 240.8799,-240.9" /><path
           inkscape:connector-curvature="0"
           id="path1703"
           style="fill:#76cb4c;fill-opacity:1;fill-rule:nonzero;stroke:none;stroke-width:0.999997"
           d="m 3971.7271,2771.9841 c 0,-161.74 -131.14,-292.87 -292.88,-292.87 -161.76,0 -292.89,131.13 -292.89,292.87 0,161.77 131.13,292.89 292.89,292.89 161.74,0 292.88,-131.12 292.88,-292.89" /><path
           inkscape:connector-curvature="0"
           id="path1705"
           style="fill:#56ac35;fill-opacity:1;fill-rule:nonzero;stroke:none;stroke-width:0.999997"
           d="m 3622.6871,2451.1841 c 0,-129.59 -105.05,-234.64 -234.64,-234.64 -129.59,0 -234.64,105.05 -234.64,234.64 0,129.6 105.05,234.65 234.64,234.65 129.59,0 234.64,-105.05 234.64,-234.65" /><path
           inkscape:connector-curvature="0"
           id="path1707"
           style="fill:none;stroke:#6a3b18;stroke-width:20;stroke-linecap:round;stroke-linejoin:miter;stroke-miterlimit:10;stroke-dasharray:none;stroke-opacity:1"
           d="m 3318.6871,1940.9741 c 240,0 480.04,0 720.04,0" /><path
           inkscape:connector-curvature="0"
           id="path1709"
           style="fill:#6a3b18;fill-opacity:1;fill-rule:nonzero;stroke:none;stroke-width:0.999997"
           d="m 3956.8571,2495.2441 c -49.73,-92.37 -144.14,-157.08 -254.28,-165.33 v 251.68 h -46.88 v -251.68 c -60.98,4.41 -117.18,26.06 -163.67,60.2 l -35.53,-35.53 c 55.95,-42.92 124.54,-70.15 199.2,-74.8 v -205.79 -131.6 h 46.88 v 131.65 205.8 c 123.75,8.01 230.88,77.86 290.8301,178.85 l -36.5501,36.55" /><path
           inkscape:connector-curvature="0"
           id="path1711"
           style="fill:none;stroke:#56ac35;stroke-width:9.99998;stroke-linecap:butt;stroke-linejoin:miter;stroke-miterlimit:10;stroke-dasharray:none;stroke-opacity:1"
           d="m 3678.7071,3012.4241 c 64.96,0 174.96,-43.19 214.96,-164.87" /></g><g
         transform="translate(-5.0145593,2.0792528)"
         id="g1647"><path
           d="m 2550.9426,2667.2453 c 3.7336,39.091 -38.7622,65.676 -73.9798,63.0923 -39.1213,-2.8692 -74.6826,-28.3728 -103.0725,-53.6214 -5.6028,-4.9832 -50.1827,-51.3003 -34.6339,-52.3291 12.2641,-0.8142 24.44,-2.7882 36.7064,-3.718 17.7773,-1.3484 35.485,-2.7195 53.207,-4.7134 14.0437,-1.5764 28.1587,-2.9489 42.3056,-2.824 24.7508,0.2165 51.5288,5.4329 67.7756,25.8306 6.3518,7.9699 10.7226,18.116 11.6916,28.283"
           style="fill:#633314;fill-opacity:1;fill-rule:nonzero;stroke:none;stroke-width:0.118902"
           id="path750"
           inkscape:connector-curvature="0" /><path
           d="m 2503.6302,2724.9548 c -8.8511,2.7776 -18.0208,3.9143 -26.514,3.2913 -41.1557,-3.0202 -77.8281,-31.7508 -101.8329,-53.0961 -8.333,-7.4133 -38.7176,-40.8261 -37.1626,-48.0719 0.039,-0.1941 0.072,-0.3367 0.4938,-0.4685 0.2103,-0.066 0.4746,-0.1096 0.7812,-0.1311 6.5038,-0.43 13.0676,-1.1973 19.4132,-1.9353 5.6748,-0.6615 11.5409,-1.3461 17.3118,-1.785 15.4982,-1.1737 34.786,-2.6373 53.2846,-4.718 12.7119,-1.4282 27.4951,-2.9382 42.0523,-2.8109 31.3118,0.2745 52.952,8.4633 66.1537,25.0396 6.2472,7.8416 10.3433,17.7453 11.2446,27.1762 2.774,29.0599 -20.7151,49.8227 -45.2257,57.5097 M 2337.359,2622.6072 v 0 c -1.777,0.5588 -2.9604,1.831 -3.3395,3.5909 -2.573,11.99 38.0628,51.7141 38.4789,52.0839 24.4596,21.7535 61.8845,51.0342 104.3125,54.1482 9.0175,0.6623 18.7271,-0.5386 28.0752,-3.4707 26.1276,-8.1948 51.1446,-30.5153 48.1459,-61.9148 -0.9881,-10.3659 -5.3007,-20.8047 -12.1388,-29.3893 -14.0399,-17.6283 -36.7407,-26.3345 -69.3973,-26.6212 -14.7926,-0.1282 -29.7244,1.3948 -42.5592,2.8384 -18.4211,2.0702 -37.666,3.5304 -53.1304,4.705 -5.8564,0.4435 -11.7652,1.1296 -17.4801,1.7989 -6.2957,0.7338 -12.8052,1.4914 -19.2078,1.9182 -0.6386,0.04 -1.2308,0.1472 -1.758,0.3125"
           style="fill:#451a13;fill-opacity:1;fill-rule:nonzero;stroke:none;stroke-width:0.118902"
           id="path752"
           inkscape:connector-curvature="0" /><path
           d="m 2338.4301,2626.6783 c -0.249,0.1133 -0.2763,0.2391 -0.3094,0.3998 -0.4881,2.2746 2.1724,7.1291 6.3098,12.9483 23.4149,25.0764 61.8371,30.9918 95.2267,39.9169 14.2123,3.7997 57.2051,21.3857 40.0272,42.618 -2.6277,3.2472 -6.517,4.5718 -10.9568,4.7133 2.774,0.4376 5.5694,0.7645 8.3886,0.9715 1.5124,0.1106 3.0462,0.1664 4.5968,0.1664 7.1531,0 14.6428,-1.1747 21.9172,-3.4577 3.5314,-1.107 7.0426,-2.4862 10.4551,-4.1211 13.8973,-14.9157 18.3324,-36.4887 5.8429,-55.5869 -17.6107,-26.9207 -63.7591,-25.7494 -91.3097,-26.0243 -0.5699,-0.01 -1.1435,-0.01 -1.7199,-0.01 -5.8291,0 -11.9775,0.275 -18.271,0.5495 -6.2926,0.2759 -12.7306,0.5518 -19.1368,0.5518 -15.6297,0 -31.0744,-1.6387 -43.7877,-8.9131 -2.5512,-1.4612 -4.9525,-3.0571 -7.273,-4.724"
           style="fill:#4f2613;fill-opacity:1;fill-rule:nonzero;stroke:none;stroke-width:0.118902"
           id="path754"
           inkscape:connector-curvature="0" /><path
           d="m 2339.1876,2624.3917 c -2.9864,0.2263 -3.6855,2.1699 -2.8717,5.1691 2.4388,3.8248 5.1559,7.2971 8.1146,10.4656 -4.1374,-5.8192 -6.7979,-10.6737 -6.3098,-12.9483 0.033,-0.1607 0.06,-0.2865 0.3094,-0.3998 -0.5541,-0.3981 -1.1035,-0.8003 -1.6493,-1.2058 0.5141,-0.5755 1.2438,-0.9916 2.4068,-1.0808 m 210.4531,59.7048 c 0,0.01 0,0.013 -0.01,0.02 0,-0.01 0,-0.014 0.01,-0.02 m -0.01,0.031 c -4.9226,18.9213 -21.0517,33.4152 -39.8466,40.8443 1.5172,-1.3116 2.9523,-2.6944 4.2984,-4.1379 -3.4126,1.6349 -6.9237,3.0142 -10.4552,4.1211 -7.2744,2.283 -14.764,3.4578 -21.9172,3.4578 -1.5505,0 -3.0844,-0.056 -4.5968,-0.1665 -2.8192,-0.2069 -5.6146,-0.5339 -8.3886,-0.9714 -0.2699,0.01 -0.5398,0.013 -0.8132,0.013 -10.9426,0 -24.878,-6.7251 -31.5936,-9.5752 -9.2146,-3.9155 -18.2684,-8.4468 -27.127,-13.3529 20.6513,13.7203 43.5236,24.2003 67.769,25.978 1.5814,0.1164 3.1724,0.1736 4.7787,0.1736 28.7268,0 60.6034,-18.3443 67.8921,-46.384"
           style="fill:#361512;fill-opacity:1;fill-rule:nonzero;stroke:none;stroke-width:0.118902"
           id="path756"
           inkscape:connector-curvature="0" /><path
           d="m 2469.6812,2613.1235 c -13.5454,0 -27.0622,1.3237 -40.5114,2.8322 -17.722,1.9939 -35.4297,3.365 -53.207,4.7134 -12.2664,0.9298 -24.4423,2.9038 -36.7064,3.718 -0.023,0 -0.046,0 -0.068,0.01 0.023,0 0.046,0 0.068,-0.01 12.2641,-0.8142 24.44,-2.7882 36.7064,-3.718 17.7773,-1.3484 35.485,-2.7195 53.207,-4.7134 13.4492,-1.5085 26.966,-2.8322 40.5114,-2.8322 0.5981,0 1.1962,0 1.7942,0.01 24.7508,0.2165 51.5288,5.4328 67.7756,25.8306 6.3518,7.9699 10.7226,18.116 11.6916,28.283 0.566,5.9239 0.07,11.5586 -1.3019,16.8512 1.3721,-5.2902 1.8679,-10.9273 1.3019,-16.8512 -0.969,-10.167 -5.3398,-20.3131 -11.6916,-28.283 -16.2468,-20.3978 -43.0248,-25.6141 -67.7756,-25.8306 -0.598,-0.01 -1.1961,-0.01 -1.7942,-0.01 m 79.9548,70.9929 c 0,0.01 0,0.01 0,0.011 0,-0.01 0,-0.01 0,-0.011"
           style="fill:#361512;fill-opacity:1;fill-rule:nonzero;stroke:none;stroke-width:0.118902"
           id="path758"
           inkscape:connector-curvature="0" /><path
           d="m 2469.7264,2615.2223 c -13.9937,0 -28.1145,1.4468 -40.3211,2.8179 -18.4986,2.0807 -37.7864,3.5443 -53.2846,4.718 -5.7709,0.4389 -11.637,1.1235 -17.3118,1.785 -6.3456,0.738 -12.9094,1.5053 -19.4132,1.9353 -0.3066,0.022 -0.5709,0.064 -0.7812,0.1311 -0.073,0.023 -0.1333,0.045 -0.1844,0.068 2.3205,1.6669 4.7218,3.2628 7.273,4.724 12.7133,7.2744 28.158,8.913 43.7877,8.913 6.4062,0 12.8442,-0.2759 19.1368,-0.5517 6.2935,-0.2745 12.4419,-0.5495 18.271,-0.5495 0.5764,0 1.15,0 1.7199,0.01 27.5506,0.2749 73.699,-0.8963 91.3097,26.0243 12.4895,19.0982 8.0544,40.6712 -5.8429,55.5869 20.28,-9.7203 37.1451,-28.5151 34.7706,-53.3886 -0.9013,-9.4309 -4.9974,-19.3346 -11.2446,-27.1761 -13.2017,-16.5763 -34.8419,-24.7652 -66.1537,-25.0396 -0.5767,-0.01 -1.1534,-0.01 -1.7312,-0.01"
           style="fill:#3f1e13;fill-opacity:1;fill-rule:nonzero;stroke:none;stroke-width:0.118902"
           id="path760"
           inkscape:connector-curvature="0" /><path
           d="m 2469.6812,2613.1235 c -13.5454,0 -27.0622,1.3237 -40.5114,2.8322 -17.722,1.9939 -35.4297,3.365 -53.207,4.7134 -12.2664,0.9298 -24.4423,2.9038 -36.7064,3.718 -0.023,0 -0.046,0 -0.068,0.01 -1.163,0.089 -1.8927,0.5054 -2.4068,1.0809 0.5457,0.4054 1.0951,0.8076 1.6492,1.2058 0.051,-0.023 0.1119,-0.046 0.1844,-0.068 0.2104,-0.067 0.4747,-0.1096 0.7813,-0.1311 6.5038,-0.43 13.0675,-1.1973 19.4132,-1.9354 5.6747,-0.6614 11.5408,-1.346 17.3117,-1.7849 15.4983,-1.1737 34.786,-2.6373 53.2846,-4.7181 12.2067,-1.371 26.3275,-2.8178 40.3212,-2.8178 0.5778,0 1.1545,0 1.7312,0.01 31.3117,0.2744 52.9519,8.4634 66.1537,25.0397 6.2471,7.8414 10.3433,17.7451 11.2445,27.176 2.3746,24.8735 -14.4906,43.6684 -34.7705,53.3886 -1.346,1.4435 -2.7812,2.8263 -4.2984,4.1379 18.795,-7.4291 34.924,-21.923 39.8466,-40.8443 0,0 0,-0.01 0,-0.011 0,-0.01 0,-0.013 0.01,-0.02 1.3721,-5.2927 1.8679,-10.9274 1.302,-16.8513 -0.9691,-10.167 -5.3399,-20.3131 -11.6917,-28.2829 -16.2468,-20.3978 -43.0248,-25.6142 -67.7755,-25.8307 -0.5981,-0.01 -1.1962,-0.01 -1.7942,-0.01"
           style="fill:#2b1210;fill-opacity:1;fill-rule:nonzero;stroke:none;stroke-width:0.118902"
           id="path762"
           inkscape:connector-curvature="0" /><path
           d="m 2381.5554,2673.0966 c -0.6256,0 -1.1421,0.8695 -0.6252,1.4209 18.507,19.7331 44.0905,38.1737 70.0405,46.6515 0.2117,0.068 0.4126,0.1 0.6017,0.1 1.6253,0 2.3483,-2.3401 0.8941,-3.3781 -11.3766,-8.1329 -24.4175,-13.9863 -36.3276,-21.3225 -11.8122,-7.2721 -22.9915,-15.1021 -34.1474,-23.3207 -0.1439,-0.1059 -0.2931,-0.151 -0.4361,-0.151"
           style="fill:#995e1a;fill-opacity:1;fill-rule:nonzero;stroke:none;stroke-width:0.118902"
           id="path764"
           inkscape:connector-curvature="0" /><path
           d="m 2460.2748,2720.2534 c -1.4458,0 -2.1141,2.0951 -0.799,2.8454 1.4328,0.8109 2.7645,1.3102 4.3946,1.51 0.061,0.01 0.1213,0.011 0.1796,0.011 1.5636,0 2.3222,-2.529 0.8145,-3.2472 -1.4899,-0.7111 -2.8656,-1.0297 -4.51,-1.1177 -0.028,0 -0.053,0 -0.079,0"
           style="fill:#995e1a;fill-opacity:1;fill-rule:nonzero;stroke:none;stroke-width:0.118902"
           id="path766"
           inkscape:connector-curvature="0" /><path
           d="m 2559.1184,2699.0127 c -0.012,0.017 -0.023,0.034 -0.033,0.053 0.011,-0.018 0.022,-0.036 0.033,-0.053"
           style="fill:#2b1210;fill-opacity:1;fill-rule:nonzero;stroke:none;stroke-width:0.118902"
           id="path782"
           inkscape:connector-curvature="0" /><path
           d="m 2559.0827,2699.0675 c -0.2092,0.3247 -0.4197,0.6632 -0.6337,1.0153 0.214,-0.3521 0.4245,-0.6906 0.6337,-1.0153"
           style="fill:#2b1210;fill-opacity:1;fill-rule:nonzero;stroke:none;stroke-width:0.118902"
           id="path784"
           inkscape:connector-curvature="0" /><path
           d="m 2558.449,2700.0828 c -0.01,0.01 -0.012,0.019 -0.017,0.028 0.01,-0.01 0.012,-0.019 0.017,-0.028"
           style="fill:#2b1210;fill-opacity:1;fill-rule:nonzero;stroke:none;stroke-width:0.118902"
           id="path786"
           inkscape:connector-curvature="0" /><path
           d="m 2558.4311,2700.1125 c -0.01,0.01 -0.012,0.019 -0.017,0.028 0.01,-0.01 0.012,-0.019 0.017,-0.028"
           style="fill:#2b1210;fill-opacity:1;fill-rule:nonzero;stroke:none;stroke-width:0.118902"
           id="path788"
           inkscape:connector-curvature="0" /><path
           d="m 2558.4133,2700.141 c -0.01,0.01 -0.011,0.019 -0.017,0.028 0.01,-0.011 0.011,-0.018 0.017,-0.028"
           style="fill:#2b1210;fill-opacity:1;fill-rule:nonzero;stroke:none;stroke-width:0.118902"
           id="path790"
           inkscape:connector-curvature="0" /><path
           d="m 2558.3955,2700.172 c -0.01,0.01 -0.012,0.019 -0.017,0.028 0.01,-0.01 0.011,-0.018 0.017,-0.028"
           style="fill:#2b1210;fill-opacity:1;fill-rule:nonzero;stroke:none;stroke-width:0.118902"
           id="path792"
           inkscape:connector-curvature="0" /><path
           d="m 2558.3777,2700.2004 c -0.01,0.01 -0.011,0.019 -0.017,0.028 0.01,-0.01 0.012,-0.017 0.017,-0.028"
           style="fill:#2b1210;fill-opacity:1;fill-rule:nonzero;stroke:none;stroke-width:0.118902"
           id="path794"
           inkscape:connector-curvature="0" /><path
           d="m 2558.3598,2700.2315 c -0.01,0.01 -0.011,0.017 -0.017,0.026 0.01,-0.01 0.011,-0.017 0.017,-0.026"
           style="fill:#2b1210;fill-opacity:1;fill-rule:nonzero;stroke:none;stroke-width:0.118902"
           id="path796"
           inkscape:connector-curvature="0" /><path
           d="m 2558.342,2700.2612 c -0.01,0.01 -0.011,0.017 -0.016,0.025 0.01,-0.01 0.011,-0.017 0.016,-0.025"
           style="fill:#2b1210;fill-opacity:1;fill-rule:nonzero;stroke:none;stroke-width:0.118902"
           id="path798"
           inkscape:connector-curvature="0" /><path
           d="m 2558.3241,2700.2909 c -0.01,0.01 -0.011,0.017 -0.015,0.026 0.01,-0.01 0.01,-0.017 0.015,-0.026"
           style="fill:#2b1210;fill-opacity:1;fill-rule:nonzero;stroke:none;stroke-width:0.118902"
           id="path800"
           inkscape:connector-curvature="0" /><path
           d="m 2558.3063,2700.3206 c -0.01,0.01 -0.011,0.017 -0.014,0.023 0.01,-0.01 0.01,-0.015 0.014,-0.023"
           style="fill:#2b1210;fill-opacity:1;fill-rule:nonzero;stroke:none;stroke-width:0.118902"
           id="path802"
           inkscape:connector-curvature="0" /><path
           d="m 2558.2873,2700.3518 c -0.01,0.01 -0.01,0.016 -0.014,0.023 0.01,-0.01 0.01,-0.017 0.014,-0.023"
           style="fill:#2b1210;fill-opacity:1;fill-rule:nonzero;stroke:none;stroke-width:0.118902"
           id="path804"
           inkscape:connector-curvature="0" /><path
           d="m 2558.2694,2700.3815 c 0,0.01 -0.01,0.015 -0.013,0.022 0.01,-0.01 0.01,-0.014 0.013,-0.022"
           style="fill:#2b1210;fill-opacity:1;fill-rule:nonzero;stroke:none;stroke-width:0.118902"
           id="path806"
           inkscape:connector-curvature="0" /><path
           d="m 2558.2516,2700.4121 c -0.01,0.01 -0.01,0.015 -0.014,0.023 0.01,-0.01 0.01,-0.016 0.014,-0.023"
           style="fill:#2b1210;fill-opacity:1;fill-rule:nonzero;stroke:none;stroke-width:0.118902"
           id="path808"
           inkscape:connector-curvature="0" /><path
           d="m 2558.2337,2700.4419 c -0.01,0.01 -0.01,0.015 -0.013,0.023 0,-0.01 0.01,-0.016 0.013,-0.023"
           style="fill:#2b1210;fill-opacity:1;fill-rule:nonzero;stroke:none;stroke-width:0.118902"
           id="path810"
           inkscape:connector-curvature="0" /><path
           d="m 2558.216,2700.4716 c -0.01,0.01 -0.01,0.015 -0.014,0.023 0.01,-0.01 0.01,-0.017 0.014,-0.023"
           style="fill:#2b1210;fill-opacity:1;fill-rule:nonzero;stroke:none;stroke-width:0.118902"
           id="path812"
           inkscape:connector-curvature="0" /><path
           d="m 2558.1981,2700.5028 c 0,0.01 -0.01,0.015 -0.013,0.021 0,-0.01 0.01,-0.014 0.013,-0.021"
           style="fill:#2b1210;fill-opacity:1;fill-rule:nonzero;stroke:none;stroke-width:0.118902"
           id="path814"
           inkscape:connector-curvature="0" /><path
           d="m 2558.1791,2700.5325 c 0,0.01 -0.01,0.015 -0.012,0.022 0,-0.01 0.01,-0.013 0.012,-0.022"
           style="fill:#2b1210;fill-opacity:1;fill-rule:nonzero;stroke:none;stroke-width:0.118902"
           id="path816"
           inkscape:connector-curvature="0" /><path
           d="m 2558.1612,2700.5645 c 0,0.01 -0.01,0.012 -0.011,0.018 0,-0.01 0.01,-0.012 0.011,-0.018"
           style="fill:#2b1210;fill-opacity:1;fill-rule:nonzero;stroke:none;stroke-width:0.118902"
           id="path818"
           inkscape:connector-curvature="0" /><path
           d="m 2558.1422,2700.5952 c 0,0.01 -0.01,0.011 -0.01,0.017 0,-0.01 0.01,-0.011 0.01,-0.017"
           style="fill:#2b1210;fill-opacity:1;fill-rule:nonzero;stroke:none;stroke-width:0.118902"
           id="path820"
           inkscape:connector-curvature="0" /><path
           d="m 2558.1244,2700.6263 c 0,0.01 -0.01,0.011 -0.01,0.015 0,-0.01 0.01,-0.011 0.01,-0.015"
           style="fill:#2b1210;fill-opacity:1;fill-rule:nonzero;stroke:none;stroke-width:0.118902"
           id="path822"
           inkscape:connector-curvature="0" /><path
           d="m 2558.1065,2700.6569 c 0,0.01 -0.01,0.011 -0.01,0.016 0,-0.01 0.01,-0.011 0.01,-0.016"
           style="fill:#2b1210;fill-opacity:1;fill-rule:nonzero;stroke:none;stroke-width:0.118902"
           id="path824"
           inkscape:connector-curvature="0" /><path
           d="m 2558.0876,2700.688 c 0,0.01 -0.01,0.01 -0.01,0.014 0,-0.01 0.01,-0.01 0.01,-0.014"
           style="fill:#2b1210;fill-opacity:1;fill-rule:nonzero;stroke:none;stroke-width:0.118902"
           id="path826"
           inkscape:connector-curvature="0" /><path
           d="m 2558.0697,2700.7191 c 0,0.01 -0.01,0.011 -0.01,0.015 0,-0.01 0.01,-0.011 0.01,-0.015"
           style="fill:#2b1210;fill-opacity:1;fill-rule:nonzero;stroke:none;stroke-width:0.118902"
           id="path828"
           inkscape:connector-curvature="0" /><path
           d="m 2558.0519,2700.7499 c 0,0.01 -0.01,0.01 -0.01,0.015 0,-0.01 0.01,-0.011 0.01,-0.015"
           style="fill:#2b1210;fill-opacity:1;fill-rule:nonzero;stroke:none;stroke-width:0.118902"
           id="path830"
           inkscape:connector-curvature="0" /><path
           d="m 2558.034,2700.7795 c 0,0.01 -0.01,0.011 -0.01,0.017 0,-0.01 0.01,-0.012 0.01,-0.017"
           style="fill:#2b1210;fill-opacity:1;fill-rule:nonzero;stroke:none;stroke-width:0.118902"
           id="path832"
           inkscape:connector-curvature="0" /><path
           d="m 2558.015,2700.8115 c 0,0.01 -0.01,0.01 -0.01,0.013 0,0 0.01,-0.01 0.01,-0.013"
           style="fill:#2b1210;fill-opacity:1;fill-rule:nonzero;stroke:none;stroke-width:0.118902"
           id="path834"
           inkscape:connector-curvature="0" /><path
           d="m 2557.9972,2700.8437 c 0,0.01 -0.01,0.01 -0.01,0.012 0,0 0.01,-0.01 0.01,-0.012"
           style="fill:#2b1210;fill-opacity:1;fill-rule:nonzero;stroke:none;stroke-width:0.118902"
           id="path836"
           inkscape:connector-curvature="0" /><path
           d="m 2557.9781,2700.8747 c 0,0 0,0.01 -0.01,0.012 0,-0.01 0,-0.01 0.01,-0.012"
           style="fill:#2b1210;fill-opacity:1;fill-rule:nonzero;stroke:none;stroke-width:0.118902"
           id="path838"
           inkscape:connector-curvature="0" /><path
           d="m 2557.9603,2700.9053 c 0,0 -0.01,0.01 -0.01,0.013 0,0 0.01,-0.01 0.01,-0.013"
           style="fill:#2b1210;fill-opacity:1;fill-rule:nonzero;stroke:none;stroke-width:0.118902"
           id="path840"
           inkscape:connector-curvature="0" /><path
           d="m 2557.9413,2700.9379 c 0,0 0,0.01 -0.01,0.011 0,0 0.01,-0.01 0.01,-0.011"
           style="fill:#2b1210;fill-opacity:1;fill-rule:nonzero;stroke:none;stroke-width:0.118902"
           id="path842"
           inkscape:connector-curvature="0" /><path
           d="m 2557.9234,2700.9687 c 0,0 -0.01,0.01 -0.01,0.011 0,0 0.01,-0.01 0.01,-0.011"
           style="fill:#2b1210;fill-opacity:1;fill-rule:nonzero;stroke:none;stroke-width:0.118902"
           id="path844"
           inkscape:connector-curvature="0" /><path
           d="m 2557.9044,2701.0021 c 0,0 0,0 0,0.01 0,0 0,0 0,-0.01"
           style="fill:#2b1210;fill-opacity:1;fill-rule:nonzero;stroke:none;stroke-width:0.118902"
           id="path846"
           inkscape:connector-curvature="0" /><path
           d="m 2557.8854,2701.035 v 0 c 0,0 0,0 0,0"
           style="fill:#2b1210;fill-opacity:1;fill-rule:nonzero;stroke:none;stroke-width:0.118902"
           id="path848"
           inkscape:connector-curvature="0" /><path
           d="m 2557.8663,2701.0676 v 0 c 0,0 0,0 0,0"
           style="fill:#2b1210;fill-opacity:1;fill-rule:nonzero;stroke:none;stroke-width:0.118902"
           id="path850"
           inkscape:connector-curvature="0" /><path
           d="m 2557.8486,2701.0982 v 0 c 0,0 0,0 0,0"
           style="fill:#2b1210;fill-opacity:1;fill-rule:nonzero;stroke:none;stroke-width:0.118902"
           id="path852"
           inkscape:connector-curvature="0" /><path
           d="m 2557.8295,2701.1302 v 0 c 0,0 0,0 0,0"
           style="fill:#2b1210;fill-opacity:1;fill-rule:nonzero;stroke:none;stroke-width:0.118902"
           id="path854"
           inkscape:connector-curvature="0" /><path
           d="m 2545.6729,2728.8406 c 0,0.01 -0.01,0.014 -0.01,0.023 0,-0.01 0.01,-0.014 0.01,-0.023"
           style="fill:#2b1210;fill-opacity:1;fill-rule:nonzero;stroke:none;stroke-width:0.118902"
           id="path856"
           inkscape:connector-curvature="0" /><path
           d="m 2559.0851,2699.0653 c 0,0 0,0 0,0 0,0 0,0 0,0 m -0.6361,1.0175 v 0 0 m -0.017,0.028 v 0 0 m -0.018,0.03 v 0 0 m -0.017,0.028 v 0 c 0,0 0,0 0,0 m -0.017,0.03 v 0 c 0,0 0,0 0,0 m -0.018,0.028 c 0,0 0,0 0,0 0,0 0,0 0,0 m -0.017,0.029 v 0 c 0,0 0,0 0,0 m -0.017,0.029 c 0,0 0,0 0,0.01 0,0 0,0 0,-0.01 m -0.018,0.031 c 0,0 0,0 0,0 0,0 0,0 0,0 m -0.017,0.028 c 0,0 0,0.01 -0.01,0.01 0,0 0,-0.01 0.01,-0.01 m -0.019,0.031 c 0,0 0,0.01 0,0.01 0,0 0,0 0,-0.01 m -0.017,0.028 c 0,0 0,0.01 -0.01,0.01 0,0 0,-0.01 0.01,-0.01 m -0.019,0.031 c 0,0 0,0.01 0,0.01 0,0 0,-0.01 0,-0.01 m -0.017,0.03 c 0,0 0,0.01 -0.01,0.01 0,0 0,-0.01 0.01,-0.01 m -0.019,0.031 c 0,0 0,0 0,0.01 0,0 0,-0.01 0,-0.01 m -0.017,0.028 c 0,0 0,0.01 -0.01,0.01 0,0 0,-0.01 0.01,-0.01 m -0.018,0.029 c 0,0 -0.01,0.01 -0.01,0.011 0,-0.01 0,-0.01 0.01,-0.011 m -0.017,0.028 c 0,0.01 -0.01,0.01 -0.01,0.012 0,0 0.01,-0.01 0.01,-0.012 m -0.017,0.029 c 0,0.01 -0.01,0.01 -0.01,0.014 0,0 0.01,-0.01 0.01,-0.014 m -0.018,0.03 c 0,0.01 -0.01,0.011 -0.01,0.015 0,-0.01 0.01,-0.01 0.01,-0.015 m -0.017,0.031 c 0,0.01 -0.01,0.011 -0.01,0.015 0,-0.01 0.01,-0.011 0.01,-0.015 m -0.017,0.03 c 0,0.01 -0.01,0.011 -0.01,0.017 0,-0.01 0.01,-0.011 0.01,-0.017 m -0.019,0.032 c 0,0.01 -0.01,0.01 -0.01,0.015 0,-0.01 0.01,-0.011 0.01,-0.015 m -0.017,0.031 c 0,0.01 -0.01,0.01 -0.01,0.014 0,-0.01 0.01,-0.01 0.01,-0.014 m -0.017,0.031 c 0,0.01 -0.01,0.011 -0.01,0.015 0,-0.01 0.01,-0.011 0.01,-0.015 m -0.017,0.028 c 0,0.01 -0.01,0.012 -0.011,0.019 0,-0.01 0.01,-0.014 0.011,-0.019 m -0.018,0.031 c -0.01,0.01 -0.01,0.013 -0.012,0.019 0,-0.01 0.01,-0.012 0.012,-0.019 m -0.017,0.031 c -0.01,0.01 -0.01,0.013 -0.012,0.019 0,-0.01 0.01,-0.013 0.012,-0.019 m -0.019,0.031 c 0,0.01 -0.01,0.012 -0.012,0.02 0.01,-0.01 0.01,-0.013 0.012,-0.02 m -0.018,0.031 c 0,0.01 -0.01,0.012 -0.012,0.02 0.01,-0.01 0.01,-0.013 0.012,-0.02 m -0.017,0.031 c -0.01,0.01 -0.01,0.015 -0.013,0.023 0.01,-0.01 0.01,-0.015 0.013,-0.023 m -0.017,0.029 c -0.01,0.01 -0.011,0.018 -0.015,0.027 0.01,-0.01 0.011,-0.018 0.015,-0.027 m -0.018,0.031 c -0.01,0.01 -0.011,0.019 -0.017,0.029 0.01,-0.011 0.011,-0.018 0.017,-0.029 m -0.017,0.031 c -0.01,0.01 -0.011,0.019 -0.017,0.028 0.01,-0.011 0.011,-0.018 0.017,-0.028 m -0.018,0.032 c -0.01,0.01 -0.012,0.02 -0.017,0.028 0.01,-0.011 0.012,-0.017 0.017,-0.028 m -0.017,0.03 c -0.01,0.01 -0.013,0.023 -0.018,0.031 0.01,-0.01 0.012,-0.02 0.018,-0.031 m -0.018,0.032 c -3.6978,6.4196 -7.9558,16.4894 -12.1387,27.6769 4.1829,-11.1875 8.4421,-21.2586 12.1387,-27.6769 m -12.1469,27.7007 c 0,0.01 -0.01,0.019 -0.011,0.028 0,-0.01 0.01,-0.019 0.011,-0.028"
           style="fill:#361512;fill-opacity:1;fill-rule:nonzero;stroke:none;stroke-width:0.118902"
           id="path858"
           inkscape:connector-curvature="0" /></g><g
         id="g1355"
         transform="matrix(0,-0.77055171,1.2874307,0,-1144.5926,4144.1926)"><path
           inkscape:connector-curvature="0"
           id="path750-9"
           style="fill:#633314;fill-opacity:1;fill-rule:nonzero;stroke:none;stroke-width:0.114119"
           d="m 1987.2376,2892.8244 c 3.7336,36.0095 -38.7622,60.4988 -73.9798,58.1187 -39.1213,-2.643 -74.6826,-26.1361 -103.0725,-49.3944 -5.6028,-4.5903 -50.1827,-47.2562 -34.6339,-48.2039 12.2641,-0.75 24.44,-2.5684 36.7064,-3.4249 17.7773,-1.2421 35.485,-2.5052 53.207,-4.3419 14.0437,-1.4521 28.1587,-2.7164 42.3056,-2.6014 24.7508,0.1995 51.5288,5.0047 67.7756,23.7944 6.3518,7.3416 10.7226,16.6879 11.6916,26.0534" /><path
           inkscape:connector-curvature="0"
           id="path752-3"
           style="fill:#451a13;fill-opacity:1;fill-rule:nonzero;stroke:none;stroke-width:0.114119"
           d="m 1939.9252,2945.9847 c -8.8511,2.5586 -18.0208,3.6057 -26.514,3.0318 -41.1557,-2.7821 -77.8281,-29.2479 -101.8329,-48.9105 -8.333,-6.8289 -38.7176,-37.6078 -37.1626,-44.2824 0.039,-0.1788 0.072,-0.3101 0.4938,-0.4316 0.2103,-0.061 0.4746,-0.1009 0.7812,-0.1208 6.5038,-0.396 13.0676,-1.1029 19.4132,-1.7827 5.6748,-0.6094 11.5409,-1.24 17.3118,-1.6443 15.4982,-1.0812 34.786,-2.4294 53.2846,-4.3461 12.7119,-1.3156 27.4951,-2.7066 42.0523,-2.5893 31.3118,0.2528 52.952,7.7961 66.1537,23.0657 6.2472,7.2234 10.3433,16.3464 11.2446,25.0339 2.774,26.7692 -20.7151,45.8952 -45.2257,52.9763 m -166.2712,-94.2795 v 0 c -1.777,0.5147 -2.9604,1.6866 -3.3395,3.3078 -2.573,11.0448 38.0628,47.6375 38.4789,47.9781 24.4596,20.0387 61.8845,47.0112 104.3125,49.8797 9.0175,0.6101 18.7271,-0.4962 28.0752,-3.1971 26.1276,-7.5488 51.1446,-28.1098 48.1459,-57.0341 -0.9881,-9.5487 -5.3007,-19.1646 -12.1388,-27.0725 -14.0399,-16.2386 -36.7407,-24.2585 -69.3973,-24.5226 -14.7926,-0.1181 -29.7244,1.2848 -42.5592,2.6146 -18.4211,1.907 -37.666,3.2521 -53.1304,4.3341 -5.8564,0.4085 -11.7652,1.0406 -17.4801,1.6571 -6.2957,0.676 -12.8052,1.3739 -19.2078,1.767 -0.6386,0.037 -1.2308,0.1356 -1.758,0.2879" /><path
           inkscape:connector-curvature="0"
           id="path754-7"
           style="fill:#4f2613;fill-opacity:1;fill-rule:nonzero;stroke:none;stroke-width:0.114119"
           d="m 1774.7251,2855.4554 c -0.249,0.1043 -0.2763,0.2202 -0.3094,0.3682 -0.4881,2.0953 2.1724,6.5671 6.3098,11.9276 23.4149,23.0996 61.8371,28.5487 95.2267,36.7702 14.2123,3.5002 57.2051,19.6999 40.0272,39.2584 -2.6277,2.9913 -6.517,4.2115 -10.9568,4.3418 2.774,0.4031 5.5694,0.7042 8.3886,0.8949 1.5124,0.1019 3.0462,0.1533 4.5968,0.1533 7.1531,0 14.6428,-1.0821 21.9172,-3.1851 3.5314,-1.0198 7.0426,-2.2902 10.4551,-3.7963 13.8973,-13.7399 18.3324,-33.6122 5.8429,-51.2049 -17.6107,-24.7986 -63.7591,-23.7196 -91.3097,-23.9728 -0.5699,-0.01 -1.1435,-0.01 -1.7199,-0.01 -5.8291,0 -11.9775,0.2533 -18.271,0.5062 -6.2926,0.2542 -12.7306,0.5083 -19.1368,0.5083 -15.6297,0 -31.0744,-1.5096 -43.7877,-8.2105 -2.5512,-1.346 -4.9525,-2.8161 -7.273,-4.3516" /><path
           inkscape:connector-curvature="0"
           id="path756-5"
           style="fill:#361512;fill-opacity:1;fill-rule:nonzero;stroke:none;stroke-width:0.114119"
           d="m 1775.4826,2853.349 c -2.9864,0.2085 -3.6855,1.9988 -2.8717,4.7616 2.4388,3.5233 5.1559,6.7219 8.1146,9.6406 -4.1374,-5.3605 -6.7979,-9.8323 -6.3098,-11.9276 0.033,-0.1481 0.06,-0.2639 0.3094,-0.3683 -0.5541,-0.3668 -1.1035,-0.7373 -1.6493,-1.1108 0.5141,-0.53 1.2438,-0.9134 2.4068,-0.9956 m 210.4531,54.9983 c 0,0.01 0,0.012 -0.01,0.018 0,-0.01 0,-0.013 0.01,-0.018 m -0.01,0.029 c -4.9226,17.4297 -21.0517,30.7811 -39.8466,37.6245 1.5172,-1.2082 2.9523,-2.482 4.2984,-3.8117 -3.4126,1.506 -6.9237,2.7766 -10.4552,3.7963 -7.2744,2.103 -14.764,3.1852 -21.9172,3.1852 -1.5505,0 -3.0844,-0.052 -4.5968,-0.1534 -2.8192,-0.1906 -5.6146,-0.4918 -8.3886,-0.8948 -0.2699,0.01 -0.5398,0.012 -0.8132,0.012 -10.9426,0 -24.878,-6.1949 -31.5936,-8.8203 -9.2146,-3.6069 -18.2684,-7.781 -27.127,-12.3003 20.6513,12.6387 43.5236,22.2926 67.769,23.9301 1.5814,0.1072 3.1724,0.1599 4.7787,0.1599 28.7268,0 60.6034,-16.8982 67.8921,-42.7275" /><path
           inkscape:connector-curvature="0"
           id="path758-7"
           style="fill:#361512;fill-opacity:1;fill-rule:nonzero;stroke:none;stroke-width:0.114119"
           d="m 1905.9762,2842.9691 c -13.5454,0 -27.0622,1.2193 -40.5114,2.6089 -17.722,1.8367 -35.4297,3.0998 -53.207,4.3419 -12.2664,0.8565 -24.4423,2.6749 -36.7064,3.4249 -0.023,0 -0.046,0 -0.068,0.01 0.023,0 0.046,0 0.068,-0.01 12.2641,-0.75 24.44,-2.5684 36.7064,-3.4249 17.7773,-1.2421 35.485,-2.5052 53.207,-4.3419 13.4492,-1.3896 26.966,-2.6089 40.5114,-2.6089 0.5982,0 1.1962,0 1.7942,0.01 24.7508,0.1994 51.5288,5.0045 67.7756,23.7944 6.3518,7.3416 10.7226,16.6879 11.6916,26.0534 0.5661,5.4569 0.07,10.6474 -1.3019,15.5228 1.3721,-4.8732 1.8679,-10.0659 1.3019,-15.5228 -0.969,-9.3655 -5.3398,-18.7118 -11.6916,-26.0534 -16.2468,-18.7899 -43.0248,-23.595 -67.7756,-23.7944 -0.5979,-0.01 -1.1961,-0.01 -1.7942,-0.01 m 79.9548,65.3965 c 0,0.01 0,0.01 0,0.01 0,-0.01 0,-0.01 0,-0.01" /><path
           inkscape:connector-curvature="0"
           id="path760-2"
           style="fill:#3f1e13;fill-opacity:1;fill-rule:nonzero;stroke:none;stroke-width:0.114119"
           d="m 1906.0214,2844.9024 c -13.9937,0 -28.1145,1.3328 -40.3211,2.5958 -18.4986,1.9167 -37.7864,3.2649 -53.2846,4.3461 -5.7709,0.4043 -11.637,1.0349 -17.3118,1.6443 -6.3456,0.6798 -12.9094,1.3866 -19.4132,1.7827 -0.3066,0.02 -0.5709,0.059 -0.7812,0.1208 -0.073,0.021 -0.1333,0.041 -0.1844,0.063 2.3205,1.5355 4.7218,3.0056 7.273,4.3516 12.7133,6.701 28.158,8.2104 43.7877,8.2104 6.4062,0 12.8442,-0.2542 19.1368,-0.5082 6.2935,-0.2529 12.4419,-0.5062 18.271,-0.5062 0.5764,0 1.15,0 1.7199,0.01 27.5506,0.2532 73.699,-0.8256 91.3097,23.9728 12.4895,17.5927 8.0544,37.4651 -5.8429,51.205 20.28,-8.9541 37.1451,-26.2673 34.7706,-49.18 -0.9013,-8.6874 -4.9974,-17.8104 -11.2446,-25.0338 -13.2017,-15.2696 -34.8419,-22.8129 -66.1537,-23.0657 -0.5766,-0.01 -1.1534,-0.01 -1.7312,-0.01" /><path
           inkscape:connector-curvature="0"
           id="path762-9"
           style="fill:#2b1210;fill-opacity:1;fill-rule:nonzero;stroke:none;stroke-width:0.114119"
           d="m 1905.9762,2842.9691 c -13.5454,0 -27.0622,1.2193 -40.5114,2.6089 -17.722,1.8367 -35.4297,3.0998 -53.207,4.3419 -12.2664,0.8565 -24.4423,2.6749 -36.7064,3.4249 -0.023,0 -0.046,0 -0.068,0.01 -1.163,0.082 -1.8927,0.4655 -2.4068,0.9957 0.5457,0.3734 1.0951,0.7439 1.6492,1.1107 0.051,-0.021 0.1119,-0.042 0.1844,-0.063 0.2104,-0.062 0.4747,-0.101 0.7813,-0.1208 6.5038,-0.3961 13.0675,-1.1029 19.4132,-1.7828 5.6747,-0.6094 11.5408,-1.2399 17.3117,-1.6442 15.4983,-1.0812 34.786,-2.4294 53.2846,-4.3462 12.2067,-1.2629 26.3275,-2.5957 40.3212,-2.5957 0.5778,0 1.1545,0 1.7312,0.01 31.3117,0.2527 52.9519,7.7962 66.1537,23.0658 6.2471,7.2232 10.3433,16.3462 11.2445,25.0337 2.3746,22.9127 -14.4906,40.226 -34.7705,49.1799 -1.346,1.3297 -2.7812,2.6035 -4.2984,3.8117 18.795,-6.8434 34.924,-20.1948 39.8466,-37.6245 0,0 0,-0.01 0,-0.01 0,-0.01 0,-0.012 0.01,-0.019 1.3721,-4.8754 1.8679,-10.0659 1.302,-15.5229 -0.9691,-9.3655 -5.3399,-18.7118 -11.6917,-26.0533 -16.2468,-18.7898 -43.0248,-23.595 -67.7755,-23.7945 -0.5981,-0.01 -1.1962,-0.01 -1.7942,-0.01" /><path
           inkscape:connector-curvature="0"
           id="path764-7"
           style="fill:#995e1a;fill-opacity:1;fill-rule:nonzero;stroke:none;stroke-width:0.114119"
           d="m 1817.8504,2898.2145 c -0.6256,0 -1.1421,0.8009 -0.6252,1.3089 18.507,18.1775 44.0905,35.1644 70.0405,42.9739 0.2118,0.063 0.4126,0.092 0.6018,0.092 1.6253,0 2.3483,-2.1556 0.8941,-3.1118 -11.3766,-7.4918 -24.4175,-12.8837 -36.3276,-19.6416 -11.8122,-6.6989 -22.9915,-13.9116 -34.1474,-21.4823 -0.1439,-0.098 -0.2931,-0.1391 -0.4361,-0.1391" /><path
           inkscape:connector-curvature="0"
           id="path766-5"
           style="fill:#995e1a;fill-opacity:1;fill-rule:nonzero;stroke:none;stroke-width:0.114119"
           d="m 1896.5698,2941.6539 c -1.4458,0 -2.1141,1.9299 -0.799,2.6211 1.4328,0.747 2.7645,1.2069 4.3946,1.3909 0.061,0.01 0.1213,0.01 0.1797,0.01 1.5636,0 2.3222,-2.3297 0.8145,-2.9912 -1.4899,-0.6551 -2.8656,-0.9486 -4.51,-1.0296 -0.028,0 -0.053,0 -0.079,0" /><path
           inkscape:connector-curvature="0"
           id="path782-6"
           style="fill:#2b1210;fill-opacity:1;fill-rule:nonzero;stroke:none;stroke-width:0.114119"
           d="m 1995.4134,2922.0876 c -0.012,0.016 -0.023,0.031 -0.033,0.049 0.011,-0.017 0.022,-0.033 0.033,-0.049" /><path
           inkscape:connector-curvature="0"
           id="path784-5"
           style="fill:#2b1210;fill-opacity:1;fill-rule:nonzero;stroke:none;stroke-width:0.114119"
           d="m 1995.3777,2922.1381 c -0.2091,0.2991 -0.4197,0.6109 -0.6336,0.9352 0.2139,-0.3243 0.4245,-0.6361 0.6336,-0.9352" /><path
           inkscape:connector-curvature="0"
           id="path786-3"
           style="fill:#2b1210;fill-opacity:1;fill-rule:nonzero;stroke:none;stroke-width:0.114119"
           d="m 1994.744,2923.0733 c -0.01,0.01 -0.012,0.017 -0.017,0.026 0.01,-0.01 0.012,-0.017 0.017,-0.026" /><path
           inkscape:connector-curvature="0"
           id="path788-0"
           style="fill:#2b1210;fill-opacity:1;fill-rule:nonzero;stroke:none;stroke-width:0.114119"
           d="m 1994.7261,2923.1007 c -0.01,0.01 -0.012,0.017 -0.017,0.026 0.01,-0.01 0.012,-0.017 0.017,-0.026" /><path
           inkscape:connector-curvature="0"
           id="path790-4"
           style="fill:#2b1210;fill-opacity:1;fill-rule:nonzero;stroke:none;stroke-width:0.114119"
           d="m 1994.7083,2923.127 c -0.01,0.01 -0.011,0.017 -0.017,0.026 0.01,-0.01 0.011,-0.017 0.017,-0.026" /><path
           inkscape:connector-curvature="0"
           id="path792-8"
           style="fill:#2b1210;fill-opacity:1;fill-rule:nonzero;stroke:none;stroke-width:0.114119"
           d="m 1994.6905,2923.1555 c -0.01,0.01 -0.012,0.017 -0.017,0.026 0.01,-0.01 0.011,-0.017 0.017,-0.026" /><path
           inkscape:connector-curvature="0"
           id="path794-5"
           style="fill:#2b1210;fill-opacity:1;fill-rule:nonzero;stroke:none;stroke-width:0.114119"
           d="m 1994.6727,2923.1817 c -0.01,0.01 -0.011,0.017 -0.017,0.026 0.01,-0.01 0.012,-0.016 0.017,-0.026" /><path
           inkscape:connector-curvature="0"
           id="path796-5"
           style="fill:#2b1210;fill-opacity:1;fill-rule:nonzero;stroke:none;stroke-width:0.114119"
           d="m 1994.6548,2923.2103 c -0.01,0.01 -0.011,0.016 -0.017,0.024 0.01,-0.01 0.011,-0.016 0.017,-0.024" /><path
           inkscape:connector-curvature="0"
           id="path798-5"
           style="fill:#2b1210;fill-opacity:1;fill-rule:nonzero;stroke:none;stroke-width:0.114119"
           d="m 1994.637,2923.2377 c -0.01,0.01 -0.011,0.016 -0.016,0.023 0.01,-0.01 0.011,-0.016 0.016,-0.023" /><path
           inkscape:connector-curvature="0"
           id="path800-4"
           style="fill:#2b1210;fill-opacity:1;fill-rule:nonzero;stroke:none;stroke-width:0.114119"
           d="m 1994.6191,2923.265 c -0.01,0.01 -0.011,0.016 -0.015,0.024 0.01,-0.01 0.01,-0.016 0.015,-0.024" /><path
           inkscape:connector-curvature="0"
           id="path802-2"
           style="fill:#2b1210;fill-opacity:1;fill-rule:nonzero;stroke:none;stroke-width:0.114119"
           d="m 1994.6013,2923.2924 c -0.01,0.01 -0.011,0.016 -0.014,0.021 0.01,-0.01 0.01,-0.014 0.014,-0.021" /><path
           inkscape:connector-curvature="0"
           id="path804-1"
           style="fill:#2b1210;fill-opacity:1;fill-rule:nonzero;stroke:none;stroke-width:0.114119"
           d="m 1994.5823,2923.3211 c -0.01,0.01 -0.01,0.015 -0.014,0.021 0.01,-0.01 0.01,-0.016 0.014,-0.021" /><path
           inkscape:connector-curvature="0"
           id="path806-9"
           style="fill:#2b1210;fill-opacity:1;fill-rule:nonzero;stroke:none;stroke-width:0.114119"
           d="m 1994.5644,2923.3485 c 0,0.01 -0.01,0.014 -0.013,0.02 0.01,-0.01 0.01,-0.013 0.013,-0.02" /><path
           inkscape:connector-curvature="0"
           id="path808-2"
           style="fill:#2b1210;fill-opacity:1;fill-rule:nonzero;stroke:none;stroke-width:0.114119"
           d="m 1994.5466,2923.3767 c -0.01,0.01 -0.01,0.014 -0.014,0.021 0.01,-0.01 0.01,-0.015 0.014,-0.021" /><path
           inkscape:connector-curvature="0"
           id="path810-4"
           style="fill:#2b1210;fill-opacity:1;fill-rule:nonzero;stroke:none;stroke-width:0.114119"
           d="m 1994.5287,2923.4041 c -0.01,0.01 -0.01,0.014 -0.013,0.021 0,-0.01 0.01,-0.015 0.013,-0.021" /><path
           inkscape:connector-curvature="0"
           id="path812-5"
           style="fill:#2b1210;fill-opacity:1;fill-rule:nonzero;stroke:none;stroke-width:0.114119"
           d="m 1994.511,2923.4315 c -0.01,0.01 -0.01,0.014 -0.014,0.021 0.01,-0.01 0.01,-0.016 0.014,-0.021" /><path
           inkscape:connector-curvature="0"
           id="path814-8"
           style="fill:#2b1210;fill-opacity:1;fill-rule:nonzero;stroke:none;stroke-width:0.114119"
           d="m 1994.4931,2923.4602 c 0,0.01 -0.01,0.014 -0.013,0.019 0,-0.01 0.01,-0.013 0.013,-0.019" /><path
           inkscape:connector-curvature="0"
           id="path816-6"
           style="fill:#2b1210;fill-opacity:1;fill-rule:nonzero;stroke:none;stroke-width:0.114119"
           d="m 1994.4741,2923.4876 c 0,0.01 -0.01,0.014 -0.012,0.02 0,-0.01 0.01,-0.012 0.012,-0.02" /><path
           inkscape:connector-curvature="0"
           id="path818-2"
           style="fill:#2b1210;fill-opacity:1;fill-rule:nonzero;stroke:none;stroke-width:0.114119"
           d="m 1994.4562,2923.5171 c 0,0.01 -0.01,0.011 -0.011,0.017 0,-0.01 0.01,-0.011 0.011,-0.017" /><path
           inkscape:connector-curvature="0"
           id="path820-5"
           style="fill:#2b1210;fill-opacity:1;fill-rule:nonzero;stroke:none;stroke-width:0.114119"
           d="m 1994.4372,2923.5453 c 0,0.01 -0.01,0.01 -0.01,0.016 0,-0.01 0.01,-0.01 0.01,-0.016" /><path
           inkscape:connector-curvature="0"
           id="path822-1"
           style="fill:#2b1210;fill-opacity:1;fill-rule:nonzero;stroke:none;stroke-width:0.114119"
           d="m 1994.4194,2923.574 c 0,0.01 -0.01,0.01 -0.01,0.014 0,-0.01 0.01,-0.01 0.01,-0.014" /><path
           inkscape:connector-curvature="0"
           id="path824-3"
           style="fill:#2b1210;fill-opacity:1;fill-rule:nonzero;stroke:none;stroke-width:0.114119"
           d="m 1994.4015,2923.6022 c 0,0.01 -0.01,0.01 -0.01,0.015 0,-0.01 0.01,-0.01 0.01,-0.015" /><path
           inkscape:connector-curvature="0"
           id="path826-9"
           style="fill:#2b1210;fill-opacity:1;fill-rule:nonzero;stroke:none;stroke-width:0.114119"
           d="m 1994.3826,2923.6308 c 0,0.01 -0.01,0.01 -0.01,0.013 0,-0.01 0.01,-0.01 0.01,-0.013" /><path
           inkscape:connector-curvature="0"
           id="path828-7"
           style="fill:#2b1210;fill-opacity:1;fill-rule:nonzero;stroke:none;stroke-width:0.114119"
           d="m 1994.3647,2923.6595 c 0,0.01 -0.01,0.01 -0.01,0.014 0,-0.01 0.01,-0.01 0.01,-0.014" /><path
           inkscape:connector-curvature="0"
           id="path830-3"
           style="fill:#2b1210;fill-opacity:1;fill-rule:nonzero;stroke:none;stroke-width:0.114119"
           d="m 1994.3469,2923.6879 c 0,0.01 -0.01,0.01 -0.01,0.014 0,-0.01 0.01,-0.01 0.01,-0.014" /><path
           inkscape:connector-curvature="0"
           id="path832-7"
           style="fill:#2b1210;fill-opacity:1;fill-rule:nonzero;stroke:none;stroke-width:0.114119"
           d="m 1994.329,2923.7151 c 0,0.01 -0.01,0.01 -0.01,0.016 0,-0.01 0.01,-0.011 0.01,-0.016" /><path
           inkscape:connector-curvature="0"
           id="path834-5"
           style="fill:#2b1210;fill-opacity:1;fill-rule:nonzero;stroke:none;stroke-width:0.114119"
           d="m 1994.31,2923.7446 c 0,0.01 -0.01,0.01 -0.01,0.012 0,0 0.01,-0.01 0.01,-0.012" /><path
           inkscape:connector-curvature="0"
           id="path836-0"
           style="fill:#2b1210;fill-opacity:1;fill-rule:nonzero;stroke:none;stroke-width:0.114119"
           d="m 1994.2922,2923.7743 c 0,0.01 -0.01,0.01 -0.01,0.011 0,0 0.01,-0.01 0.01,-0.011" /><path
           inkscape:connector-curvature="0"
           id="path838-2"
           style="fill:#2b1210;fill-opacity:1;fill-rule:nonzero;stroke:none;stroke-width:0.114119"
           d="m 1994.2731,2923.8028 c 0,0 0,0.01 -0.01,0.011 0,-0.01 0,-0.01 0.01,-0.011" /><path
           inkscape:connector-curvature="0"
           id="path840-1"
           style="fill:#2b1210;fill-opacity:1;fill-rule:nonzero;stroke:none;stroke-width:0.114119"
           d="m 1994.2553,2923.831 c 0,0 -0.01,0.01 -0.01,0.012 0,0 0.01,-0.01 0.01,-0.012" /><path
           inkscape:connector-curvature="0"
           id="path842-8"
           style="fill:#2b1210;fill-opacity:1;fill-rule:nonzero;stroke:none;stroke-width:0.114119"
           d="m 1994.2363,2923.861 c 0,0 0,0.01 -0.01,0.01 0,0 0.01,-0.01 0.01,-0.01" /><path
           inkscape:connector-curvature="0"
           id="path844-7"
           style="fill:#2b1210;fill-opacity:1;fill-rule:nonzero;stroke:none;stroke-width:0.114119"
           d="m 1994.2184,2923.8894 c 0,0 -0.01,0.01 -0.01,0.01 0,0 0.01,-0.01 0.01,-0.01" /><path
           inkscape:connector-curvature="0"
           id="path846-1"
           style="fill:#2b1210;fill-opacity:1;fill-rule:nonzero;stroke:none;stroke-width:0.114119"
           d="m 1994.1994,2923.9202 c 0,0 0,0 0,0.01 0,0 0,0 0,-0.01" /><path
           inkscape:connector-curvature="0"
           id="path848-5"
           style="fill:#2b1210;fill-opacity:1;fill-rule:nonzero;stroke:none;stroke-width:0.114119"
           d="m 1994.1804,2923.9505 v 0 c 0,0 0,0 0,0" /><path
           inkscape:connector-curvature="0"
           id="path850-5"
           style="fill:#2b1210;fill-opacity:1;fill-rule:nonzero;stroke:none;stroke-width:0.114119"
           d="m 1994.1613,2923.9805 v 0 c 0,0 0,0 0,0" /><path
           inkscape:connector-curvature="0"
           id="path852-8"
           style="fill:#2b1210;fill-opacity:1;fill-rule:nonzero;stroke:none;stroke-width:0.114119"
           d="m 1994.1436,2924.0087 v 0 c 0,0 0,0 0,0" /><path
           inkscape:connector-curvature="0"
           id="path854-5"
           style="fill:#2b1210;fill-opacity:1;fill-rule:nonzero;stroke:none;stroke-width:0.114119"
           d="m 1994.1245,2924.0382 v 0 c 0,0 0,0 0,0" /><path
           inkscape:connector-curvature="0"
           id="path856-6"
           style="fill:#2b1210;fill-opacity:1;fill-rule:nonzero;stroke:none;stroke-width:0.114119"
           d="m 1981.9679,2949.5641 c 0,0.01 -0.01,0.013 -0.01,0.021 0,-0.01 0.01,-0.013 0.01,-0.021" /><path
           inkscape:connector-curvature="0"
           id="path858-7"
           style="fill:#361512;fill-opacity:1;fill-rule:nonzero;stroke:none;stroke-width:0.114119"
           d="m 1995.3801,2922.136 c 0,0 0,0 0,0 0,0 0,0 0,0 m -0.636,0.9373 v 0 0 m -0.017,0.026 v 0 0 m -0.018,0.028 v 0 0 m -0.017,0.026 v 0 c 0,0 0,0 0,0 m -0.017,0.028 v 0 c 0,0 0,0 0,0 m -0.018,0.026 c 0,0 0,0 0,0 0,0 0,0 0,0 m -0.017,0.027 v 0 c 0,0 0,0 0,0 m -0.017,0.027 c 0,0 0,0 0,0.01 0,0 0,0 0,-0.01 m -0.018,0.029 c 0,0 0,0 0,0 0,0 0,0 0,0 m -0.017,0.026 c 0,0 0,0.01 -0.01,0.01 0,0 0,-0.01 0.01,-0.01 m -0.019,0.028 c 0,0 0,0.01 0,0.01 0,0 0,0 0,-0.01 m -0.017,0.026 c 0,0 0,0.01 -0.01,0.01 0,0 0,-0.01 0.01,-0.01 m -0.019,0.029 c 0,0 0,0.01 0,0.01 0,0 0,-0.01 0,-0.01 m -0.017,0.028 c 0,0 0,0.01 -0.01,0.01 0,0 0,-0.01 0.01,-0.01 m -0.019,0.029 c 0,0 0,0 0,0.01 0,0 0,-0.01 0,-0.01 m -0.017,0.026 c 0,0 0,0.01 -0.01,0.01 0,0 0,-0.01 0.01,-0.01 m -0.018,0.027 c 0,0 -0.01,0.01 -0.01,0.01 0,-0.01 0,-0.01 0.01,-0.01 m -0.017,0.026 c 0,0.01 -0.01,0.01 -0.01,0.011 0,0 0.01,-0.01 0.01,-0.011 m -0.017,0.027 c 0,0.01 -0.01,0.01 -0.01,0.013 0,0 0.01,-0.01 0.01,-0.013 m -0.018,0.028 c 0,0.01 -0.01,0.01 -0.01,0.014 0,-0.01 0.01,-0.01 0.01,-0.014 m -0.017,0.029 c 0,0.01 -0.01,0.01 -0.01,0.014 0,-0.01 0.01,-0.01 0.01,-0.014 m -0.017,0.028 c 0,0.01 -0.01,0.01 -0.01,0.016 0,-0.01 0.01,-0.01 0.01,-0.016 m -0.019,0.03 c 0,0.01 -0.01,0.01 -0.01,0.014 0,-0.01 0.01,-0.01 0.01,-0.014 m -0.017,0.028 c 0,0.01 -0.01,0.01 -0.01,0.013 0,-0.01 0.01,-0.01 0.01,-0.013 m -0.017,0.029 c 0,0.01 -0.01,0.01 -0.01,0.014 0,-0.01 0.01,-0.01 0.01,-0.014 m -0.017,0.026 c 0,0.01 -0.01,0.011 -0.011,0.017 0,-0.01 0.01,-0.013 0.011,-0.017 m -0.018,0.028 c -0.01,0.01 -0.01,0.012 -0.012,0.017 0,-0.01 0.01,-0.011 0.012,-0.017 m -0.017,0.029 c -0.01,0.01 -0.01,0.012 -0.012,0.017 0,-0.01 0.01,-0.012 0.012,-0.017 m -0.019,0.029 c 0,0.01 -0.01,0.011 -0.012,0.018 0.01,-0.01 0.01,-0.012 0.012,-0.018 m -0.018,0.028 c 0,0.01 -0.01,0.011 -0.012,0.018 0.01,-0.01 0.01,-0.012 0.012,-0.018 m -0.017,0.029 c -0.01,0.01 -0.01,0.014 -0.013,0.021 0.01,-0.01 0.01,-0.014 0.013,-0.021 m -0.017,0.027 c -0.01,0.01 -0.011,0.017 -0.015,0.025 0.01,-0.01 0.011,-0.017 0.015,-0.025 m -0.018,0.028 c -0.01,0.01 -0.011,0.017 -0.017,0.027 0.01,-0.01 0.011,-0.016 0.017,-0.027 m -0.017,0.029 c -0.01,0.01 -0.011,0.017 -0.017,0.026 0.01,-0.01 0.011,-0.017 0.017,-0.026 m -0.018,0.03 c -0.01,0.01 -0.012,0.018 -0.017,0.026 0.01,-0.01 0.012,-0.016 0.017,-0.026 m -0.017,0.028 c -0.01,0.01 -0.013,0.021 -0.018,0.029 0.01,-0.01 0.012,-0.019 0.018,-0.029 m -0.018,0.03 c -3.6939,5.9139 -7.9519,15.1899 -12.1348,25.4955 4.1829,-10.3056 8.4421,-19.5828 12.1387,-25.4952 m -12.1469,25.5171 c 0,0.01 -0.01,0.017 -0.011,0.026 0,-0.01 0.01,-0.017 0.011,-0.026" /></g></g></g></svg>
